<?xml version="1.0" encoding="utf-8"?>
<!-- Generator: Adobe Illustrator 23.1.0, SVG Export Plug-In . SVG Version: 6.00 Build 0)  -->
<svg version="1.1" id="Capa_1" xmlns="http://www.w3.org/2000/svg" xmlns:xlink="http://www.w3.org/1999/xlink" x="0px" y="0px"
	 viewBox="0 0 512 512" style="enable-background:new 0 0 512 512;" xml:space="preserve">
<style type="text/css">
	.st0{fill:url(#Shape_1_);}
</style>
<g>
	<g id="Page-1_41_">
		<g id="_x30_42---Education" transform="translate(0 -1)">
			<linearGradient id="Shape_1_" gradientUnits="userSpaceOnUse" x1="10.999" y1="256.9994" x2="500.999" y2="256.9994">
				<stop  offset="0.2079" style="stop-color:#A97821"/>
				<stop  offset="0.5553" style="stop-color:#DCAB46"/>
				<stop  offset="0.856" style="stop-color:#AA7822"/>
			</linearGradient>
			<path id="Shape_162_" class="st0" d="M486.8,145.5L273.9,48.5c-11.4-5.2-24.4-5.2-35.8,0L25.2,145.5
				c-8.6,3.7-14.2,12.2-14.2,21.6c0,9.4,5.6,17.9,14.2,21.6l67.5,30.8v111c0,18.8,12.2,35.8,32.7,49.4v25.2
				c-15.9,4.1-26.3,19.4-24.2,35.7c2.1,16.3,16,28.6,32.4,28.6s30.3-12.2,32.4-28.6c2.1-16.3-8.3-31.6-24.2-35.7v-15.9
				c36,15.9,75,23.7,114.3,22.9c91.6,0,163.3-35.9,163.3-81.7v-111l67.5-30.8c8.6-3.7,14.2-12.2,14.2-21.6
				C501,157.7,495.4,149.3,486.8,145.5L486.8,145.5z M149.8,436.6c0,9-7.3,16.3-16.3,16.3c-9,0-16.3-7.3-16.3-16.3
				c0-9,7.3-16.3,16.3-16.3C142.5,420.3,149.8,427.6,149.8,436.6z M109,330.4V226.9l16.3,7.4v125.4
				C115.8,352.9,109.9,342.1,109,330.4z M403,330.4c0,35.4-67.3,65.3-147,65.3c-45.6,0-87.1-9.8-114.3-24.9V241.8l96.4,44
				c11.4,5.2,24.4,5.2,35.8,0L403,226.9L403,330.4L403,330.4z M480,173.8l-212.9,97.1c-7.1,3.2-15.2,3.2-22.3,0l-92.5-42.2l72-36.5
				c9.7,5.1,20.6,7.7,31.6,7.5c27.5,0,49-14.3,49-32.7s-21.5-32.7-49-32.7c-27.5,0-49,14.3-49,32.7c0,4.8,1.5,9.5,4.2,13.5
				L133.3,220L32,173.8c-2.8-1.1-4.6-3.7-4.6-6.7c0-3,1.8-5.6,4.6-6.7l212.9-97.1c7.1-3.2,15.2-3.2,22.3,0L480,160.4
				c2.8,1.1,4.6,3.7,4.6,6.7C484.7,170.1,482.8,172.8,480,173.8L480,173.8z M223.3,167.1c0-7.7,14-16.3,32.7-16.3
				s32.7,8.6,32.7,16.3c0,7.7-14,16.3-32.7,16.3S223.3,174.8,223.3,167.1z"/>
		</g>
	</g>
</g>
</svg>
