<?xml version="1.0" encoding="utf-8"?>
<!-- Generator: Adobe Illustrator 23.1.0, SVG Export Plug-In . SVG Version: 6.00 Build 0)  -->
<svg version="1.1" id="Icon" xmlns="http://www.w3.org/2000/svg" xmlns:xlink="http://www.w3.org/1999/xlink" x="0px" y="0px"
	 viewBox="0 0 512 512" style="enable-background:new 0 0 512 512;" xml:space="preserve">
<style type="text/css">
	.st0{fill:url(#SVGID_1_);}
	.st1{fill:url(#SVGID_2_);}
	.st2{fill:url(#SVGID_3_);}
</style>
<linearGradient id="SVGID_1_" gradientUnits="userSpaceOnUse" x1="10.9999" y1="286.4017" x2="501" y2="286.4017">
	<stop  offset="0.2079" style="stop-color:#A97821"/>
	<stop  offset="0.5553" style="stop-color:#DCAB46"/>
	<stop  offset="0.856" style="stop-color:#AA7822"/>
</linearGradient>
<path class="st0" d="M481.5,452.5V315.9c0-13.5-11-24.5-24.5-24.5h-99.6V151.7h72.4v112c0,4.5,3.7,8.2,8.2,8.2s8.2-3.7,8.2-8.2V80
	c0-4.5-3.7-8.2-8.2-8.2h-88.7c-4.5,0-8.2,3.7-8.2,8.2v211.4h-28.4c-10-41.8-17.7-88.6-19.1-136.9c-0.4-13.3-10-23.7-21.8-23.7H130.3
	c-11.9,0-21.4,10.4-21.8,23.7c-1.2,43.8-7.7,90.5-19.3,138.7c-1.1,4.4,1.6,8.8,6,9.9c4.4,1,8.8-1.6,9.9-6
	c11.9-49.3,18.5-97.1,19.8-142c0.1-4.6,3-7.8,5.5-7.8h141.4c2.5,0,5.4,3.2,5.5,7.8c3.9,136,54.8,257.5,73.2,297.1H51.7
	c9.3-20,27.9-63.3,44.2-120.2c1.2-4.3-1.3-8.9-5.6-10.1c-4.3-1.2-8.9,1.3-10.1,5.6c-18.4,64.2-39.7,110.6-46.6,124.9
	c-12.6,1-22.5,11.5-22.5,24.3C11,490,22,501,35.5,501h441c13.5,0,24.5-11,24.5-24.5C501,464.7,492.6,454.8,481.5,452.5L481.5,452.5z
	 M429.8,88.1v47.2h-72.4V88.1H429.8z M316.7,307.8H457c4.5,0,8.2,3.7,8.2,8.2V452H442v-45c0-4.5-3.7-8.2-8.2-8.2h-40.3
	c-4.5,0-8.2,3.7-8.2,8.2v45h-17C361.7,437.9,336.2,382.3,316.7,307.8L316.7,307.8z M401.8,452v-36.9h23.9V452H401.8z M476.5,484.7
	h-441c-4.5,0-8.2-3.7-8.2-8.2c0-4.5,3.7-8.2,8.2-8.2h441c4.5,0,8.2,3.7,8.2,8.2C484.7,481,481,484.7,476.5,484.7z"/>
<linearGradient id="SVGID_2_" gradientUnits="userSpaceOnUse" x1="124.0524" y1="299.5845" x2="278.0084" y2="299.5845">
	<stop  offset="0.2079" style="stop-color:#A97821"/>
	<stop  offset="0.5553" style="stop-color:#DCAB46"/>
	<stop  offset="0.856" style="stop-color:#AA7822"/>
</linearGradient>
<path class="st1" d="M210.9,194c-6.8-2-14,0.8-17.7,6.9l-66.8,108.5c-3,4.8-3.1,10.9-0.4,15.9c2.8,5,8,8.1,13.7,8.1h37.9l-2,56.1
	c-0.3,7.1,4.1,13.4,10.9,15.6c6.6,2.1,14-0.3,17.9-6.4l71-108.8c3.2-4.8,3.4-11,0.6-16.1c-2.7-5.1-8-8.2-13.8-8.2h-40.4l0.4-56.2
	C222.4,202.1,217.8,196,210.9,194L210.9,194z M261.2,281.8l-69.2,106l2.3-62.3c0.1-2.2-0.7-4.4-2.3-6c-1.5-1.6-3.7-2.5-5.9-2.5
	h-45.2L206,211.4l-0.5,62.2c0,2.2,0.8,4.3,2.4,5.8c1.5,1.5,3.6,2.4,5.8,2.4L261.2,281.8L261.2,281.8z"/>
<linearGradient id="SVGID_3_" gradientUnits="userSpaceOnUse" x1="135.127" y1="54.5808" x2="266.926" y2="54.5808">
	<stop  offset="0.2079" style="stop-color:#A97821"/>
	<stop  offset="0.5553" style="stop-color:#DCAB46"/>
	<stop  offset="0.856" style="stop-color:#AA7822"/>
</linearGradient>
<path class="st2" d="M178.7,98.2c7.9,0,15.5-2.2,22.3-6.3c6.8,4.1,14.4,6.3,22.3,6.3c24,0,43.6-19.5,43.6-43.6S247.4,11,223.3,11
	c-7.9,0-15.5,2.2-22.3,6.3c-6.8-4.1-14.4-6.3-22.3-6.3c-24,0-43.6,19.6-43.6,43.6S154.7,98.2,178.7,98.2L178.7,98.2z M178.7,27.3
	c6.2,0,12.1,2.2,17.1,6.3c3,2.5,7.3,2.5,10.3,0c5-4.1,11-6.3,17.1-6.3c15,0,27.3,12.2,27.3,27.3s-12.2,27.2-27.3,27.2
	c-6.2,0-12.1-2.2-17.1-6.3c-1.5-1.2-3.3-1.9-5.2-1.9s-3.7,0.6-5.2,1.9c-5,4.1-10.9,6.3-17.1,6.3c-15,0-27.3-12.2-27.3-27.2
	S163.7,27.3,178.7,27.3L178.7,27.3z"/>
</svg>
