<?xml version="1.0" encoding="utf-8"?>
<!-- Generator: Adobe Illustrator 23.1.0, SVG Export Plug-In . SVG Version: 6.00 Build 0)  -->
<svg version="1.1" id="Layer_1" xmlns="http://www.w3.org/2000/svg" xmlns:xlink="http://www.w3.org/1999/xlink" x="0px" y="0px"
	 viewBox="0 0 500 500" style="enable-background:new 0 0 500 500;" xml:space="preserve">
<style type="text/css">
	.st0{fill:url(#SVGID_1_);}
	.st1{fill:url(#SVGID_2_);}
	.st2{fill:url(#SVGID_3_);}
	.st3{fill:url(#SVGID_4_);}
</style>
<linearGradient id="SVGID_1_" gradientUnits="userSpaceOnUse" x1="305.5158" y1="304.9793" x2="495" y2="304.9793">
	<stop  offset="0.2079" style="stop-color:#A97821"/>
	<stop  offset="0.5553" style="stop-color:#DCAB46"/>
	<stop  offset="0.856" style="stop-color:#AA7822"/>
</linearGradient>
<path class="st0" d="M464.1,127.6c-17,0-30.9,13.9-30.9,30.9v109.9c-7.8-0.2-15.6,2.6-21.5,8.5l-45.9,45.9c-0.3,0.3-0.6,0.6-1,0.9
	l-38.5,31.1c-13.3,10.7-20.9,26.7-20.9,43.8v75.7c0,4.5,3.7,8.2,8.2,8.2c4.5,0,8.2-3.7,8.2-8.2v-75.7c0-12.1,5.4-23.4,14.8-31.1
	l38.5-31.1c0.8-0.7,1.6-1.4,2.3-2l45.8-45.8c5-5,13.2-5,18.2,0c2.4,2.4,3.8,5.7,3.8,9.1s-1.3,6.7-3.8,9.1l-41.9,41.9
	c-3.2,3.2-3.2,8.4,0,11.5c3.2,3.2,8.4,3.2,11.5,0l41.9-41.9c5.5-5.5,8.6-12.9,8.6-20.7c0-7.8-3-15.1-8.6-20.7
	c-1.1-1.1-2.3-2-3.5-2.8V158.5c0-8,6.5-14.6,14.6-14.6s14.6,6.5,14.6,14.6v163c0,3.2-1.1,6.4-3,8.9l-83.8,108.2
	c-1.1,1.4-1.7,3.2-1.7,5v30.6c0,4.5,3.7,8.2,8.2,8.2c4.5,0,8.2-3.7,8.2-8.2v-27.8l82.1-106c4.2-5.4,6.5-12.1,6.5-18.9v-163
	C495,141.4,481.1,127.6,464.1,127.6z"/>
<linearGradient id="SVGID_2_" gradientUnits="userSpaceOnUse" x1="5" y1="304.9793" x2="194.4842" y2="304.9793">
	<stop  offset="0.2079" style="stop-color:#A97821"/>
	<stop  offset="0.5553" style="stop-color:#DCAB46"/>
	<stop  offset="0.856" style="stop-color:#AA7822"/>
</linearGradient>
<path class="st1" d="M5,158.5v163c0,6.8,2.3,13.5,6.5,18.9l82.1,106v27.8c0,4.5,3.7,8.2,8.2,8.2c4.5,0,8.2-3.7,8.2-8.2v-30.6
	c0-1.8-0.6-3.6-1.7-5L24.4,330.4c-2-2.5-3-5.7-3-8.9v-163c0-8,6.5-14.6,14.6-14.6s14.6,6.5,14.6,14.6V274c-1.2,0.9-2.4,1.8-3.5,2.8
	c-5.5,5.5-8.6,12.9-8.6,20.7c0,7.8,3,15.1,8.6,20.7l41.9,41.9c3.2,3.2,8.4,3.2,11.5,0c3.2-3.2,3.2-8.4,0-11.5l-41.9-41.9
	c-2.4-2.4-3.8-5.7-3.8-9.1s1.3-6.7,3.8-9.1c5-5,13.2-5,18.2,0l45.8,45.8c0.7,0.7,1.5,1.4,2.3,2.1l38.5,31.1
	c9.4,7.6,14.8,18.9,14.8,31.1v75.7c0,4.5,3.7,8.2,8.2,8.2c4.5,0,8.2-3.7,8.2-8.2v-75.7c0-17.1-7.6-33-20.9-43.8l-38.4-31.1
	c-0.3-0.3-0.7-0.6-1-0.9l-45.8-45.8c-5.9-5.9-13.7-8.7-21.5-8.5V158.5c0-17-13.9-30.9-30.9-30.9S5,141.4,5,158.5z"/>
<linearGradient id="SVGID_3_" gradientUnits="userSpaceOnUse" x1="80.3184" y1="173.429" x2="419.6737" y2="173.429">
	<stop  offset="0.2079" style="stop-color:#A97821"/>
	<stop  offset="0.5553" style="stop-color:#DCAB46"/>
	<stop  offset="0.856" style="stop-color:#AA7822"/>
</linearGradient>
<path class="st2" d="M419.7,120.4c0-27.5-10.7-53.3-30.1-72.7c-38.2-38.2-99.2-40-139.6-5.4C209.6,7.7,148.6,9.5,110.4,47.7
	C91,67.1,80.3,92.9,80.3,120.4c0,27.5,10.7,53.3,30.1,72.7l133.8,133.8c1.5,1.5,3.6,2.4,5.8,2.4c2.2,0,4.2-0.9,5.8-2.4L389.6,193
	C409,173.6,419.7,147.8,419.7,120.4z M250,309.5l-128-128c-16.3-16.3-25.3-38-25.3-61.1c0-23.1,9-44.8,25.3-61.1
	c16.9-16.9,39-25.3,61.1-25.3c22.1,0,44.3,8.4,61.1,25.3c3.2,3.2,8.4,3.2,11.5,0c33.7-33.7,88.5-33.7,122.3,0
	c16.3,16.3,25.3,38,25.3,61.1c0,23.1-9,44.8-25.3,61.1L250,309.5z"/>
<linearGradient id="SVGID_4_" gradientUnits="userSpaceOnUse" x1="180.695" y1="164.3475" x2="319.305" y2="164.3475">
	<stop  offset="0.2079" style="stop-color:#A97821"/>
	<stop  offset="0.5553" style="stop-color:#DCAB46"/>
	<stop  offset="0.856" style="stop-color:#AA7822"/>
</linearGradient>
<path class="st3" d="M307.3,134.3h-27.2V107c0-6.6-5.4-12-12-12h-36.2c-6.6,0-12,5.4-12,12v27.2h-27.2c-6.6,0-12,5.4-12,12v36.2
	c0,6.6,5.4,12,12,12h27.2v27.2c0,6.6,5.4,12,12,12h36.2c6.6,0,12-5.4,12-12v-27.2h27.2c6.6,0,12-5.4,12-12v-36.2
	C319.3,139.6,313.9,134.3,307.3,134.3z M303,178.1h-27.2c-6.6,0-12,5.4-12,12v27.2h-27.5v-27.2c0-6.6-5.4-12-12-12H197v-27.5h27.2
	c6.6,0,12-5.4,12-12v-27.2h27.5v27.2c0,6.6,5.4,12,12,12H303V178.1z"/>
</svg>
