<?xml version="1.0" encoding="utf-8"?>
<!-- Generator: Adobe Illustrator 23.1.0, SVG Export Plug-In . SVG Version: 6.00 Build 0)  -->
<svg version="1.1" id="Line_copy" xmlns="http://www.w3.org/2000/svg" xmlns:xlink="http://www.w3.org/1999/xlink" x="0px" y="0px"
	 viewBox="0 0 512 512" style="enable-background:new 0 0 512 512;" xml:space="preserve">
<style type="text/css">
	.st0{fill:url(#SVGID_1_);}
	.st1{fill:url(#SVGID_2_);}
	.st2{fill:url(#SVGID_3_);}
	.st3{fill:url(#SVGID_4_);}
	.st4{fill:url(#SVGID_5_);}
	.st5{fill:url(#SVGID_6_);}
	.st6{fill:url(#SVGID_7_);}
	.st7{fill:url(#SVGID_8_);}
	.st8{fill:url(#SVGID_9_);}
	.st9{fill:url(#SVGID_10_);}
	.st10{fill:url(#SVGID_11_);}
	.st11{fill:url(#SVGID_12_);}
	.st12{fill:url(#SVGID_13_);}
	.st13{fill:url(#SVGID_14_);}
	.st14{fill:url(#SVGID_15_);}
</style>
<linearGradient id="SVGID_1_" gradientUnits="userSpaceOnUse" x1="179.1098" y1="170.1692" x2="334.998" y2="170.1692">
	<stop  offset="0.2079" style="stop-color:#A97821"/>
	<stop  offset="0.5553" style="stop-color:#DCAB46"/>
	<stop  offset="0.856" style="stop-color:#AA7822"/>
</linearGradient>
<path class="st0" d="M328.4,91.7h-29.3c-3.7,0-6.6,3-6.6,6.6v45.3h-70.8V98.3c0-3.7-3-6.6-6.6-6.6h-29.3c-3.7,0-6.6,3-6.6,6.6v143.8
	c0,3.7,3,6.6,6.6,6.6H215c3.7,0,6.6-3,6.6-6.6v-45.3h70.8v45.3c0,3.7,3,6.6,6.6,6.6h29.3c3.7,0,6.6-3,6.6-6.6V98.3
	C335,94.6,332,91.7,328.4,91.7L328.4,91.7z M321.8,235.4h-16.1v-45.3c0-3.7-3-6.6-6.6-6.6h-84c-3.7,0-6.6,3-6.6,6.6v45.3h-16.1
	V104.9h16.1v45.3c0,3.7,3,6.6,6.6,6.6h84c3.7,0,6.6-3,6.6-6.6v-45.3h16.1L321.8,235.4z"/>
<linearGradient id="SVGID_2_" gradientUnits="userSpaceOnUse" x1="179.1098" y1="288.5562" x2="221.6581" y2="288.5562">
	<stop  offset="0.2079" style="stop-color:#A97821"/>
	<stop  offset="0.5553" style="stop-color:#DCAB46"/>
	<stop  offset="0.856" style="stop-color:#AA7822"/>
</linearGradient>
<path class="st1" d="M215,262h-29.3c-3.7,0-6.6,3-6.6,6.6v40c0,3.7,3,6.6,6.6,6.6H215c3.7,0,6.6-3,6.6-6.6v-40
	C221.7,264.9,218.7,262,215,262z M208.4,301.9h-16.1v-26.7h16.1V301.9z"/>
<linearGradient id="SVGID_3_" gradientUnits="userSpaceOnUse" x1="233.8863" y1="288.5562" x2="276.4345" y2="288.5562">
	<stop  offset="0.2079" style="stop-color:#A97821"/>
	<stop  offset="0.5553" style="stop-color:#DCAB46"/>
	<stop  offset="0.856" style="stop-color:#AA7822"/>
</linearGradient>
<path class="st2" d="M269.8,262h-29.3c-3.7,0-6.6,3-6.6,6.6v40c0,3.7,3,6.6,6.6,6.6h29.3c3.7,0,6.6-3,6.6-6.6v-40
	C276.4,264.9,273.5,262,269.8,262z M263.2,301.9h-16.1v-26.7h16.1V301.9z"/>
<linearGradient id="SVGID_4_" gradientUnits="userSpaceOnUse" x1="292.4519" y1="288.5562" x2="335.0002" y2="288.5562">
	<stop  offset="0.2079" style="stop-color:#A97821"/>
	<stop  offset="0.5553" style="stop-color:#DCAB46"/>
	<stop  offset="0.856" style="stop-color:#AA7822"/>
</linearGradient>
<path class="st3" d="M328.4,262h-29.3c-3.7,0-6.6,3-6.6,6.6v40c0,3.7,3,6.6,6.6,6.6h29.3c3.7,0,6.6-3,6.6-6.6v-40
	C335,264.9,332,262,328.4,262z M321.8,301.9h-16.1v-26.7h16.1V301.9z"/>
<linearGradient id="SVGID_5_" gradientUnits="userSpaceOnUse" x1="89.1803" y1="179.7227" x2="131.7308" y2="179.7227">
	<stop  offset="0.2079" style="stop-color:#A97821"/>
	<stop  offset="0.5553" style="stop-color:#DCAB46"/>
	<stop  offset="0.856" style="stop-color:#AA7822"/>
</linearGradient>
<path class="st4" d="M125.1,153.1H95.8c-3.7,0-6.6,3-6.6,6.6v40c0,3.7,3,6.6,6.6,6.6h29.3c3.7,0,6.6-3,6.6-6.6v-40
	C131.7,156.1,128.8,153.1,125.1,153.1z M118.5,193.1h-16.1v-26.7h16.1V193.1z"/>
<linearGradient id="SVGID_6_" gradientUnits="userSpaceOnUse" x1="89.1803" y1="238.9172" x2="131.7308" y2="238.9172">
	<stop  offset="0.2079" style="stop-color:#A97821"/>
	<stop  offset="0.5553" style="stop-color:#DCAB46"/>
	<stop  offset="0.856" style="stop-color:#AA7822"/>
</linearGradient>
<path class="st5" d="M125.1,212.3H95.8c-3.7,0-6.6,3-6.6,6.6l0,0v40c0,3.7,3,6.6,6.6,6.6h29.3c3.7,0,6.6-3,6.6-6.6v-40
	C131.7,215.3,128.8,212.3,125.1,212.3L125.1,212.3z M118.5,252.3h-16.1v-26.7h16.1V252.3z"/>
<linearGradient id="SVGID_7_" gradientUnits="userSpaceOnUse" x1="89.1803" y1="298.114" x2="131.7308" y2="298.114">
	<stop  offset="0.2079" style="stop-color:#A97821"/>
	<stop  offset="0.5553" style="stop-color:#DCAB46"/>
	<stop  offset="0.856" style="stop-color:#AA7822"/>
</linearGradient>
<path class="st6" d="M125.1,271.5H95.8c-3.7,0-6.6,3-6.6,6.6v40c0,3.7,3,6.6,6.6,6.6h29.3c3.7,0,6.6-3,6.6-6.6v-40
	C131.7,274.5,128.8,271.5,125.1,271.5z M118.5,311.5h-16.1v-26.7h16.1V311.5z"/>
<linearGradient id="SVGID_8_" gradientUnits="userSpaceOnUse" x1="382.3881" y1="179.7227" x2="424.9363" y2="179.7227">
	<stop  offset="0.2079" style="stop-color:#A97821"/>
	<stop  offset="0.5553" style="stop-color:#DCAB46"/>
	<stop  offset="0.856" style="stop-color:#AA7822"/>
</linearGradient>
<path class="st7" d="M418.3,153.1H389c-3.7,0-6.6,3-6.6,6.6v40c0,3.7,3,6.6,6.6,6.6h29.3c3.7,0,6.6-3,6.6-6.6v-40
	C424.9,156.1,422,153.1,418.3,153.1z M411.7,193.1h-16.1v-26.7h16.1V193.1z"/>
<linearGradient id="SVGID_9_" gradientUnits="userSpaceOnUse" x1="382.3881" y1="238.9172" x2="424.9363" y2="238.9172">
	<stop  offset="0.2079" style="stop-color:#A97821"/>
	<stop  offset="0.5553" style="stop-color:#DCAB46"/>
	<stop  offset="0.856" style="stop-color:#AA7822"/>
</linearGradient>
<path class="st8" d="M418.3,212.3H389c-3.7,0-6.6,3-6.6,6.6l0,0v40c0,3.7,3,6.6,6.6,6.6h29.3c3.7,0,6.6-3,6.6-6.6v-40
	C424.9,215.3,422,212.3,418.3,212.3L418.3,212.3z M411.7,252.3h-16.1v-26.7h16.1V252.3z"/>
<linearGradient id="SVGID_10_" gradientUnits="userSpaceOnUse" x1="382.3881" y1="298.114" x2="424.9363" y2="298.114">
	<stop  offset="0.2079" style="stop-color:#A97821"/>
	<stop  offset="0.5553" style="stop-color:#DCAB46"/>
	<stop  offset="0.856" style="stop-color:#AA7822"/>
</linearGradient>
<path class="st9" d="M418.3,271.5H389c-3.7,0-6.6,3-6.6,6.6v40c0,3.7,3,6.6,6.6,6.6h29.3c3.7,0,6.6-3,6.6-6.6v-40
	C424.9,274.5,422,271.5,418.3,271.5z M411.7,311.5h-16.1v-26.7h16.1V311.5z"/>
<linearGradient id="SVGID_11_" gradientUnits="userSpaceOnUse" x1="12.055" y1="259.622" x2="502.055" y2="259.622">
	<stop  offset="0.2079" style="stop-color:#A97821"/>
	<stop  offset="0.5553" style="stop-color:#DCAB46"/>
	<stop  offset="0.856" style="stop-color:#AA7822"/>
</linearGradient>
<path class="st10" d="M462.3,328.7h-9.2V154.8c0-17.1-13.8-30.9-30.9-30.9h-57V79.5c0-17.1-13.8-30.9-30.9-30.9H179.8
	c-17.1,0-30.9,13.8-30.9,30.9v44.3h-57c-17.1,0-30.9,13.8-30.9,30.9v173.9h-9.2c-21.9,0-39.7,17.8-39.7,39.7v62.5
	c0,21.9,17.8,39.7,39.7,39.7h410.6c21.9,0,39.7-17.8,39.7-39.7v-62.5C502,346.5,484.3,328.7,462.3,328.7z M365.2,137.1h57
	c9.7,0,17.6,7.9,17.7,17.7v173.9h-74.7V137.1z M162.1,79.5c0-9.7,7.9-17.6,17.7-17.7h154.5c9.7,0,17.6,7.9,17.7,17.7v249.1H162.1
	V79.5z M74.2,154.8c0-9.7,7.9-17.6,17.7-17.7h57v191.6H74.2V154.8z M488.8,430.9c0,14.6-11.9,26.5-26.5,26.5H51.8
	c-14.6,0-26.5-11.9-26.5-26.5v-62.5c0-14.6,11.9-26.5,26.5-26.5h410.6c14.6,0,26.5,11.9,26.5,26.5V430.9z"/>
<linearGradient id="SVGID_12_" gradientUnits="userSpaceOnUse" x1="69.3023" y1="399.6371" x2="150.745" y2="399.6371">
	<stop  offset="0.2079" style="stop-color:#A97821"/>
	<stop  offset="0.5553" style="stop-color:#DCAB46"/>
	<stop  offset="0.856" style="stop-color:#AA7822"/>
</linearGradient>
<path class="st11" d="M145.1,385.4l-20.1-2.9l-9-18.2c-1.6-3.3-5.6-4.6-8.9-3c-1.3,0.6-2.4,1.7-3,3l-9,18.2L75,385.4
	c-3.6,0.5-6.1,3.9-5.6,7.5c0.2,1.4,0.9,2.8,1.9,3.8l14.6,14.2l-3.4,20c-0.6,3.6,1.8,7,5.4,7.6c1.4,0.2,2.9,0,4.2-0.7l18-9.5l18,9.5
	c3.2,1.7,7.2,0.5,8.9-2.8c0.7-1.3,0.9-2.8,0.7-4.2l-3.4-20l14.6-14.2c2.6-2.6,2.7-6.7,0.1-9.4C147.8,386.3,146.5,385.6,145.1,385.4
	L145.1,385.4z M122.4,403.9c-1.6,1.5-2.3,3.7-1.9,5.9l1.8,10.2l-9.2-4.8c-1.9-1-4.2-1-6.2,0l-9.2,4.8l1.8-10.2
	c0.4-2.1-0.3-4.3-1.9-5.9l-7.5-7.3l10.3-1.5c2.2-0.3,4-1.7,5-3.6l4.6-9.3l4.6,9.3c1,2,2.8,3.3,5,3.6l10.3,1.5L122.4,403.9z"/>
<linearGradient id="SVGID_13_" gradientUnits="userSpaceOnUse" x1="166.5079" y1="399.636" x2="247.9638" y2="399.636">
	<stop  offset="0.2079" style="stop-color:#A97821"/>
	<stop  offset="0.5553" style="stop-color:#DCAB46"/>
	<stop  offset="0.856" style="stop-color:#AA7822"/>
</linearGradient>
<path class="st12" d="M242.3,385.4l-20.1-2.9l-9-18.2c-1.6-3.3-5.6-4.6-8.9-3c-1.3,0.6-2.4,1.7-3,3l-9,18.2l-20.1,2.9
	c-3.6,0.5-6.1,3.9-5.6,7.5c0.2,1.4,0.9,2.8,1.9,3.8l14.6,14.2l-3.4,20c-0.6,3.6,1.8,7,5.4,7.6c1.4,0.2,2.9,0,4.2-0.7l18-9.5l18,9.5
	c3.2,1.7,7.2,0.5,8.9-2.8c0.7-1.3,0.9-2.8,0.7-4.2l-3.4-20l14.6-14.2c2.6-2.6,2.7-6.7,0.1-9.4C245.1,386.3,243.7,385.6,242.3,385.4
	L242.3,385.4z M219.7,403.9c-1.6,1.5-2.3,3.7-1.9,5.9l1.8,10.2l-9.2-4.8c-1.9-1-4.2-1-6.2,0L195,420l1.8-10.2
	c0.4-2.1-0.3-4.3-1.9-5.9l-7.4-7.3l10.3-1.5c2.2-0.3,4-1.7,5-3.6l4.6-9.3l4.6,9.3c1,2,2.8,3.3,5,3.6l10.3,1.5L219.7,403.9z"/>
<linearGradient id="SVGID_14_" gradientUnits="userSpaceOnUse" x1="263.7156" y1="399.6376" x2="345.1694" y2="399.6376">
	<stop  offset="0.2079" style="stop-color:#A97821"/>
	<stop  offset="0.5553" style="stop-color:#DCAB46"/>
	<stop  offset="0.856" style="stop-color:#AA7822"/>
</linearGradient>
<path class="st13" d="M339.5,385.4l-20.1-2.9l-9-18.2c-1.6-3.3-5.6-4.6-8.9-3c-1.3,0.6-2.4,1.7-3,3l-9,18.2l-20.1,2.9
	c-3.6,0.5-6.1,3.9-5.6,7.5c0.2,1.4,0.9,2.8,1.9,3.8l14.6,14.2l-3.4,20c-0.6,3.6,1.8,7,5.4,7.6c1.4,0.2,2.9,0,4.2-0.7l18-9.5l18,9.5
	c3.2,1.7,7.2,0.5,8.9-2.8c0.7-1.3,0.9-2.8,0.7-4.2l-3.4-20l14.6-14.2c2.6-2.6,2.7-6.7,0.1-9.4C342.3,386.3,340.9,385.6,339.5,385.4
	L339.5,385.4z M316.9,403.9c-1.6,1.5-2.3,3.7-1.9,5.9l1.8,10.2l-9.2-4.8c-1.9-1-4.2-1-6.2,0l-9.2,4.8l1.8-10.2
	c0.4-2.1-0.3-4.3-1.9-5.9l-7.4-7.3l10.3-1.5c2.2-0.3,4-1.7,5-3.6l4.6-9.3l4.6,9.3c1,2,2.8,3.3,5,3.6l10.3,1.5L316.9,403.9z"/>
<linearGradient id="SVGID_15_" gradientUnits="userSpaceOnUse" x1="360.9233" y1="399.6365" x2="442.3793" y2="399.6365">
	<stop  offset="0.2079" style="stop-color:#A97821"/>
	<stop  offset="0.5553" style="stop-color:#DCAB46"/>
	<stop  offset="0.856" style="stop-color:#AA7822"/>
</linearGradient>
<path class="st14" d="M436.7,385.4l-20.1-2.9l-9-18.2c-1.6-3.3-5.6-4.6-8.9-3c-1.3,0.6-2.4,1.7-3,3l-9,18.2l-20.1,2.9
	c-3.6,0.5-6.1,3.9-5.6,7.5c0.2,1.4,0.9,2.8,1.9,3.8l14.6,14.2l-3.4,20c-0.6,3.6,1.8,7,5.4,7.6c1.4,0.2,2.9,0,4.2-0.7l18-9.5l18,9.5
	c3.2,1.7,7.2,0.5,8.9-2.8c0.7-1.3,0.9-2.8,0.7-4.2l-3.4-20l14.6-14.2c2.6-2.6,2.7-6.7,0.1-9.4C439.5,386.3,438.2,385.6,436.7,385.4
	L436.7,385.4z M414.1,403.9c-1.6,1.5-2.3,3.7-1.9,5.9l1.8,10.2l-9.2-4.8c-1.9-1-4.2-1-6.2,0l-9.2,4.8l1.8-10.2
	c0.4-2.1-0.3-4.3-1.9-5.9l-7.4-7.3l10.3-1.5c2.2-0.3,4-1.7,5-3.6l4.6-9.3l4.6,9.3c1,2,2.8,3.3,5,3.6l10.3,1.5L414.1,403.9z"/>
</svg>
