<?xml version="1.0" encoding="utf-8"?>
<!-- Generator: Adobe Illustrator 23.1.0, SVG Export Plug-In . SVG Version: 6.00 Build 0)  -->
<svg version="1.1" id="ed47b3c7-b296-4f80-bcab-ec60c0a74aec"
	 xmlns="http://www.w3.org/2000/svg" xmlns:xlink="http://www.w3.org/1999/xlink" x="0px" y="0px" viewBox="0 0 512 512"
	 style="enable-background:new 0 0 512 512;" xml:space="preserve">
<style type="text/css">
	.st0{fill:url(#SVGID_1_);}
	.st1{fill:url(#SVGID_2_);}
</style>
<g>
	<linearGradient id="SVGID_1_" gradientUnits="userSpaceOnUse" x1="11" y1="256" x2="501" y2="256">
		<stop  offset="0.2079" style="stop-color:#A97821"/>
		<stop  offset="0.5553" style="stop-color:#DCAB46"/>
		<stop  offset="0.856" style="stop-color:#AA7822"/>
	</linearGradient>
	<path class="st0" d="M501,297.2c0,0,0-79.6,0-79.7c0.1-15.7-11.5-29.6-34-41.8c4.5-23.6,14.4-71.1,18.9-94.6
		c0.9-4.7-2.1-9.3-6.9-10.3c0,0,0,0,0,0l-75.5-15.1c-4.8-0.9-9.4,2.3-10.3,7.1c-0.3,1.8-0.1,3.7,0.7,5.4L404,88.4L387,103.2
		c-3.6,3.2-4,8.8-0.7,12.4c1.2,1.4,2.9,2.4,4.7,2.8l66.9,13.4l-7.2,36.3c-87.8-37.5-278.3-39.3-375-5.3l-6.2-31l67-13.4
		c4.8-1,7.8-5.7,6.8-10.5c-0.4-1.8-1.4-3.5-2.8-4.7l-17.1-14.7l10.1-20.2c2.1-4.4,0.3-9.6-4.1-11.8c-1.7-0.8-3.6-1.1-5.4-0.7
		L48.4,70.9c-4.7,0.9-7.8,5.5-6.9,10.3c0,0,0,0,0,0c4.5,22,13.1,65.9,17.6,87.9c-29.5,12.5-48.1,28.7-48,48.5c0,0.3,0,79.6,0,79.9
		c0,0.1,0,79.7,0,79.7c-1.5,11.2,12.5,36,48.5,47.8c4.8-0.1,8.7-4.1,8.7-8.9c0-3.4-2-6.4-5.1-7.8c-21.9-9.7-34.5-21-34.5-31v-49
		c28.8,23.4,88.7,37.6,145.6,43.8c-12.4,17.5-18.8,38.6-18.3,60c-19.9-2.7-39.6-6.7-59-12c-4.7-1.2-9.5,1.5-10.7,6.2
		c-1.2,4.6,1.4,9.3,6,10.6c53.5,13.6,108.6,20.1,163.8,19.4c78.5,2.5,247.6-21,244.9-79.1C500.9,376.9,500.9,297.5,501,297.2
		L501,297.2z M411.9,104.7l8.7-7.5c7-5.8-0.4-14.8-3-20.8l49.4,9.9l-5.7,28.3L411.9,104.7z M109.9,76.4l-5.1,10.3
		c-4.2,8.1,6.1,13.4,10.8,18l-49.4,9.9l-5.7-28.3L109.9,76.4z M28.6,297.3v-49c38.7,31.5,135.3,48.2,227.4,48.2
		c38.9,0.1,77.8-2.9,116.3-9c4.8-0.8,8-5.3,7.2-10.1c-0.8-4.8-5.3-8-10.1-7.2c-37.5,6-75.4,8.9-113.4,8.8
		c-148,0.9-305.7-48.7-183.6-96.7c81.7-35.3,301.4-35.6,381,6.1c57.2,27.4,27.7,54.7-49.5,74.9c-4.7,1.1-7.6,5.9-6.4,10.6
		c1.1,4.7,5.9,7.6,10.6,6.4c34.5-8.4,60-19.4,75.5-32.1v49.2c-0.1,21.6-56.1,49.2-159.8,58.4c-38.3-34.9-96.9-34.9-135.2,0
		C84.8,346.5,28.8,319,28.6,297.3L28.6,297.3z M338.7,434.2c-54.9,6-110.4,6-165.3,0C172.6,318.7,339.6,318,338.7,434.2z M356.2,432
		c0.6-21.5-5.8-42.5-18.2-60.1c56.9-6.2,116.7-20.4,145.5-43.8l0,49C483.4,395.8,439.7,420.1,356.2,432L356.2,432z"/>
	<linearGradient id="SVGID_2_" gradientUnits="userSpaceOnUse" x1="68.2472" y1="216.7171" x2="443.7528" y2="216.7171">
		<stop  offset="0.2079" style="stop-color:#A97821"/>
		<stop  offset="0.5553" style="stop-color:#DCAB46"/>
		<stop  offset="0.856" style="stop-color:#AA7822"/>
	</linearGradient>
	<path class="st1" d="M443.8,216.9c0.3-65.8-374-67-375.4,0c-2.7,29.5,79.9,43.6,120.7,46.6c4.8,0.4,9.1-3.1,9.5-7.9
		c0.4-4.8-3.1-9.1-7.9-9.5c0,0,0,0,0,0c-12.4-1.1-24-2.5-34.7-4.3c16-11.1,48.7-17.9,100.2-18.5c33.9,0.7,75.3,2.7,100.2,18.4
		c-43.4,6.3-87.3,8.5-131.1,6.6c-4.8-0.2-8.9,3.6-9.1,8.4c-0.2,4.8,3.5,8.8,8.3,9.1c9.7,0.4,20,0.6,31.6,0.6
		C305.2,266,440.3,260.7,443.8,216.9z M137.2,238.3c-41.9-8.6-51.4-19.1-51.4-21.5c0-1,2.3-4.8,12-9.5l41.7,26.5
		C138.6,235.2,137.8,236.8,137.2,238.3L137.2,238.3z M154.2,222.5l-35.7-22.7c18.3-5,37-8.5,55.9-10.5l12.4,22.8
		C175.6,214.2,164.6,217.7,154.2,222.5L154.2,222.5z M251.6,205.8c-15.6,0.1-31.1,1.2-46.6,3.2l-11.8-21.6c18.4-1.6,38-2.5,58.3-2.6
		V205.8z M312.8,209.9c-14.5-2.2-29.1-3.5-43.7-3.9v-21.1c20.2,0.4,39.7,1.5,57.8,3.3L312.8,209.9z M358.5,222.5
		c-8.6-4.1-17.7-7.1-27-9.1l14.9-22.9c17.3,2.1,34.4,5.7,51.2,10.5L358.5,222.5z M375,238.3c-0.5-1.3-1.1-2.6-1.9-3.8l45.2-24.9
		c6.4,3.7,7.9,6.4,7.9,7.3C426.3,219.2,416.8,229.6,375,238.3L375,238.3z"/>
</g>
</svg>
