<?xml version="1.0" encoding="utf-8"?>
<!-- Generator: Adobe Illustrator 23.1.0, SVG Export Plug-In . SVG Version: 6.00 Build 0)  -->
<svg version="1.1" id="Layer_1" xmlns="http://www.w3.org/2000/svg" xmlns:xlink="http://www.w3.org/1999/xlink" x="0px" y="0px"
	 viewBox="0 0 1000 1000" style="enable-background:new 0 0 1000 1000;" xml:space="preserve">
<style type="text/css">
	.st0{fill:#E32A22;}
	.st1{fill:#00A5E3;}
	.st2{fill:#00A652;}
	.st3{fill:url(#SVGID_1_);}
	.st4{fill:#ED1E36;}
</style>
<g>
	<polygon class="st0" points="231.9,278.4 179.9,356.4 179.9,382.4 205.9,382.4 205.9,467.4 231.9,467.4 	"/>
	<polygon class="st1" points="242.9,344.4 271.9,367.4 271.9,467.4 242.9,467.4 	"/>
	<rect x="164.9" y="388.4" class="st2" width="30" height="79"/>
	<linearGradient id="SVGID_1_" gradientUnits="userSpaceOnUse" x1="226.1049" y1="479.0282" x2="211.08" y2="596.2225">
		<stop  offset="0" style="stop-color:#FDC333"/>
		<stop  offset="0.495" style="stop-color:#FCD62F"/>
		<stop  offset="1" style="stop-color:#EFBA43"/>
	</linearGradient>
	<rect x="164.9" y="474.4" class="st3" width="107" height="130"/>
	<g>
		<path class="st4" d="M340.4,558.2v-78.1h26.8v82.4c0,7.2-1.5,13.6-4.6,19.3c-3,5.7-7.5,10.2-13.5,13.6c-5.9,3.4-12.9,5.1-20.9,5.1
			c-3.9,0-7.6-0.4-11.1-1.3c-3.5-0.8-6.9-2.1-10.1-3.9c-3.2-1.8-6.2-4.1-8.9-7c-2.7-2.9-5.1-6.4-7.2-10.3l17.8-13.2
			c2,3.5,4.3,6.1,7,7.9c2.6,1.7,5.8,2.6,9.5,2.6c4.8,0,8.5-1.5,11.2-4.4S340.4,563.8,340.4,558.2z"/>
		<path class="st4" d="M491.9,598.8H462l-8.2-25.9h-40.1l-8,25.9h-28.4l41.4-118.7H450L491.9,598.8z M433.6,508.6l-13.1,41.6h26.3
			L433.6,508.6z"/>
		<path class="st4" d="M585.9,566.1l12,18.9c-5.3,4.8-12,8.6-20,11.4c-8,2.8-16.1,4.1-24.2,4.1c-6.8,0-13.2-1-19.4-2.9
			c-6.2-2-11.7-4.8-16.5-8.5c-7.4-5.5-13.2-12.5-17.4-21.1c-4.2-8.6-6.3-18-6.3-28.1c0-8.6,1.5-16.7,4.6-24.3
			c3.1-7.6,7.4-14.2,12.6-19.6c5.3-5.4,11.7-9.7,19.1-12.9c7.4-3.2,15.3-4.8,23.8-4.8c8,0,15.8,1.4,23.6,4.1
			c7.7,2.8,14.4,6.6,20,11.6l-11.9,18.3c-9.1-6.7-18.7-10-28.6-10c-5.2,0-10,1-14.5,2.9c-4.5,1.9-8.3,4.6-11.3,8
			c-3,3.3-5.4,7.3-7,11.7s-2.5,9.2-2.5,14.2c0,8.1,2,15.3,6.1,21.5c3,4.7,7,8.4,12,11.1c5,2.7,10.7,4.1,17,4.1
			C567.3,576,576.9,572.7,585.9,566.1z"/>
		<path class="st4" d="M665,600.5c-7,0-13.6-1-19.9-2.9s-12-4.7-17-8.4c-5-3.6-9.4-7.9-13.2-12.9c-3.8-5-6.6-10.7-8.6-17
			c-2-6.3-3-13-3-19.9c0-8.8,1.6-17,4.8-24.6c3.2-7.6,7.6-14.1,13.1-19.4c5.5-5.3,12-9.4,19.7-12.4c7.7-3,15.8-4.6,24.3-4.6
			c8.6,0,16.7,1.5,24.3,4.6c7.6,3,14.2,7.2,19.7,12.5c5.5,5.3,9.8,11.7,13,19.3c3.2,7.6,4.8,15.8,4.8,24.5c0,7-1,13.6-3,19.9
			c-2,6.3-4.9,12-8.7,17c-3.8,5.1-8.2,9.4-13.2,13c-5.1,3.7-10.7,6.5-17,8.4S672,600.5,665,600.5z M665,576.5
			c6.4,0.1,12.2-1.4,17.3-4.6c5.2-3.2,9.2-7.6,12.1-13.3c2.9-5.7,4.3-12.1,4.2-19.2c0-7.2-1.5-13.7-4.4-19.3
			c-2.9-5.6-6.9-10-12-13.1c-5.1-3.1-10.9-4.6-17.4-4.6c-6.5,0-12.3,1.5-17.4,4.6c-5.1,3.1-9.1,7.4-12,13.1
			c-2.9,5.6-4.4,12-4.4,19.3c0,10.9,3.2,19.8,9.5,26.7C647.1,573,655.2,576.5,665,576.5z"/>
		<path class="st4" d="M745,598.8V480.1h41.8c12.8,0,22.5,2.6,29.3,7.9c6.8,5.3,10.1,12.8,10.1,22.5c0,11.4-4.9,19.8-14.6,25.2
			c6.3,1.8,11.4,5.3,15.5,10.3c4.1,5.1,6.1,11.2,6.1,18.3c0,4.8-1,9.3-2.9,13.5c-1.9,4.2-4.6,7.9-8.1,11c-3.4,3-7.6,5.4-12.7,7.2
			c-5,1.8-10.4,2.7-16.3,2.7H745z M784.5,503.7h-12.7v23.1h13.6c3.9,0,7.2-1,9.7-3.1c2.6-2.1,3.9-5.1,3.9-8.9c0-3.7-1.3-6.5-3.8-8.4
			C792.6,504.6,789.1,503.7,784.5,503.7z M788.6,548.8h-16.8v26.4h18c4.6,0,8.4-1.1,11.3-3.3c2.9-2.3,4.4-5.5,4.4-9.8
			c0-4.3-1.5-7.6-4.6-9.9S793.8,548.8,788.6,548.8z"/>
		<path class="st4" d="M842.6,583.1l12-18.8c11.2,7.7,22.1,11.6,32.7,11.6c5.3,0,9.4-0.9,12.4-2.8c3.1-1.9,4.6-4.7,4.6-8.3
			c0-4.1-2.3-7.3-7-9.7c-2.7-1.4-7.6-2.9-14.6-4.7l-0.1-0.1h-0.1h-0.1h-0.1l-0.1-0.1h-0.1h-0.1h-0.1l-0.1-0.1h-0.1h-0.1h-0.1
			l-0.1-0.1h-0.1H882c-0.9-0.2-1.5-0.4-1.9-0.5c-8.5-2.2-14.8-4.4-18.9-6.8c-3-1.7-5.5-3.7-7.7-5.9c-2.3-2.3-4.1-5.3-5.4-8.9
			c-1.3-3.6-1.9-7.7-1.9-12.2c0-6,1.1-11.4,3.3-16.2c2.2-4.8,5.3-8.8,9.3-11.9c8-6.2,18-9.3,30-9.3c7.6,0,15.1,1.3,22.5,3.9
			c7.4,2.6,13.9,6.2,19.5,10.7l-11.7,18.3c-4.6-2.9-9.4-5.2-14.4-6.7c-4.9-1.5-9.7-2.3-14.2-2.3c-5.1,0-9.3,1-12.4,3
			c-3.1,2-4.6,4.8-4.6,8.4c0,4.1,2.3,7.2,6.8,9.5c2.7,1.3,7.4,2.8,14.2,4.4c7.8,1.8,13.5,3.4,16.9,4.8c8.6,3.3,14.6,8.2,17.9,14.6
			c2.2,4.4,3.3,9.6,3.3,15.7c0,5-0.7,9.5-2.2,13.7c-1.5,4.1-3.5,7.7-6.1,10.6c-2.6,2.9-5.8,5.4-9.4,7.5c-3.6,2-7.6,3.6-12,4.5
			c-4.3,1-9,1.5-13.9,1.5C871.8,600.5,856.4,594.7,842.6,583.1z"/>
	</g>
	<path d="M241.3,607.4h-10.1c1.1,7.6,0.7,15.1-1.1,22.4c-2.3,9.3-6.5,15.8-9.8,20.9c-3.6,5.5-9.5,14.8-19.6,22.1
		c-14.9,10.9-31.7,15.6-43.2,15.1l-89.8,0v10h89.5c1.2,0.1,2.5,0.1,3.8,0.1c12.8,0,30.1-5.7,45.6-17.1c11.6-8.5,18.4-19.1,22.1-24.8
		c3.5-5.5,8.4-13,11.1-23.9C241.8,624.1,242.3,615.8,241.3,607.4z"/>
	<path d="M179.6,607.4h-10c0.2,3.3,0,15.3-9,23.7c-0.3,0.3-0.7,0.6-1,0.9c-4.7,4-10.7,6-16.9,6.1l-75,1.1l0.1,10l79.8-1.2l0.4,0
		l0.4-0.1c5-1,12.4-3.4,18.9-9.5C179,627.6,179.8,613.1,179.6,607.4z"/>
	<path d="M211.2,607.4H201c1.5,7.5,1.2,15.2-1.1,22.1c-3.4,10.3-10,16.5-15.9,21.9c-0.2,0.2-0.5,0.4-0.7,0.7
		c-10.5,9.5-24.3,14.8-38.9,14.8c-10.1,0-20.3,0-30.5-0.1c-15.3-0.2-30.8-0.5-46.1-1l-0.2,7.2v2.8c15.3,0.5,30.9,0.9,46.2,1
		c7.7,0.1,15.5,0.1,23.3,0.1c2.5,0,4.9,0,7.4,0c17-0.1,33.2-6.2,45.5-17.4c0.3-0.3,0.6-0.5,0.8-0.8c6.4-5.9,14.4-13.3,18.6-26.1
		C212,624.6,212.6,616,211.2,607.4z"/>
	<path d="M270.3,607.4h-10c0.1,3.6,0.1,7.2-0.1,10.8c-0.2,3.6-0.7,13.3-4,23.9c-3.8,12.6-9.7,21-14.4,27.8
		c-6.1,8.7-12.3,17.7-23.7,25.3c-8.6,5.7-16.6,8.4-24.3,10.9c-0.1,0-0.2,0.1-0.2,0.1c-11.4,3.7-23.4,5.4-35.4,5.4H67.7v10h102
		c0.3,0,0.5,0,0.8,0h0c9-1.2,17.9-2.2,26.6-5c8-2.6,17-6.6,26.6-13c12.9-8.6,20.1-18.9,26.4-27.9c4.9-7,11.5-16.5,15.8-30.6
		c3.6-11.8,4.2-22.3,4.4-26.2C270.4,615,270.4,611.2,270.3,607.4z"/>
</g>
</svg>
