<?xml version="1.0" encoding="utf-8"?>
<!-- Generator: Adobe Illustrator 23.1.0, SVG Export Plug-In . SVG Version: 6.00 Build 0)  -->
<svg version="1.1" id="Layer_1" xmlns="http://www.w3.org/2000/svg" xmlns:xlink="http://www.w3.org/1999/xlink" x="0px" y="0px"
	 viewBox="0 0 528 304" style="enable-background:new 0 0 528 304;" xml:space="preserve">
<style type="text/css">
	.st0{fill:#164873;}
</style>
<g id="quote_1_1_">
	<path class="st0" d="M444.4,274.6c-1.6,0-3-1.4-3-3c0-0.3,0.1-0.7,0.1-0.7c2-10.6,3-21,3-31.7c0-10-0.9-20.2-2.7-30.1l-0.8-4.7
		l-2.8-15H423H318.1c-3.2,0-5.7-2.6-5.7-5.7l0-148.8c0-3.1,2.6-5.7,5.7-5.7h178c3.1,0,5.7,2.6,5.7,5.7l0,123
		c-0.1,12.3-4.7,34.8-25.6,72.1c-11.6,20.7-25.1,39.6-28.1,42.6c-2.1,1.7-2.8,2.1-2.9,2.1C445.1,274.5,444.9,274.6,444.4,274.6
		L444.4,274.6z M444.4,292.8c6.3,0,10.2-2.2,15.1-6.2c4.7-3.8,20.2-26,32.5-47.8c18.3-32.6,27.7-59.8,27.9-80.9l0-123.1
		c0-13.2-10.7-24-23.9-24h-178c-13.2,0-23.9,10.8-23.9,24l0,148.8c0,13.2,10.7,24,23.9,24H423l0.8,4.7c1.6,8.8,2.4,17.9,2.4,26.8
		c0,9.6-0.9,18.8-2.7,28.3c-0.3,2-0.4,3.1-0.4,4.2C423.2,283.3,432.7,292.8,444.4,292.8L444.4,292.8z"/>
	<path class="st0" d="M158.3,275c-1.6,0-3-1.4-3-3c0-0.3,0.1-0.7,0.1-0.8c2-10.6,3-20.9,3-31.7c0-10.1-0.9-20.2-2.7-30.1l-0.8-4.7
		l-2.7-15h-15.2H32c-3.1,0-5.7-2.6-5.7-5.7V35.1c0-3.1,2.5-5.7,5.7-5.7h178c3.1,0,5.7,2.6,5.7,5.7l-0.1,123
		c-0.1,12.3-4.6,34.8-25.6,72.1c-11.6,20.7-25.1,39.6-28.1,42.6c-2.1,1.7-2.8,2-2.9,2.1C159,274.9,158.8,275,158.3,275L158.3,275z
		 M158.3,293.2c6.3,0,10.2-2.2,15.1-6.2c4.7-3.8,20.2-26,32.5-47.8c18.3-32.7,27.7-59.9,27.9-80.9l0.1-123.2
		c0-13.2-10.8-23.9-23.9-23.9h-178C18.7,11.2,8,22,8,35.1L8,184c0,13.2,10.7,24,23.9,24h104.9l0.9,4.7c1.6,8.8,2.4,17.9,2.4,26.8
		c0,9.6-0.9,18.9-2.7,28.3c-0.3,2-0.4,3.1-0.4,4.2C137,283.6,146.6,293.2,158.3,293.2z"/>
</g>
</svg>
