<?xml version="1.0" encoding="utf-8"?>
<!-- Generator: Adobe Illustrator 23.1.0, SVG Export Plug-In . SVG Version: 6.00 Build 0)  -->
<svg version="1.1" id="Isolation_Mode" xmlns="http://www.w3.org/2000/svg" xmlns:xlink="http://www.w3.org/1999/xlink" x="0px"
	 y="0px" viewBox="0 0 3421 1316" style="enable-background:new 0 0 3421 1316;" xml:space="preserve">
<style type="text/css">
	.st0{fill:#101012;}
</style>
<g>
	<g>
		<g>
			<g>
				<polygon class="st0" points="143.5,1068.3 143.5,1045.7 143.5,1023.2 143.5,1000.6 143.5,978 143.5,955.4 143.5,932.8 
					143.5,910.2 143.5,887.6 143.5,865 143.5,842.4 143.5,819.9 143.5,797.3 143.5,774.7 143.5,752.1 143.5,729.5 143.5,706.9 
					136.1,706.9 128.7,706.9 121.2,706.9 113.8,706.9 106.4,706.9 98.9,706.9 91.5,706.9 84.1,706.9 76.7,706.9 69.2,706.9 
					61.8,706.9 54.4,706.9 46.9,706.9 39.5,706.9 32.1,706.9 24.6,706.9 24.6,729.5 24.6,752.1 24.6,774.7 24.6,797.3 24.6,819.9 
					24.6,842.4 24.6,865 24.6,887.6 24.6,910.2 24.6,932.8 24.6,955.4 24.6,978 24.6,1000.6 24.6,1023.2 24.6,1045.7 24.6,1068.3 
					32.1,1068.3 39.5,1068.3 46.9,1068.3 54.4,1068.3 61.8,1068.3 69.2,1068.3 76.7,1068.3 84.1,1068.3 91.5,1068.3 98.9,1068.3 
					106.4,1068.3 113.8,1068.3 121.2,1068.3 128.7,1068.3 136.1,1068.3 				"/>
				<polygon class="st0" points="84.6,726.5 81.5,726.5 78.3,726.5 75.1,726.5 71.9,726.5 68.8,726.5 65.6,726.5 62.4,726.5 
					59.3,726.5 56.1,726.5 52.9,726.5 49.7,726.5 46.6,726.5 43.4,726.5 40.2,726.5 37,726.5 33.9,726.5 33.9,723.9 33.9,721.3 
					33.9,718.8 33.9,716.2 33.9,713.7 33.9,711.1 33.9,708.6 33.9,706 33.9,703.5 33.9,700.9 33.9,698.3 33.9,695.8 33.9,693.2 
					33.9,690.7 33.9,688.1 33.9,685.6 37,685.6 40.2,685.6 43.4,685.6 46.6,685.6 49.7,685.6 52.9,685.6 56.1,685.6 59.3,685.6 
					62.4,685.6 65.6,685.6 68.8,685.6 71.9,685.6 75.1,685.6 78.3,685.6 81.5,685.6 84.6,685.6 84.6,688.1 84.6,690.7 84.6,693.2 
					84.6,695.8 84.6,698.3 84.6,700.9 84.6,703.5 84.6,706 84.6,708.6 84.6,711.1 84.6,713.7 84.6,716.2 84.6,718.8 84.6,721.3 
					84.6,723.9 				"/>
				<polygon class="st0" points="134.9,726.5 133.8,726.5 132.7,726.5 131.6,726.5 130.5,726.5 129.4,726.5 128.3,726.5 
					127.3,726.5 126.2,726.5 125.1,726.5 124,726.5 122.9,726.5 121.8,726.5 120.7,726.5 119.6,726.5 118.5,726.5 117.4,726.5 
					117.4,723.9 117.4,721.3 117.4,718.8 117.4,716.2 117.4,713.7 117.4,711.1 117.4,708.6 117.4,706 117.4,703.5 117.4,700.9 
					117.4,698.3 117.4,695.8 117.4,693.2 117.4,690.7 117.4,688.1 117.4,685.6 118.5,685.6 119.6,685.6 120.7,685.6 121.8,685.6 
					122.9,685.6 124,685.6 125.1,685.6 126.2,685.6 127.3,685.6 128.3,685.6 129.4,685.6 130.5,685.6 131.6,685.6 132.7,685.6 
					133.8,685.6 134.9,685.6 134.9,688.1 134.9,690.7 134.9,693.2 134.9,695.8 134.9,698.3 134.9,700.9 134.9,703.5 134.9,706 
					134.9,708.6 134.9,711.1 134.9,713.7 134.9,716.2 134.9,718.8 134.9,721.3 134.9,723.9 				"/>
			</g>
			<g>
				<polygon class="st0" points="589,1068.3 589,1052.5 589,1036.7 589,1020.9 589,1005 589,989.2 589,973.4 589,957.6 589,941.8 
					589,925.9 589,910.1 589,894.3 589,878.5 589,862.6 589,846.8 589,831 589,815.2 586.6,813.8 584.1,812.5 581.7,811.2 
					579.3,809.9 576.9,808.5 574.5,807.2 572,805.9 569.6,804.6 567.2,803.2 564.8,801.9 562.4,800.6 559.9,799.3 557.5,797.9 
					555.1,796.6 552.7,795.3 550.3,794 546.6,795.4 542.9,796.8 539.2,798.2 535.5,799.6 531.9,801 528.2,802.4 524.5,803.8 
					520.8,805.2 517.1,806.6 513.4,808 509.8,809.4 506.1,810.8 502.4,812.2 498.7,813.6 495,815 491.3,816.4 491.3,832.2 
					491.3,847.9 491.3,863.7 491.3,879.4 491.3,895.2 491.3,910.9 491.3,926.6 491.3,942.4 491.3,958.1 491.3,973.9 491.3,989.6 
					491.3,1005.4 491.3,1021.1 491.3,1036.8 491.3,1052.6 491.3,1068.3 497.4,1068.3 503.5,1068.3 509.6,1068.3 515.7,1068.3 
					521.8,1068.3 528,1068.3 534.1,1068.3 540.2,1068.3 546.3,1068.3 552.4,1068.3 558.5,1068.3 564.6,1068.3 570.7,1068.3 
					576.8,1068.3 582.9,1068.3 				"/>
			</g>
			<g>
				<polygon class="st0" points="343.9,723 343.9,744.4 343.9,765.7 343.9,787 343.9,808.3 343.9,829.7 343.9,851 343.9,872.3 
					343.9,893.6 343.9,914.9 343.9,936.3 343.9,957.6 343.9,978.9 343.9,1000.2 343.9,1021.5 343.9,1042.9 343.9,1064.2 
					338.6,1064.2 333.4,1064.2 328.2,1064.2 323,1064.2 317.7,1064.2 312.5,1064.2 307.3,1064.2 302,1064.2 296.8,1064.2 
					291.6,1064.2 286.4,1064.2 281.1,1064.2 275.9,1064.2 270.7,1064.2 265.4,1064.2 260.2,1064.2 260.2,1063.6 260.2,1063 
					260.3,1062.4 260.3,1061.8 260.3,1061.1 260.3,1060.5 260.3,1059.9 260.3,1059.3 260.3,1058.7 260.4,1058.1 260.4,1057.5 
					260.4,1056.9 260.4,1056.3 260.4,1055.7 260.4,1055.1 260.4,1054.5 260.5,1054.2 260.5,1054 260.5,1053.8 260.5,1053.6 
					260.5,1053.3 260.5,1053.1 260.5,1052.9 260.5,1052.7 260.5,1052.4 260.5,1052.2 260.5,1052 260.5,1051.8 260.5,1051.5 
					260.5,1051.3 260.5,1051.1 260.5,1050.8 260.5,1050.1 260.6,1049.4 260.6,1048.7 260.6,1047.9 260.6,1047.2 260.6,1046.5 
					260.6,1045.8 260.7,1045 260.7,1044.3 260.7,1043.6 260.7,1042.9 260.7,1042.1 260.7,1041.4 260.8,1040.7 260.8,1040 
					260.8,1039.2 260.8,1039 260.8,1038.8 260.8,1038.6 260.8,1038.3 260.8,1038.1 260.8,1037.9 260.8,1037.7 260.8,1037.4 
					260.8,1037.2 260.8,1037 260.8,1036.8 260.8,1036.5 260.8,1036.3 260.9,1036.1 260.9,1035.8 260.9,1035.6 260.9,1034.9 
					260.9,1034.2 260.9,1033.4 260.9,1032.7 260.9,1032 261,1031.3 261,1030.5 261,1029.8 261,1029.1 261,1028.4 261,1027.6 
					261.1,1026.9 261.1,1026.2 261.1,1025.5 261.1,1024.7 261.1,1024 261.1,1023.8 261.1,1023.6 261.1,1023.3 261.1,1023.1 
					261.1,1022.9 261.1,1022.7 261.2,1022.4 261.2,1022.2 261.2,1022 261.2,1021.8 261.2,1021.5 261.2,1021.3 261.2,1021.1 
					261.2,1020.9 261.2,1020.6 261.2,1020.4 261.2,1019.7 261.2,1019 261.3,1018.2 261.3,1017.5 261.3,1016.8 261.3,1016.1 
					261.3,1015.3 261.3,1014.6 261.3,1013.9 261.4,1013.1 261.4,1012.4 261.4,1011.7 261.4,1011 261.4,1010.2 261.4,1009.5 
					261.5,1008.8 261.5,1008.6 261.5,1008.3 261.5,1008.1 261.5,1007.9 261.5,1007.7 261.5,1007.4 261.5,1007.2 261.5,1007 
					261.5,1006.8 261.5,1006.5 261.5,1006.3 261.5,1006.1 261.5,1005.9 261.5,1005.6 261.5,1005.4 261.5,1005.2 261.6,1004.5 
					261.6,1003.7 261.6,1003 261.6,1002.3 261.6,1001.6 261.6,1000.8 261.6,1000.1 261.7,999.4 261.7,998.7 261.7,997.9 
					261.7,997.2 261.7,996.5 261.7,995.8 261.8,995 261.8,994.3 261.8,993.6 261.8,993.4 261.8,993.1 261.8,992.9 261.8,992.7 
					261.8,992.4 261.8,992.2 261.8,992 261.8,991.8 261.8,991.5 261.8,991.3 261.9,991.1 261.9,990.9 261.9,990.6 261.9,990.4 
					261.9,990.2 261.9,989.9 261.9,989.2 261.9,988.5 261.9,987.8 261.9,987 262,986.3 262,985.6 262,984.9 262,984.1 262,983.4 
					262,982.7 262.1,982 262.1,981.2 262.1,980.5 262.1,979.8 262.1,979.1 262.2,978.3 262.2,978.1 262.2,977.9 262.2,977.7 
					262.2,977.4 262.2,977.2 262.2,977 262.2,976.8 262.2,976.5 262.2,976.3 262.2,976.1 262.2,975.9 262.2,975.6 262.2,975.4 
					262.2,975.2 262.2,975 262.2,974.7 262.2,974 262.3,973.3 262.3,972.6 262.3,971.8 262.3,971.1 262.3,970.4 262.3,969.7 
					262.4,968.9 262.4,968.2 262.4,967.5 262.4,966.7 262.4,966 262.4,965.3 262.5,964.6 262.5,963.8 262.5,963.1 262.5,962.9 
					262.5,962.7 262.5,962.4 262.5,962.2 262.5,962 262.5,961.8 262.5,961.5 262.5,961.3 262.5,961.1 262.5,960.9 262.5,960.6 
					262.5,960.4 262.6,960.2 262.6,960 262.6,959.7 262.6,959.5 262.6,958.8 262.6,958.1 262.6,957.3 262.6,956.6 262.6,955.9 
					262.7,955.2 262.7,954.4 262.7,953.7 262.7,953 262.7,952.3 262.7,951.5 262.8,950.8 262.8,950.1 262.8,949.4 262.8,948.6 
					262.8,947.9 262.8,947.7 262.8,947.5 262.8,947.2 262.8,947 262.8,946.8 262.9,946.5 262.9,946.3 262.9,946.1 262.9,945.9 
					262.9,945.6 262.9,945.4 262.9,945.2 262.9,945 262.9,944.7 262.9,944.5 262.9,944.3 262.9,943.6 262.9,942.8 263,942.1 
					263,941.4 263,940.7 263,939.9 263,939.2 263,938.5 263,937.8 263.1,937 263.1,936.3 263.1,935.6 263.1,934.9 263.1,934.1 
					263.1,933.4 263.2,932.7 263.2,932.4 263.2,932.2 263.2,932 263.2,931.8 263.2,931.5 263.2,931.3 263.2,931.1 263.2,930.9 
					263.2,930.6 263.2,930.4 263.2,930.2 263.2,930 263.2,929.7 263.2,929.5 263.2,929.3 263.2,929.1 263.3,928.3 263.3,927.6 
					263.3,926.9 263.3,926.2 263.3,925.4 263.3,924.7 263.4,924 263.4,923.3 263.4,922.5 263.4,921.8 263.4,921.1 263.4,920.3 
					263.4,919.6 263.5,918.9 263.5,918.2 263.5,917.4 263.5,917.2 263.5,917 263.5,916.8 263.5,916.5 263.5,916.3 263.5,916.1 
					263.5,915.9 263.5,915.6 263.5,915.4 263.5,915.2 263.6,915 263.6,914.7 263.6,914.5 263.6,914.3 263.6,914.1 263.6,913.8 
					263.6,913.1 263.6,912.4 263.6,911.7 263.6,910.9 263.7,910.2 263.7,909.5 263.7,908.8 263.7,908 263.7,907.3 263.7,906.6 
					263.8,905.9 263.8,905.1 263.8,904.4 263.8,903.7 263.8,903 263.8,902.2 263.8,902 263.8,901.8 263.9,901.6 263.9,901.3 
					263.9,901.1 263.9,900.9 263.9,900.7 263.9,900.4 263.9,900.2 263.9,900 263.9,899.7 263.9,899.5 263.9,899.3 263.9,899.1 
					263.9,898.8 263.9,898.6 264,897.9 264,897.2 264,896.4 264,895.7 264,895 264,894.3 264,893.5 264.1,892.8 264.1,892.1 
					264.1,891.4 264.1,890.6 264.1,889.9 264.1,889.2 264.2,888.5 264.2,887.7 264.2,887 264.2,886.8 264.2,886.6 264.2,886.3 
					264.2,886.1 264.2,885.9 264.2,885.6 264.2,885.4 264.2,885.2 264.2,885 264.2,884.7 264.2,884.5 264.2,884.3 264.3,884.1 
					264.3,883.8 264.3,883.6 264.3,883.4 264.3,882.7 264.3,881.9 264.3,881.2 264.3,880.5 264.3,879.8 264.4,879 264.4,878.3 
					264.4,877.6 264.4,876.9 264.4,876.1 264.4,875.4 264.5,874.7 264.5,874 264.5,873.2 264.5,872.5 264.5,871.8 264.5,871.6 
					264.5,871.3 264.5,871.1 264.5,870.9 264.6,870.7 264.6,870.4 264.6,870.2 264.6,870 264.6,869.8 264.6,869.5 264.6,869.3 
					264.6,869.1 264.6,868.9 264.6,868.6 264.6,868.4 264.6,868.2 264.6,867.5 264.6,866.7 264.7,866 264.7,865.3 264.7,864.5 
					264.7,863.8 264.7,863.1 264.7,862.4 264.8,861.6 264.8,860.9 264.8,860.2 264.8,859.5 264.8,858.7 264.8,858 264.9,857.3 
					264.9,856.6 264.9,856.3 264.9,856.1 264.9,855.9 264.9,855.7 264.9,855.4 264.9,855.2 264.9,855 264.9,854.8 264.9,854.5 
					264.9,854.3 264.9,854.1 264.9,853.8 264.9,853.6 264.9,853.4 264.9,853.2 264.9,852.9 265,852.2 265,851.5 265,850.8 265,850 
					265,849.3 265,848.6 265.1,847.9 265.1,847.1 265.1,846.4 265.1,845.7 265.1,845 265.1,844.2 265.2,843.5 265.2,842.8 
					265.2,842.1 265.2,841.3 265.2,841.1 265.2,840.9 265.2,840.7 265.2,840.4 265.2,840.2 265.2,840 265.2,839.7 265.2,839.5 
					265.2,839.3 265.3,839.1 265.3,838.8 265.3,838.6 265.3,838.4 265.3,838.2 265.3,837.9 265.3,837.7 265.3,837 265.3,836.3 
					265.3,835.5 265.3,834.8 265.4,834.1 265.4,833.4 265.4,832.6 265.4,831.9 265.4,831.2 265.4,830.5 265.5,829.7 265.5,829 
					265.5,828.3 265.5,827.6 265.5,826.8 265.5,826.1 265.5,825.9 265.6,825.7 265.6,825.4 265.6,825.2 265.6,825 265.6,824.8 
					265.6,824.5 265.6,824.3 265.6,824.1 265.6,823.9 265.6,823.6 265.6,823.4 265.6,823.2 265.6,822.9 265.6,822.7 265.6,822.5 
					265.7,821.8 265.7,821 265.7,820.3 265.7,819.6 265.7,818.9 265.7,818.1 265.7,817.4 265.8,816.7 265.8,816 265.8,815.2 
					265.8,814.5 265.8,813.8 265.8,813.1 265.9,812.3 265.9,811.6 265.9,810.9 265.9,810.7 265.9,810.4 265.9,810.2 265.9,810 
					265.9,809.8 265.9,809.5 265.9,809.3 265.9,809.1 265.9,808.9 265.9,808.6 265.9,808.4 266,808.2 266,808 266,807.7 266,807.5 
					266,807.3 266,806.5 266,805.8 266,805.1 266,804.4 266.1,803.6 266.1,802.9 266.1,802.2 266.1,801.5 266.1,800.7 266.1,800 
					266.1,799.3 266.2,798.6 266.2,797.8 266.2,797.1 266.2,796.4 266.2,795.7 266.2,795.4 266.2,795.2 266.2,795 266.2,794.8 
					266.3,794.5 266.3,794.3 266.3,794.1 266.3,793.8 266.3,793.6 266.3,793.4 266.3,793.2 266.3,792.9 266.3,792.7 266.3,792.5 
					266.3,792.3 266.3,792 266.3,791.3 266.3,790.6 266.4,789.9 266.4,789.1 266.4,788.4 266.4,787.7 266.4,787 266.4,786.2 
					266.5,785.5 266.5,784.8 266.5,784.1 266.5,783.3 266.5,782.6 266.5,781.9 266.6,781.2 266.6,780.4 266.6,780.2 266.6,780 
					266.6,779.8 266.6,779.5 266.6,779.3 266.6,779.1 266.6,778.9 266.6,778.6 266.6,778.4 266.6,778.2 266.6,778 266.6,777.7 
					266.6,777.5 266.6,777.3 266.6,777.1 266.6,776.8 266.7,776.1 266.7,775.4 266.7,774.6 266.7,773.9 266.7,773.2 266.7,772.5 
					266.8,771.7 266.8,771 266.8,770.3 266.8,769.6 266.8,768.8 266.8,768.1 266.9,767.4 266.9,766.7 266.9,765.9 266.9,765.2 
					266.9,765 266.9,764.8 266.9,764.5 266.9,764.3 266.9,764.1 266.9,763.9 266.9,763.6 266.9,763.4 267,763.2 267,763 267,762.7 
					267,762.5 267,762.3 267,762 267,761.8 267,761.6 267,760.9 267,760.1 267,759.4 267,758.7 267.1,758 267.1,757.2 267.1,756.5 
					267.1,755.8 267.1,755.1 267.1,754.3 267.2,753.6 267.2,752.9 267.2,752.2 267.2,751.5 267.2,750.7 267.2,750 267.2,749.8 
					267.3,749.5 267.3,749.3 267.3,749.1 267.3,748.9 267.3,748.6 267.3,748.4 267.3,748.2 267.3,748 267.3,747.7 267.3,747.5 
					267.3,747.3 267.3,747.1 267.3,746.8 267.3,746.6 267.3,746.4 267.3,745.7 267.4,744.9 267.4,744.2 267.4,743.5 267.4,742.8 
					267.4,742 267.4,741.3 267.5,740.6 267.5,739.9 267.5,739.1 267.5,738.4 267.5,737.7 267.5,736.9 267.6,736.2 267.6,735.5 
					267.6,734.8 267.6,734.5 267.6,734.3 267.6,734.1 267.6,733.9 267.6,733.6 267.6,733.4 267.6,733.2 267.6,733 267.6,732.7 
					267.6,732.5 267.6,732.3 267.7,732.1 267.7,731.8 267.7,731.6 267.7,731.4 267.7,731.2 267.7,730.6 267.7,730.1 267.7,729.6 
					267.7,729.1 267.7,728.6 267.7,728.1 267.8,727.6 267.8,727.1 267.8,726.6 267.8,726.1 267.8,725.6 267.8,725.1 267.8,724.6 
					267.8,724.1 267.8,723.6 267.9,723 272.6,723 277.4,723 282.1,723 286.9,723 291.6,723 296.4,723 301.1,723 305.9,723 
					310.6,723 315.4,723 320.1,723 324.9,723 329.6,723 334.4,723 339.1,723 				"/>
				<polygon class="st0" points="333.7,727.1 330.4,727.1 327.1,727.1 323.8,727.1 320.5,727.1 317.3,727 314,727 310.7,727 
					307.4,727 304.1,727 300.8,727 297.5,726.9 294.2,726.9 291,726.9 287.7,726.9 284.4,726.9 281.1,726.8 281.2,725.3 
					281.3,723.8 281.5,722.2 281.6,720.7 281.7,719.2 281.8,717.6 282,716.1 282.1,714.5 282.2,713 282.3,711.5 282.5,709.9 
					282.6,708.4 282.7,706.9 282.8,705.3 283,703.8 283.1,702.2 286.3,702.2 289.4,702.2 292.6,702.2 295.8,702.2 298.9,702.2 
					302.1,702.2 305.2,702.2 308.4,702.2 311.6,702.2 314.7,702.2 317.9,702.2 321,702.2 324.2,702.2 327.4,702.2 330.5,702.2 
					333.7,702.2 333.7,703.8 333.7,705.4 333.7,706.9 333.7,708.5 333.7,710 333.7,711.6 333.7,713.1 333.7,714.7 333.7,716.2 
					333.7,717.8 333.7,719.4 333.7,720.9 333.7,722.5 333.7,724 333.7,725.6 				"/>
			</g>
			<g>
				<polygon class="st0" points="1655,763 1652.3,763.7 1649.6,764.4 1646.8,765.1 1644.1,765.8 1641.4,766.5 1638.7,767.2 
					1636,767.8 1633.3,768.5 1630.5,769.2 1627.8,769.9 1625.1,770.6 1622.4,771.3 1619.7,772 1617,772.7 1614.2,773.4 
					1611.5,774.1 1611.5,770.7 1611.5,767.3 1611.5,763.9 1611.5,760.6 1611.5,757.2 1611.5,753.8 1611.5,750.5 1611.5,747.1 
					1611.5,743.7 1611.5,740.4 1611.5,737 1611.5,733.6 1611.5,730.2 1611.5,726.9 1611.5,723.5 1611.5,720.1 1614.2,721.2 
					1617,722.3 1619.7,723.3 1622.4,724.4 1625.1,725.5 1627.8,726.6 1630.5,727.6 1633.3,728.7 1636,729.8 1638.7,730.9 
					1641.4,731.9 1644.1,733 1646.8,734.1 1649.6,735.2 1652.3,736.2 1655,737.3 1655,738.9 1655,740.5 1655,742.1 1655,743.7 
					1655,745.3 1655,746.9 1655,748.5 1655,750.2 1655,751.8 1655,753.4 1655,755 1655,756.6 1655,758.2 1655,759.8 1655,761.4 				
					"/>
				<polygon class="st0" points="1670.7,1068.3 1670.7,1051.5 1670.7,1034.7 1670.7,1017.8 1670.7,1001 1670.7,984.1 1670.7,967.3 
					1670.7,950.5 1670.7,933.6 1670.7,916.8 1670.7,900 1670.7,883.1 1670.7,866.3 1670.7,849.4 1670.7,832.6 1670.7,815.8 
					1670.7,798.9 1666,799.8 1661.3,800.6 1656.6,801.5 1652,802.4 1647.3,803.2 1642.6,804.1 1637.9,804.9 1633.3,805.8 
					1628.6,806.6 1623.9,807.5 1619.2,808.3 1614.6,809.2 1609.9,810 1605.2,810.9 1600.5,811.8 1595.9,812.6 1595.9,828.6 
					1595.9,844.6 1595.9,860.6 1595.9,876.5 1595.9,892.5 1595.9,908.5 1595.9,924.5 1595.9,940.5 1595.9,956.5 1595.9,972.4 
					1595.9,988.4 1595.9,1004.4 1595.9,1020.4 1595.9,1036.4 1595.9,1052.4 1595.9,1068.3 1600.5,1068.3 1605.2,1068.3 
					1609.9,1068.3 1614.6,1068.3 1619.2,1068.3 1623.9,1068.3 1628.6,1068.3 1633.3,1068.3 1637.9,1068.3 1642.6,1068.3 
					1647.3,1068.3 1652,1068.3 1656.6,1068.3 1661.3,1068.3 1666,1068.3 				"/>
				<polygon class="st0" points="1662.5,804.8 1658.8,805.4 1655.2,805.9 1651.5,806.5 1647.9,807.1 1644.2,807.7 1640.6,808.2 
					1636.9,808.8 1633.3,809.4 1629.6,810 1626,810.6 1622.3,811.1 1618.6,811.7 1615,812.3 1611.3,812.9 1607.7,813.4 1604,814 
					1604,811.5 1604,809 1604,806.4 1604,803.9 1604,801.4 1604,798.8 1604,796.3 1604,793.8 1604,791.3 1604,788.7 1604,786.2 
					1604,783.7 1604,781.2 1604,778.6 1604,776.1 1604,773.6 1607.7,772.6 1611.3,771.6 1615,770.6 1618.6,769.6 1622.3,768.6 
					1626,767.6 1629.6,766.6 1633.3,765.6 1636.9,764.6 1640.6,763.6 1644.2,762.6 1647.9,761.6 1651.5,760.6 1655.2,759.6 
					1658.8,758.6 1662.5,757.6 1662.5,760.5 1662.5,763.5 1662.5,766.4 1662.5,769.4 1662.5,772.3 1662.5,775.3 1662.5,778.2 
					1662.5,781.2 1662.5,784.1 1662.5,787.1 1662.5,790 1662.5,793 1662.5,795.9 1662.5,798.9 1662.5,801.8 				"/>
			</g>
			<g>
				<polygon class="st0" points="283.8,959.1 283.8,964.8 283.8,970.4 283.8,976.1 283.8,981.7 283.8,987.4 283.8,993.1 
					283.8,998.7 283.8,1004.4 283.8,1010.1 283.8,1015.7 283.8,1021.4 283.8,1027 283.8,1032.7 283.8,1038.4 283.8,1044 
					283.8,1049.7 276.4,1049.7 269.1,1049.7 261.8,1049.7 254.5,1049.7 247.2,1049.7 239.9,1049.7 232.6,1049.7 225.3,1049.7 
					218,1049.7 210.6,1049.7 203.3,1049.7 196,1049.7 188.7,1049.7 181.4,1049.7 174.1,1049.7 166.8,1049.7 166.8,1044 
					166.8,1038.4 166.8,1032.7 166.8,1027 166.8,1021.4 166.8,1015.7 166.8,1010.1 166.8,1004.4 166.8,998.7 166.8,993.1 
					166.8,987.4 166.8,981.7 166.8,976.1 166.8,970.4 166.8,964.8 166.8,959.1 166.8,959 166.8,958.9 166.8,958.8 166.9,958.7 
					166.9,958.6 166.9,958.5 166.9,958.4 166.9,958.2 166.9,958.1 167,958 167,957.9 167,957.8 167,957.7 167,957.6 167,957.5 
					167.1,957.4 167.1,956.9 167.2,956.4 167.3,955.9 167.4,955.4 167.5,954.9 167.6,954.4 167.6,953.9 167.7,953.3 167.8,952.8 
					167.9,952.3 168,951.8 168.1,951.3 168.1,950.8 168.2,950.3 168.3,949.8 168.4,949.3 168.5,948.8 168.6,948.3 168.6,947.7 
					168.7,947.2 168.8,946.7 168.9,946.2 169,945.7 169.1,945.1 169.1,944.6 169.2,944.1 169.3,943.6 169.4,943.1 169.5,942.5 
					169.6,942 169.6,941.5 169.7,941 169.7,940.9 169.8,940.8 169.8,940.8 169.8,940.7 169.8,940.6 169.8,940.5 169.8,940.5 
					169.8,940.4 169.8,940.3 169.9,940.2 169.9,940.2 169.9,940.1 169.9,940 169.9,939.9 169.9,939.9 169.9,939.8 170.1,938.8 
					170.2,937.9 170.4,936.9 170.6,936 170.7,935 170.9,934.1 171,933.1 171.2,932.2 171.3,931.2 171.5,930.3 171.6,929.3 
					171.8,928.4 171.9,927.4 172.1,926.5 172.3,925.5 172.4,924.6 172.4,924.5 172.4,924.4 172.5,924.4 172.5,924.3 172.5,924.2 
					172.5,924.1 172.5,924.1 172.5,924 172.5,923.9 172.5,923.8 172.5,923.8 172.6,923.7 172.6,923.6 172.6,923.5 172.6,923.4 
					172.6,923.4 172.7,922.7 172.8,922.1 172.9,921.5 173,920.8 173.1,920.2 173.2,919.6 173.3,918.9 173.4,918.3 173.5,917.7 
					173.6,917 173.8,916.4 173.9,915.8 174,915.1 174.1,914.5 174.2,913.9 174.3,913.2 180.6,913.2 187,913.2 193.4,913.2 
					199.8,913.2 206.1,913.2 212.5,913.2 218.9,913.2 225.3,913.2 231.6,913.2 238,913.2 244.4,913.2 250.8,913.2 257.1,913.2 
					263.5,913.2 269.9,913.2 276.3,913.2 276.4,913.9 276.5,914.5 276.6,915.1 276.7,915.8 276.8,916.4 276.9,917 277,917.7 
					277.1,918.3 277.2,918.9 277.3,919.6 277.4,920.2 277.5,920.8 277.6,921.5 277.7,922.1 277.8,922.7 277.9,923.4 277.9,923.4 
					277.9,923.5 278,923.6 278,923.7 278,923.8 278,923.8 278,923.9 278,924 278,924.1 278,924.1 278,924.2 278.1,924.3 
					278.1,924.4 278.1,924.4 278.1,924.5 278.1,924.6 278.3,925.5 278.4,926.5 278.6,927.4 278.7,928.4 278.9,929.3 279,930.3 
					279.2,931.2 279.3,932.2 279.5,933.1 279.7,934.1 279.8,935 280,936 280.1,936.9 280.3,937.9 280.4,938.8 280.6,939.8 
					280.6,939.9 280.6,939.9 280.6,940 280.6,940.1 280.7,940.2 280.7,940.2 280.7,940.3 280.7,940.4 280.7,940.5 280.7,940.5 
					280.7,940.6 280.7,940.7 280.8,940.8 280.8,940.8 280.8,940.9 280.8,941 280.9,941.5 281,942 281,942.5 281.1,943 281.2,943.6 
					281.3,944.1 281.4,944.6 281.5,945.1 281.5,945.6 281.6,946.1 281.7,946.7 281.8,947.2 281.9,947.7 282,948.2 282.1,948.7 
					282.1,949.2 282.2,949.7 282.3,950.3 282.4,950.8 282.5,951.3 282.6,951.8 282.6,952.3 282.7,952.8 282.8,953.3 282.9,953.8 
					283,954.3 283.1,954.8 283.1,955.4 283.2,955.9 283.3,956.4 283.4,956.9 283.5,957.4 283.5,957.5 283.5,957.6 283.5,957.7 
					283.5,957.8 283.6,957.9 283.6,958 283.6,958.1 283.6,958.2 283.6,958.4 283.6,958.5 283.7,958.6 283.7,958.7 283.7,958.8 
					283.7,958.9 283.7,959 				"/>
				<polygon class="st0" points="268.4,914.8 263,914.8 257.6,914.8 252.2,914.8 246.8,914.8 241.4,914.8 236.1,914.8 230.7,914.8 
					225.3,914.8 219.9,914.8 214.5,914.8 209.1,914.8 203.7,914.8 198.3,914.8 192.9,914.8 187.5,914.8 182.1,914.8 182.1,912.6 
					182.1,910.5 182.1,908.4 182.1,906.2 182.1,904.1 182.1,902 182.1,899.8 182.1,897.7 182.1,895.6 182.1,893.4 182.1,891.3 
					182.1,889.2 182.1,887 182.1,884.9 182.1,882.8 182.1,880.6 187.5,880.6 192.9,880.6 198.3,880.6 203.7,880.6 209.1,880.6 
					214.5,880.6 219.9,880.6 225.3,880.6 230.7,880.6 236.1,880.6 241.4,880.6 246.8,880.6 252.2,880.6 257.6,880.6 263,880.6 
					268.4,880.6 268.4,882.8 268.4,884.9 268.4,887 268.4,889.2 268.4,891.3 268.4,893.4 268.4,895.6 268.4,897.7 268.4,899.8 
					268.4,902 268.4,904.1 268.4,906.2 268.4,908.4 268.4,910.5 268.4,912.6 				"/>
			</g>
			<g>
				<polygon class="st0" points="726.1,747.4 726.1,745.8 726.1,744.1 726.1,742.5 726.1,740.8 726.1,739.1 726.1,737.5 
					726.1,735.8 726.1,734.2 726.1,732.5 726.1,730.9 726.1,729.2 726.1,727.6 726.1,725.9 726.1,724.2 726.1,722.6 726.1,720.9 
					727.8,719.4 729.6,717.9 731.3,716.3 733,714.8 734.8,713.2 736.5,711.7 738.2,710.2 740,708.6 741.7,707.1 743.4,705.6 
					745.2,704 746.9,702.5 748.6,700.9 750.4,699.4 752.1,697.9 753.8,696.3 753.8,700.1 753.8,703.9 753.8,707.6 753.8,711.4 
					753.8,715.2 753.8,719 753.8,722.7 753.8,726.5 753.8,730.3 753.8,734.1 753.8,737.8 753.8,741.6 753.8,745.4 753.8,749.1 
					753.8,752.9 753.8,756.7 752.1,756.1 750.4,755.5 748.6,755 746.9,754.4 745.2,753.8 743.4,753.2 741.7,752.6 740,752.1 
					738.2,751.5 736.5,750.9 734.8,750.3 733,749.7 731.3,749.2 729.6,748.6 727.8,748 				"/>
				<polygon class="st0" points="760.2,779.8 760.2,778.2 760.2,776.5 760.2,774.9 760.2,773.2 760.2,771.6 760.2,769.9 
					760.2,768.2 760.2,766.6 760.2,764.9 760.2,763.3 760.2,761.6 760.2,760 760.2,758.3 760.2,756.7 760.2,755 760.2,753.3 
					756.2,751.8 752.2,750.3 748.1,748.7 744.1,747.2 740,745.6 736,744.1 732,742.6 727.9,741 723.9,739.5 719.9,738 715.8,736.4 
					711.8,734.9 707.7,733.3 703.7,731.8 699.7,730.3 695.6,728.7 695.6,730.8 695.6,732.9 695.6,734.9 695.6,737 695.6,739 
					695.6,741.1 695.6,743.1 695.6,745.2 695.6,747.3 695.6,749.3 695.6,751.4 695.6,753.4 695.6,755.5 695.6,757.5 695.6,759.6 
					695.6,761.7 699.7,762.8 703.7,763.9 707.7,765.1 711.8,766.2 715.8,767.3 719.9,768.5 723.9,769.6 727.9,770.8 732,771.9 
					736,773 740,774.2 744.1,775.3 748.1,776.4 752.2,777.6 756.2,778.7 				"/>
				<path class="st0" d="M770.6,777v16.5V810v16.5v16.5v16.5v16.5v16.5v16.5v16.5v16.5v16.5v16.5v16.5v16.5v16.5v16.5h-5.3H760h-5.3
					h-5.3h-5.3h-5.3h-5.3h-5.3h-5.3h-5.3h-5.3h-5.3h-5.3h-5.3h-5.3h-5.3v-18v-18v-18v-18v-18v-18v-18v-18v-18v-18v-18v-18v-18v-18
					v-18v-18c2.6,0.7,5.1,1.5,7.5,2.2c2.4,0.7,4.7,1.4,6.9,2c2.2,0.6,4.4,1.3,6.5,1.9s4.1,1.2,6.1,1.8c2,0.6,3.9,1.1,5.7,1.6
					c1.8,0.5,3.6,1,5.4,1.6c1.8,0.5,3.5,1,5.1,1.5c1.7,0.5,3.3,1,4.9,1.4c1.6,0.5,3.2,0.9,4.7,1.4c1.6,0.4,3.1,0.9,4.6,1.3
					c1.5,0.4,3,0.9,4.6,1.3s3,0.9,4.5,1.3c1.5,0.4,3,0.9,4.6,1.3s3.1,0.9,4.6,1.3s3.1,0.9,4.8,1.4C767.3,776,769,776.5,770.6,777z"
					/>
			</g>
			<g>
				<path class="st0" d="M1224.8,727v-1.7v-1.7V722v-1.7v-1.7V717v-1.7v-1.7V712v-1.7v-1.7V707v-1.7v-1.7V702v-1.7l-0.6-0.9
					l-0.6-0.9l-0.6-0.9l-0.6-0.9l-0.6-0.9l-0.6-0.9l-0.6-0.9l-0.6-0.9l-0.6-0.9l-0.6-0.9l-0.6-0.9l-0.6-0.9l-0.6-0.9l-0.6-0.9
					l-0.6-0.9l-0.6-0.9c-0.4-0.7-0.8-1.5-1.3-2.3c-0.5-0.8-0.9-1.7-1.4-2.6c-0.5-0.9-1-1.9-1.5-2.9s-1.1-2.1-1.6-3.2
					c-0.6-1.1-1.1-2.3-1.7-3.5c-0.6-1.2-1.2-2.4-1.7-3.7c-0.6-1.3-1.2-2.6-1.8-3.9c-0.6-1.3-1.2-2.7-1.8-4.1
					c-0.6-1.4-1.2-2.9-1.8-4.3c-0.6-1.5-1.2-3-1.7-4.5c-0.6-1.5-1.1-3.1-1.7-4.7s-1.1-3.2-1.6-4.8c-0.5-1.6-1-3.3-1.5-4.9
					c-0.5-1.7-0.9-3.3-1.4-5s-0.8-3.4-1.2-5.1c-0.4-1.7-0.7-3.5-1.1-5.2c-0.5,2-1,4-1.4,6c-0.5,2-1,3.9-1.5,5.7
					c-0.5,1.9-1,3.7-1.6,5.5c-0.5,1.8-1.1,3.5-1.6,5.2s-1.1,3.4-1.7,5s-1.1,3.2-1.7,4.7c-0.6,1.5-1.1,3-1.7,4.5
					c-0.6,1.4-1.1,2.9-1.7,4.2s-1.1,2.7-1.7,4s-1.1,2.5-1.6,3.7s-1.1,2.3-1.6,3.4c-0.5,1.1-1,2.2-1.5,3.2c-0.5,1-1,2-1.5,2.9
					s-0.9,1.8-1.4,2.6c-0.4,0.8-0.9,1.6-1.3,2.3c-0.4,0.7-0.8,1.4-1.2,2.1l-0.6,0.9l-0.6,0.9l-0.6,0.9l-0.6,0.9l-0.6,0.9l-0.6,0.9
					l-0.6,0.9l-0.6,0.9l-0.6,0.9l-0.6,0.9l-0.6,0.9l-0.6,0.9l-0.6,0.9l-0.6,0.9l-0.6,0.9l-0.6,0.9v1.7v1.7v1.7v1.7v1.7v1.7v1.7v1.7
					v1.7v1.7v1.7v1.7v1.7v1.7v1.7v1.7h-0.6h-0.6h-0.6h-0.6h-0.6h-0.6h-0.6h-0.6h-0.6h-0.6h-0.6h-0.6h-0.6h-0.6h-0.6h-0.6V746v18.9
					v18.9v18.9v18.9v18.9v18.9v18.9v18.9v18.9v18.9v18.9v18.9V992v18.9v18.9h5.4h5.4h5.4h5.4h5.4h5.4h5.4h5.4h5.4h5.4h5.4h5.4h5.4
					h5.4h5.4h5.4v-18.9V992v-18.9v-18.9v-18.9v-18.9v-18.9v-18.9v-18.9v-18.9v-18.9v-18.9v-18.9v-18.9V746V727h-0.6h-0.6h-0.6h-0.6
					h-0.6h-0.6h-0.6h-0.6h-0.6h-0.6h-0.6h-0.6h-0.6h-0.6h-0.6L1224.8,727L1224.8,727z"/>
			</g>
			<g>
				<polygon class="st0" points="1092.8,1068.3 1092.7,1067 1092.7,1065.6 1092.7,1064.2 1092.6,1062.8 1092.6,1061.4 
					1092.6,1060.1 1092.5,1058.7 1092.5,1057.3 1092.5,1055.9 1092.4,1054.5 1092.4,1053.2 1092.4,1051.8 1092.3,1050.4 
					1092.3,1049 1092.3,1047.6 1092.2,1046.3 1092.2,1046 1092.2,1045.7 1092.2,1045.4 1092.2,1045.1 1092.2,1044.8 1092.2,1044.5 
					1092.2,1044.2 1092.2,1043.9 1092.2,1043.6 1092.2,1043.3 1092.1,1043 1092.1,1042.7 1092.1,1042.4 1092.1,1042.1 
					1092.1,1041.8 1092.1,1041.5 1092,1037.9 1091.9,1034.4 1091.8,1030.9 1091.8,1027.3 1091.7,1023.8 1091.6,1020.2 
					1091.5,1016.7 1091.4,1013.2 1091.3,1009.6 1091.2,1006.1 1091.2,1002.5 1091.1,999 1091,995.5 1090.9,991.9 1090.8,988.4 
					1090.7,984.9 1090.7,984.6 1090.7,984.3 1090.7,984 1090.7,983.7 1090.7,983.4 1090.7,983.1 1090.7,982.8 1090.7,982.5 
					1090.7,982.2 1090.7,981.9 1090.7,981.6 1090.6,981.3 1090.6,981 1090.6,980.7 1090.6,980.4 1090.6,980.1 1090.5,976.5 
					1090.4,973 1090.4,969.5 1090.3,965.9 1090.2,962.4 1090.1,958.8 1090,955.3 1089.9,951.8 1089.8,948.2 1089.8,944.7 
					1089.7,941.1 1089.6,937.6 1089.5,934.1 1089.4,930.5 1089.3,927 1089.2,923.5 1089.2,923.2 1089.2,922.9 1089.2,922.6 
					1089.2,922.3 1089.2,922 1089.2,921.7 1089.2,921.4 1089.2,921.1 1089.2,920.8 1089.2,920.5 1089.2,920.2 1089.1,919.9 
					1089.1,919.6 1089.1,919.3 1089.1,919 1089.1,918.7 1089,915.1 1088.9,911.6 1088.9,908.1 1088.8,904.5 1088.7,901 
					1088.6,897.4 1088.5,893.9 1088.4,890.4 1088.3,886.8 1088.3,883.3 1088.2,879.7 1088.1,876.2 1088,872.7 1087.9,869.1 
					1087.8,865.6 1087.7,862 1087.7,861.7 1087.7,861.5 1087.7,861.2 1087.7,860.9 1087.7,860.6 1087.7,860.3 1087.7,860 
					1087.7,859.7 1087.7,859.4 1087.7,859.1 1087.7,858.8 1087.7,858.5 1087.6,858.2 1087.6,857.9 1087.6,857.6 1087.6,857.3 
					1087.5,853.6 1087.4,849.8 1087.4,846.1 1087.3,842.4 1087.2,838.7 1087.1,835 1087,831.2 1086.9,827.5 1086.8,823.8 
					1086.7,820.1 1086.6,816.3 1086.5,812.6 1086.4,808.9 1086.4,805.2 1086.3,801.5 1086.2,797.7 1082.6,797.7 1079.1,797.7 
					1075.5,797.7 1072,797.7 1068.5,797.7 1064.9,797.7 1061.4,797.7 1057.8,797.7 1054.3,797.7 1050.7,797.7 1047.2,797.7 
					1043.6,797.7 1040.1,797.7 1036.6,797.7 1033,797.7 1029.5,797.7 1029.4,801.5 1029.3,805.2 1029.2,808.9 1029.1,812.6 
					1029,816.3 1028.9,820.1 1028.8,823.8 1028.7,827.5 1028.6,831.2 1028.6,835 1028.5,838.7 1028.4,842.4 1028.3,846.1 
					1028.2,849.8 1028.1,853.6 1028,857.3 1028,857.6 1028,857.9 1028,858.2 1028,858.5 1028,858.8 1028,859.1 1028,859.4 
					1028,859.7 1028,860 1027.9,860.3 1027.9,860.6 1027.9,860.9 1027.9,861.2 1027.9,861.5 1027.9,861.7 1027.9,862 1027.8,865.6 
					1027.7,869.1 1027.6,872.7 1027.6,876.2 1027.5,879.7 1027.4,883.3 1027.3,886.8 1027.2,890.4 1027.1,893.9 1027,897.4 
					1027,901 1026.9,904.5 1026.8,908.1 1026.7,911.6 1026.6,915.1 1026.5,918.7 1026.5,919 1026.5,919.3 1026.5,919.6 
					1026.5,919.9 1026.5,920.2 1026.5,920.5 1026.5,920.8 1026.5,921.1 1026.5,921.4 1026.4,921.7 1026.4,922 1026.4,922.3 
					1026.4,922.6 1026.4,922.9 1026.4,923.2 1026.4,923.5 1026.3,927 1026.2,930.5 1026.1,934.1 1026.1,937.6 1026,941.1 
					1025.9,944.7 1025.8,948.2 1025.7,951.8 1025.6,955.3 1025.5,958.8 1025.4,962.4 1025.4,965.9 1025.3,969.5 1025.2,973 
					1025.1,976.5 1025,980.1 1025,980.4 1025,980.7 1025,981 1025,981.3 1025,981.6 1025,981.9 1025,982.2 1025,982.5 1025,982.8 
					1025,983.1 1024.9,983.4 1024.9,983.7 1024.9,984 1024.9,984.3 1024.9,984.6 1024.9,984.9 1024.8,988.4 1024.7,991.9 
					1024.7,995.5 1024.6,999 1024.5,1002.5 1024.4,1006.1 1024.3,1009.6 1024.2,1013.2 1024.1,1016.7 1024,1020.2 1024,1023.8 
					1023.9,1027.3 1023.8,1030.9 1023.7,1034.4 1023.6,1037.9 1023.5,1041.5 1023.5,1041.8 1023.5,1042.1 1023.5,1042.4 
					1023.5,1042.7 1023.5,1043 1023.5,1043.3 1023.5,1043.6 1023.5,1043.9 1023.5,1044.2 1023.5,1044.5 1023.4,1044.8 
					1023.4,1045.1 1023.4,1045.4 1023.4,1045.7 1023.4,1046 1023.4,1046.3 1023.4,1047.6 1023.3,1049 1023.3,1050.4 1023.3,1051.8 
					1023.2,1053.2 1023.2,1054.5 1023.2,1055.9 1023.1,1057.3 1023.1,1058.7 1023.1,1060.1 1023,1061.4 1023,1062.8 1023,1064.2 
					1022.9,1065.6 1022.9,1067 1022.9,1068.3 1027.2,1068.3 1031.6,1068.3 1036,1068.3 1040.3,1068.3 1044.7,1068.3 1049.1,1068.3 
					1053.5,1068.3 1057.8,1068.3 1062.2,1068.3 1066.6,1068.3 1070.9,1068.3 1075.3,1068.3 1079.7,1068.3 1084,1068.3 
					1088.4,1068.3 				"/>
			</g>
			<g>
				<polygon class="st0" points="439.5,1054.6 432.1,1054.6 424.7,1054.6 417.2,1054.6 409.8,1054.6 402.4,1054.6 394.9,1054.6 
					387.5,1054.6 380.1,1054.6 372.6,1054.6 365.2,1054.6 357.8,1054.6 350.3,1054.6 342.9,1054.6 335.5,1054.6 328,1054.6 
					320.6,1054.6 320.6,1041.6 320.6,1028.7 320.6,1015.8 320.6,1002.9 320.6,989.9 320.6,977 320.6,964.1 320.6,951.1 320.6,938.2 
					320.6,925.3 320.6,912.4 320.6,899.4 320.6,886.5 320.6,873.6 320.6,860.6 320.6,847.7 328,847.7 335.5,847.7 342.9,847.7 
					350.3,847.7 357.8,847.7 365.2,847.7 372.6,847.7 380.1,847.7 387.5,847.7 394.9,847.7 402.4,847.7 409.8,847.7 417.2,847.7 
					424.7,847.7 432.1,847.7 439.5,847.7 439.5,860.6 439.5,873.6 439.5,886.5 439.5,899.4 439.5,912.4 439.5,925.3 439.5,938.2 
					439.5,951.1 439.5,964.1 439.5,977 439.5,989.9 439.5,1002.9 439.5,1015.8 439.5,1028.7 439.5,1041.6 				"/>
				<polygon class="st0" points="419.9,850.3 413.7,850.3 407.5,850.3 401.3,850.3 395.1,850.3 388.9,850.3 382.7,850.3 
					376.5,850.3 370.3,850.3 364.1,850.3 357.9,850.3 351.7,850.3 345.4,850.3 339.2,850.3 333,850.3 326.8,850.3 320.6,850.3 
					320.6,847.2 320.6,844.2 320.6,841.1 320.6,838 320.6,835 320.6,831.9 320.6,828.8 320.6,825.8 320.6,822.7 320.6,819.7 
					320.6,816.6 320.6,813.5 320.6,810.5 320.6,807.4 320.6,804.4 320.6,801.3 326.8,801.3 333,801.3 339.2,801.3 345.4,801.3 
					351.7,801.3 357.9,801.3 364.1,801.3 370.3,801.3 376.5,801.3 382.7,801.3 388.9,801.3 395.1,801.3 401.3,801.3 407.5,801.3 
					413.7,801.3 419.9,801.3 419.9,804.4 419.9,807.4 419.9,810.5 419.9,813.5 419.9,816.6 419.9,819.7 419.9,822.7 419.9,825.8 
					419.9,828.8 419.9,831.9 419.9,835 419.9,838 419.9,841.1 419.9,844.2 419.9,847.2 				"/>
				<polygon class="st0" points="401.4,803.8 396.3,803.8 391.3,803.8 386.2,803.8 381.2,803.8 376.1,803.8 371.1,803.8 366,803.8 
					361,803.8 355.9,803.8 350.9,803.8 345.8,803.8 340.8,803.8 335.8,803.8 330.7,803.8 325.7,803.8 320.6,803.8 320.6,802.5 
					320.6,801.1 320.6,799.7 320.6,798.3 320.6,796.9 320.6,795.5 320.6,794.2 320.6,792.8 320.6,791.4 320.6,790 320.6,788.6 
					320.6,787.2 320.6,785.8 320.6,784.5 320.6,783.1 320.6,781.7 325.7,781.7 330.7,781.7 335.8,781.7 340.8,781.7 345.8,781.7 
					350.9,781.7 355.9,781.7 361,781.7 366,781.7 371.1,781.7 376.1,781.7 381.2,781.7 386.2,781.7 391.3,781.7 396.3,781.7 
					401.4,781.7 401.4,783.1 401.4,784.5 401.4,785.8 401.4,787.2 401.4,788.6 401.4,790 401.4,791.4 401.4,792.8 401.4,794.2 
					401.4,795.5 401.4,796.9 401.4,798.3 401.4,799.7 401.4,801.1 401.4,802.5 				"/>
			</g>
			<g>
				<polygon class="st0" points="1373.8,1043.5 1368.3,1043.5 1362.9,1043.5 1357.5,1043.5 1352,1043.5 1346.6,1043.5 
					1341.1,1043.5 1335.7,1043.5 1330.3,1043.5 1324.8,1043.5 1319.4,1043.5 1313.9,1043.5 1308.5,1043.5 1303.1,1043.5 
					1297.6,1043.5 1292.2,1043.5 1286.7,1043.5 1286.7,1034.1 1286.7,1024.6 1286.7,1015.1 1286.7,1005.7 1286.7,996.2 
					1286.7,986.8 1286.7,977.3 1286.7,967.8 1286.7,958.4 1286.7,948.9 1286.7,939.4 1286.7,930 1286.7,920.5 1286.7,911.1 
					1286.7,901.6 1286.7,892.1 1292.2,892.1 1297.6,892.1 1303.1,892.1 1308.5,892.1 1313.9,892.1 1319.4,892.1 1324.8,892.1 
					1330.3,892.1 1335.7,892.1 1341.1,892.1 1346.6,892.1 1352,892.1 1357.5,892.1 1362.9,892.1 1368.3,892.1 1373.8,892.1 
					1373.8,901.6 1373.8,911.1 1373.8,920.5 1373.8,930 1373.8,939.4 1373.8,948.9 1373.8,958.4 1373.8,967.8 1373.8,977.3 
					1373.8,986.8 1373.8,996.2 1373.8,1005.7 1373.8,1015.1 1373.8,1024.6 1373.8,1034.1 				"/>
				<polygon class="st0" points="1359.4,894 1354.9,894 1350.3,894 1345.8,894 1341.3,894 1336.7,894 1332.2,894 1327.6,894 
					1323.1,894 1318.5,894 1314,894 1309.5,894 1304.9,894 1300.4,894 1295.8,894 1291.3,894 1286.7,894 1286.7,891.8 1286.7,889.5 
					1286.7,887.3 1286.7,885 1286.7,882.8 1286.7,880.6 1286.7,878.3 1286.7,876.1 1286.7,873.8 1286.7,871.6 1286.7,869.4 
					1286.7,867.1 1286.7,864.9 1286.7,862.6 1286.7,860.4 1286.7,858.2 1291.3,858.2 1295.8,858.2 1300.4,858.2 1304.9,858.2 
					1309.5,858.2 1314,858.2 1318.5,858.2 1323.1,858.2 1327.6,858.2 1332.2,858.2 1336.7,858.2 1341.3,858.2 1345.8,858.2 
					1350.3,858.2 1354.9,858.2 1359.4,858.2 1359.4,860.4 1359.4,862.6 1359.4,864.9 1359.4,867.1 1359.4,869.4 1359.4,871.6 
					1359.4,873.8 1359.4,876.1 1359.4,878.3 1359.4,880.6 1359.4,882.8 1359.4,885 1359.4,887.3 1359.4,889.5 1359.4,891.8 				"/>
				<polygon class="st0" points="1345.8,860 1342.1,860 1338.5,860 1334.8,860 1331.1,860 1327.4,860 1323.7,860 1320,860 
					1316.3,860 1312.6,860 1308.9,860 1305.2,860 1301.5,860 1297.8,860 1294.1,860 1290.4,860 1286.7,860 1286.7,859 1286.7,858 
					1286.7,857 1286.7,856 1286.7,855 1286.7,853.9 1286.7,852.9 1286.7,851.9 1286.7,850.9 1286.7,849.9 1286.7,848.9 
					1286.7,847.9 1286.7,846.8 1286.7,845.8 1286.7,844.8 1286.7,843.8 1290.4,843.8 1294.1,843.8 1297.8,843.8 1301.5,843.8 
					1305.2,843.8 1308.9,843.8 1312.6,843.8 1316.3,843.8 1320,843.8 1323.7,843.8 1327.4,843.8 1331.1,843.8 1334.8,843.8 
					1338.5,843.8 1342.1,843.8 1345.8,843.8 1345.8,844.8 1345.8,845.8 1345.8,846.8 1345.8,847.9 1345.8,848.9 1345.8,849.9 
					1345.8,850.9 1345.8,851.9 1345.8,852.9 1345.8,853.9 1345.8,855 1345.8,856 1345.8,857 1345.8,858 1345.8,859 				"/>
			</g>
			<g>
				<polygon class="st0" points="828.9,845.4 828.9,857.4 828.9,869.5 828.9,881.5 828.9,893.6 828.9,905.6 828.9,917.6 
					828.9,929.7 828.9,941.7 828.9,953.7 828.9,965.8 828.9,977.8 828.9,989.9 828.9,1001.9 828.9,1013.9 828.9,1026 828.9,1038 
					836.7,1038 844.5,1038 852.3,1038 860.2,1038 868,1038 875.8,1038 883.6,1038 891.4,1038 899.3,1038 907.1,1038 914.9,1038 
					922.7,1038 930.6,1038 938.4,1038 946.2,1038 954,1038 954,1034.6 954,1031.3 954,1027.9 954,1024.5 954,1021.2 954,1017.8 
					954,1014.4 954,1011.1 954,1007.7 954,1004.3 954,1001 954,997.6 954,994.2 954,990.9 954,987.5 954,984.1 954.5,984.1 
					955,984.1 955.5,984.1 956,984.1 956.5,984.1 957,984.1 957.5,984.1 958,984.1 958.5,984.1 959,984.1 959.5,984.1 960,984.1 
					960.5,984.1 961,984.1 961.5,984.1 962,984.1 962,978.2 962,972.3 962,966.3 962,960.4 962,954.5 962,948.5 962,942.6 
					962,936.7 962,930.7 962,924.8 962,918.9 962,912.9 962,907 962,901.1 962,895.1 962,889.2 958.4,889.2 954.9,889.2 
					951.4,889.2 947.8,889.2 944.3,889.2 940.8,889.2 937.3,889.2 933.7,889.2 930.2,889.2 926.7,889.2 923.2,889.2 919.6,889.2 
					916.1,889.2 912.6,889.2 909,889.2 905.5,889.2 900.7,886.5 895.9,883.7 891.1,881 886.3,878.3 881.6,875.5 876.8,872.8 
					872,870 867.2,867.3 862.4,864.6 857.6,861.8 852.8,859.1 848,856.4 843.2,853.6 838.4,850.9 833.6,848.1 				"/>
			</g>
			<g>
				<polygon class="st0" points="1563.1,857.8 1563.1,869.1 1563.1,880.3 1563.1,891.6 1563.1,902.8 1563.1,914.1 1563.1,925.4 
					1563.1,936.6 1563.1,947.9 1563.1,959.2 1563.1,970.4 1563.1,981.7 1563.1,993 1563.1,1004.2 1563.1,1015.5 1563.1,1026.7 
					1563.1,1038 1554,1038 1544.9,1038 1535.9,1038 1526.8,1038 1517.8,1038 1508.7,1038 1499.7,1038 1490.6,1038 1481.6,1038 
					1472.5,1038 1463.4,1038 1454.4,1038 1445.3,1038 1436.3,1038 1427.2,1038 1418.2,1038 1418.2,1029.4 1418.2,1020.7 
					1418.2,1012.1 1418.2,1003.4 1418.2,994.8 1418.2,986.1 1418.2,977.5 1418.2,968.8 1418.2,960.2 1418.2,951.5 1418.2,942.9 
					1418.2,934.2 1418.2,925.6 1418.2,916.9 1418.2,908.3 1418.2,899.6 1420.1,899 1422,898.5 1423.9,897.9 1425.9,897.4 
					1427.8,896.8 1429.7,896.3 1431.6,895.7 1433.6,895.2 1435.5,894.6 1437.4,894 1439.4,893.5 1441.3,892.9 1443.2,892.4 
					1445.1,891.8 1447.1,891.3 1449,890.7 1449.6,890.5 1450.1,890.4 1450.7,890.2 1451.3,890.1 1451.8,889.9 1452.4,889.7 
					1453,889.6 1453.6,889.4 1454.1,889.2 1454.7,889.1 1455.3,888.9 1455.8,888.7 1456.4,888.6 1457,888.4 1457.6,888.2 
					1458.1,888.1 1460,887.5 1461.9,887 1463.8,886.4 1465.7,885.9 1467.6,885.3 1469.5,884.8 1471.4,884.2 1473.3,883.7 
					1475.2,883.1 1477.1,882.6 1479,882.1 1480.9,881.5 1482.8,881 1484.7,880.4 1486.6,879.9 1488.5,879.3 1489,879.2 1489.6,879 
					1490.2,878.8 1490.8,878.7 1491.3,878.5 1491.9,878.3 1492.5,878.2 1493,878 1493.6,877.8 1494.2,877.7 1494.8,877.5 
					1495.3,877.3 1495.9,877.2 1496.5,877 1497.1,876.8 1497.6,876.7 1501.7,875.5 1505.8,874.3 1509.9,873.1 1514,872 
					1518.1,870.8 1522.2,869.6 1526.3,868.4 1530.3,867.2 1534.4,866.1 1538.5,864.9 1542.6,863.7 1546.7,862.5 1550.8,861.3 
					1554.9,860.2 1559,859 				"/>
				<polygon class="st0" points="1551.3,869.6 1551.3,868.2 1551.3,866.8 1551.3,865.5 1551.3,864.1 1551.3,862.7 1551.3,861.3 
					1551.3,859.9 1551.3,858.5 1551.3,857.2 1551.3,855.8 1551.3,854.4 1551.3,853 1551.3,851.6 1551.3,850.2 1551.3,848.9 
					1551.3,847.5 1543.7,849.8 1536.2,852.2 1528.6,854.5 1521,856.9 1513.4,859.2 1505.8,861.6 1498.2,863.9 1490.6,866.3 
					1483,868.6 1475.4,871 1467.8,873.3 1460.2,875.7 1452.7,878 1445.1,880.4 1437.5,882.7 1429.9,885.1 1429.9,886.2 
					1429.9,887.3 1429.9,888.5 1429.9,889.6 1429.9,890.7 1429.9,891.9 1429.9,893 1429.9,894.1 1429.9,895.2 1429.9,896.4 
					1429.9,897.5 1429.9,898.6 1429.9,899.8 1429.9,900.9 1429.9,902 1429.9,903.1 1437.5,901 1445.1,898.9 1452.7,896.9 
					1460.2,894.8 1467.8,892.7 1475.4,890.6 1483,888.5 1490.6,886.4 1498.2,884.3 1505.8,882.2 1513.4,880.1 1521,878 
					1528.6,875.9 1536.2,873.8 1543.7,871.7 				"/>
			</g>
			<g>
				<path class="st0" d="M669.3,942.3v-2.4v-2.4V935v-2.4v-2.4v-2.4v-2.4v-2.4v-2.4v-2.4v-2.4v-2.4v-2.4v-2.4v-2.4v-2.4l-1.9-1.1
					l-1.9-1.1l-1.9-1.1l-1.9-1.1l-1.9-1.1l-1.9-1.1l-1.9-1.1l-1.9-1.1l-1.9-1.1l-1.9-1.1l-1.9-1.1l-1.9-1.1l-1.9-1.1l-1.9-1.1
					l-1.9-1.1l-1.9-1.1l-1.9,0.4l-1.9,0.4l-1.9,0.4l-1.9,0.4l-1.9,0.4l-1.9,0.4l-1.9,0.4l-1.9,0.4l-1.9,0.4l-1.9,0.4l-1.9,0.4
					l-1.9,0.4l-1.9,0.4l-1.9,0.4l-1.9,0.4l-1.9,0.4v2.1v2.1v2.1v2.1v2.1v2.1v2.1v2.1v2.1v2.1v2.1v2.1v2.1v2.1v2.1v2.1l-1.6,0.5
					l-1.6,0.5l-1.6,0.5l-1.6,0.5l-1.6,0.5l-1.6,0.5l-1.6,0.5l-1.6,0.5l-1.6,0.5l-1.6,0.5l-1.6,0.5l-1.6,0.5l-1.6,0.5l-1.6,0.5
					l-1.6,0.5l-1.6,0.5v6.7v6.7v6.7v6.7v6.7v6.7v6.7v6.7v6.7v6.7v6.7v6.7v6.7v6.7v6.7v6.7c0.8,0,1.9,0,3.4,0s3.2,0,5.2,0
					c2,0,4.3,0,6.8,0s5.2,0,8.1,0s5.9,0,9.1,0s6.5,0,9.9,0s6.9,0,10.4,0s7.1,0,10.7,0s7.1,0,10.7,0s7,0,10.4,0s6.7,0,9.9,0
					c3.2,0,6.2,0,9.1,0s5.6,0,8,0s4.7,0,6.7,0c2,0,3.7,0,5.2,0s2.6,0,3.3,0v-5.8v-5.8v-5.8v-5.8v-5.8v-5.8v-5.8v-5.8v-5.8v-5.8v-5.8
					v-5.8v-5.8v-5.8v-5.8v-5.8l-2.5-0.5l-2.5-0.5l-2.5-0.5l-2.5-0.5l-2.5-0.5l-2.5-0.5l-2.5-0.5l-2.5-0.5l-2.5-0.5l-2.5-0.5
					l-2.5-0.5l-2.5-0.5l-2.5-0.5l-2.5-0.5l-2.5-0.5L669.3,942.3z"/>
			</g>
			<polygon class="st0" points="1804.4,1330.6 1689.2,1330.6 1573.9,1330.6 1458.7,1330.6 1343.4,1330.6 1228.2,1330.6 
				1112.9,1330.6 997.7,1330.6 882.4,1330.6 767.2,1330.6 652,1330.6 536.7,1330.6 421.5,1330.6 306.2,1330.6 191,1330.6 
				75.7,1330.6 -39.5,1330.6 -39.5,1311.3 -39.5,1291.9 -39.5,1272.5 -39.5,1253.2 -39.5,1233.8 -39.5,1214.4 -39.5,1195 
				-39.5,1175.7 -39.5,1156.3 -39.5,1136.9 -39.5,1117.6 -39.5,1098.2 -39.5,1078.8 -39.5,1059.5 -39.5,1040.1 -39.5,1020.7 
				75.7,1020.7 191,1020.7 306.2,1020.7 421.5,1020.7 536.7,1020.7 652,1020.7 767.2,1020.7 882.4,1020.7 997.7,1020.7 
				1112.9,1020.7 1228.2,1020.7 1343.4,1020.7 1458.7,1020.7 1573.9,1020.7 1689.2,1020.7 1804.4,1020.7 1804.4,1040.1 
				1804.4,1059.5 1804.4,1078.8 1804.4,1098.2 1804.4,1117.6 1804.4,1136.9 1804.4,1156.3 1804.4,1175.7 1804.4,1195 1804.4,1214.4 
				1804.4,1233.8 1804.4,1253.2 1804.4,1272.5 1804.4,1291.9 1804.4,1311.3 			"/>
			<polygon class="st0" points="195.1,1041.7 191.3,1041.7 187.5,1041.7 183.7,1041.7 179.9,1041.7 176.1,1041.7 172.3,1041.7 
				168.5,1041.7 164.7,1041.7 161,1041.7 157.2,1041.7 153.4,1041.7 149.6,1041.7 145.8,1041.7 142,1041.7 138.2,1041.7 
				134.4,1041.7 134.4,1037.9 134.4,1034.2 134.4,1030.4 134.4,1026.7 134.4,1023 134.4,1019.2 134.4,1015.5 134.4,1011.7 
				134.4,1008 134.4,1004.3 134.4,1000.5 134.4,996.8 134.4,993.1 134.4,989.3 134.4,985.6 134.4,981.8 138.2,981.8 142,981.8 
				145.8,981.8 149.6,981.8 153.4,981.8 157.2,981.8 161,981.8 164.7,981.8 168.5,981.8 172.3,981.8 176.1,981.8 179.9,981.8 
				183.7,981.8 187.5,981.8 191.3,981.8 195.1,981.8 195.1,985.6 195.1,989.3 195.1,993.1 195.1,996.8 195.1,1000.5 195.1,1004.3 
				195.1,1008 195.1,1011.7 195.1,1015.5 195.1,1019.2 195.1,1023 195.1,1026.7 195.1,1030.4 195.1,1034.2 195.1,1037.9 			"/>
			<polygon class="st0" points="837.4,1048.1 832.5,1048.1 827.7,1048.1 822.9,1048.1 818,1048.1 813.2,1048.1 808.4,1048.1 
				803.5,1048.1 798.7,1048.1 793.9,1048.1 789,1048.1 784.2,1048.1 779.4,1048.1 774.6,1048.1 769.7,1048.1 764.9,1048.1 
				760.1,1048.1 760.1,1041.1 760.1,1034.1 760.1,1027 760.1,1020 760.1,1013 760.1,1006 760.1,999 760.1,992 760.1,984.9 
				760.1,977.9 760.1,970.9 760.1,963.9 760.1,956.9 760.1,949.9 760.1,942.9 760.1,935.8 764.9,935.8 769.7,935.8 774.6,935.8 
				779.4,935.8 784.2,935.8 789,935.8 793.9,935.8 798.7,935.8 803.5,935.8 808.4,935.8 813.2,935.8 818,935.8 822.9,935.8 
				827.7,935.8 832.5,935.8 837.4,935.8 837.4,942.9 837.4,949.9 837.4,956.9 837.4,963.9 837.4,970.9 837.4,977.9 837.4,984.9 
				837.4,992 837.4,999 837.4,1006 837.4,1013 837.4,1020 837.4,1027 837.4,1034.1 837.4,1041.1 			"/>
			<polygon class="st0" points="1047.1,1038.9 1040.1,1038.9 1033.1,1038.9 1026.1,1038.9 1019.1,1038.9 1012.1,1038.9 1005,1038.9 
				998,1038.9 991,1038.9 984,1038.9 977,1038.9 970,1038.9 963,1038.9 955.9,1038.9 948.9,1038.9 941.9,1038.9 934.9,1038.9 
				934.9,1036.5 934.9,1034.1 934.9,1031.6 934.9,1029.2 934.9,1026.8 934.9,1024.4 934.9,1022 934.9,1019.6 934.9,1017.2 
				934.9,1014.7 934.9,1012.3 934.9,1009.9 934.9,1007.5 934.9,1005.1 934.9,1002.7 934.9,1000.2 941.9,1000.2 948.9,1000.2 
				955.9,1000.2 963,1000.2 970,1000.2 977,1000.2 984,1000.2 991,1000.2 998,1000.2 1005,1000.2 1012.1,1000.2 1019.1,1000.2 
				1026.1,1000.2 1033.1,1000.2 1040.1,1000.2 1047.1,1000.2 1047.1,1002.7 1047.1,1005.1 1047.1,1007.5 1047.1,1009.9 
				1047.1,1012.3 1047.1,1014.7 1047.1,1017.2 1047.1,1019.6 1047.1,1022 1047.1,1024.4 1047.1,1026.8 1047.1,1029.2 1047.1,1031.6 
				1047.1,1034.1 1047.1,1036.5 			"/>
			<polygon class="st0" points="1158.5,1036.1 1153.9,1036.1 1149.3,1036.1 1144.7,1036.1 1140.1,1036.1 1135.5,1036.1 
				1130.9,1036.1 1126.3,1036.1 1121.7,1036.1 1117.1,1036.1 1112.5,1036.1 1107.9,1036.1 1103.3,1036.1 1098.7,1036.1 
				1094.1,1036.1 1089.5,1036.1 1084.9,1036.1 1084.9,1029.8 1084.9,1023.5 1084.9,1017.2 1084.9,1010.8 1084.9,1004.5 
				1084.9,998.2 1084.9,991.8 1084.9,985.5 1084.9,979.2 1084.9,972.9 1084.9,966.5 1084.9,960.2 1084.9,953.9 1084.9,947.6 
				1084.9,941.2 1084.9,934.9 1089.5,934.9 1094.1,934.9 1098.7,934.9 1103.3,934.9 1107.9,934.9 1112.5,934.9 1117.1,934.9 
				1121.7,934.9 1126.3,934.9 1130.9,934.9 1135.5,934.9 1140.1,934.9 1144.7,934.9 1149.3,934.9 1153.9,934.9 1158.5,934.9 
				1158.5,941.2 1158.5,947.6 1158.5,953.9 1158.5,960.2 1158.5,966.5 1158.5,972.9 1158.5,979.2 1158.5,985.5 1158.5,991.8 
				1158.5,998.2 1158.5,1004.5 1158.5,1010.8 1158.5,1017.2 1158.5,1023.5 1158.5,1029.8 			"/>
			<polygon class="st0" points="1304.8,987.4 1298.6,987.4 1292.5,987.4 1286.3,987.4 1280.2,987.4 1274,987.4 1267.9,987.4 
				1261.7,987.4 1255.6,987.4 1249.4,987.4 1243.2,987.4 1237.1,987.4 1230.9,987.4 1224.8,987.4 1218.6,987.4 1212.5,987.4 
				1206.3,987.4 1206.3,990 1206.3,992.5 1206.3,995.1 1206.3,997.7 1206.3,1000.3 1206.3,1002.9 1206.3,1005.5 1206.3,1008.1 
				1206.3,1010.7 1206.3,1013.2 1206.3,1015.8 1206.3,1018.4 1206.3,1021 1206.3,1023.6 1206.3,1026.2 1206.3,1028.8 1212.5,1028.8 
				1218.6,1028.8 1224.8,1028.8 1230.9,1028.8 1237.1,1028.8 1243.2,1028.8 1249.4,1028.8 1255.6,1028.8 1261.7,1028.8 
				1267.9,1028.8 1274,1028.8 1280.2,1028.8 1286.3,1028.8 1292.5,1028.8 1298.6,1028.8 1304.8,1028.8 1304.8,1026.2 1304.8,1023.6 
				1304.8,1021 1304.8,1018.4 1304.8,1015.8 1304.8,1013.2 1304.8,1010.7 1304.8,1008.1 1304.8,1005.5 1304.8,1002.9 1304.8,1000.3 
				1304.8,997.7 1304.8,995.1 1304.8,992.5 1304.8,990 			"/>
			<polygon class="st0" points="1618.5,1044.4 1613.8,1044.4 1609,1044.4 1604.2,1044.4 1599.4,1044.4 1594.7,1044.4 1589.9,1044.4 
				1585.1,1044.4 1580.4,1044.4 1575.6,1044.4 1570.8,1044.4 1566,1044.4 1561.3,1044.4 1556.5,1044.4 1551.7,1044.4 1546.9,1044.4 
				1542.2,1044.4 1542.2,1038.8 1542.2,1033.1 1542.2,1027.5 1542.2,1021.9 1542.2,1016.2 1542.2,1010.6 1542.2,1005 1542.2,999.3 
				1542.2,993.7 1542.2,988.1 1542.2,982.4 1542.2,976.8 1542.2,971.1 1542.2,965.5 1542.2,959.9 1542.2,954.2 1546.9,954.2 
				1551.7,954.2 1556.5,954.2 1561.3,954.2 1566,954.2 1570.8,954.2 1575.6,954.2 1580.4,954.2 1585.1,954.2 1589.9,954.2 
				1594.7,954.2 1599.4,954.2 1604.2,954.2 1609,954.2 1613.8,954.2 1618.5,954.2 1618.5,959.9 1618.5,965.5 1618.5,971.1 
				1618.5,976.8 1618.5,982.4 1618.5,988.1 1618.5,993.7 1618.5,999.3 1618.5,1005 1618.5,1010.6 1618.5,1016.2 1618.5,1021.9 
				1618.5,1027.5 1618.5,1033.1 1618.5,1038.8 			"/>
			<polygon class="st0" points="408.3,988.6 415.7,988.6 423.1,988.6 430.6,988.6 438,988.6 445.5,988.6 452.9,988.6 460.3,988.6 
				467.8,988.6 475.2,988.6 482.6,988.6 490.1,988.6 497.5,988.6 505,988.6 512.4,988.6 519.8,988.6 527.3,988.6 527.3,992.3 
				527.3,996.1 527.3,999.9 527.3,1003.6 527.3,1007.4 527.3,1011.1 527.3,1014.9 527.3,1018.6 527.3,1022.4 527.3,1026.2 
				527.3,1029.9 527.3,1033.7 527.3,1037.4 527.3,1041.2 527.3,1044.9 527.3,1048.7 519.8,1048.7 512.4,1048.7 505,1048.7 
				497.5,1048.7 490.1,1048.7 482.6,1048.7 475.2,1048.7 467.8,1048.7 460.3,1048.7 452.9,1048.7 445.5,1048.7 438,1048.7 
				430.6,1048.7 423.1,1048.7 415.7,1048.7 408.3,1048.7 408.3,1044.9 408.3,1041.2 408.3,1037.4 408.3,1033.7 408.3,1029.9 
				408.3,1026.2 408.3,1022.4 408.3,1018.6 408.3,1014.9 408.3,1011.1 408.3,1007.4 408.3,1003.6 408.3,999.9 408.3,996.1 
				408.3,992.3 			"/>
			<polygon class="st0" points="1443.7,1009.4 1438.2,1009.4 1432.7,1009.4 1427.2,1009.4 1421.6,1009.4 1416.1,1009.4 
				1410.6,1009.4 1405.1,1009.4 1399.5,1009.4 1394,1009.4 1388.5,1009.4 1383,1009.4 1377.5,1009.4 1371.9,1009.4 1366.4,1009.4 
				1360.9,1009.4 1355.4,1009.4 1355.4,1011.1 1355.4,1012.7 1355.4,1014.3 1355.4,1015.9 1355.4,1017.5 1355.4,1019.1 
				1355.4,1020.7 1355.4,1022.3 1355.4,1023.9 1355.4,1025.5 1355.4,1027.2 1355.4,1028.8 1355.4,1030.4 1355.4,1032 1355.4,1033.6 
				1355.4,1035.2 1360.9,1035.2 1366.4,1035.2 1371.9,1035.2 1377.5,1035.2 1383,1035.2 1388.5,1035.2 1394,1035.2 1399.5,1035.2 
				1405.1,1035.2 1410.6,1035.2 1416.1,1035.2 1421.6,1035.2 1427.2,1035.2 1432.7,1035.2 1438.2,1035.2 1443.7,1035.2 
				1443.7,1033.6 1443.7,1032 1443.7,1030.4 1443.7,1028.8 1443.7,1027.2 1443.7,1025.5 1443.7,1023.9 1443.7,1022.3 1443.7,1020.7 
				1443.7,1019.1 1443.7,1017.5 1443.7,1015.9 1443.7,1014.3 1443.7,1012.7 1443.7,1011.1 			"/>
		</g>
		<g>
			<g>
				<polygon class="st0" points="3283.2,1069 3283.2,1050.2 3283.2,1031.3 3283.2,1012.5 3283.2,993.7 3283.2,974.8 3283.2,956 
					3283.2,937.1 3283.2,918.3 3283.2,899.5 3283.2,880.6 3283.2,861.8 3283.2,842.9 3283.2,824.1 3283.2,805.3 3283.2,786.4 
					3283.2,767.6 3277.1,768.5 3271.1,769.3 3265.1,770.2 3259,771.1 3253,772 3247,772.9 3241,773.8 3234.9,774.7 3228.9,775.6 
					3222.9,776.5 3216.8,777.3 3210.8,778.2 3204.8,779.1 3198.7,780 3192.7,780.9 3186.7,781.8 3186.7,799.7 3186.7,817.7 
					3186.7,835.6 3186.7,853.6 3186.7,871.5 3186.7,889.5 3186.7,907.4 3186.7,925.4 3186.7,943.4 3186.7,961.3 3186.7,979.3 
					3186.7,997.2 3186.7,1015.2 3186.7,1033.1 3186.7,1051.1 3186.7,1069 3192.7,1069 3198.7,1069 3204.8,1069 3210.8,1069 
					3216.8,1069 3222.9,1069 3228.9,1069 3234.9,1069 3241,1069 3247,1069 3253,1069 3259,1069 3265.1,1069 3271.1,1069 
					3277.1,1069 				"/>
				<polygon class="st0" points="3272.4,786.1 3267.7,786.1 3263.1,786.1 3258.4,786.1 3253.7,786.1 3249,786.1 3244.3,786.1 
					3239.6,786.1 3234.9,786.1 3230.2,786.1 3225.5,786.1 3220.9,786.1 3216.2,786.1 3211.5,786.1 3206.8,786.1 3202.1,786.1 
					3197.4,786.1 3197.4,784.1 3197.4,782.2 3197.4,780.2 3197.4,778.3 3197.4,776.3 3197.4,774.3 3197.4,772.4 3197.4,770.4 
					3197.4,768.5 3197.4,766.5 3197.4,764.5 3197.4,762.6 3197.4,760.6 3197.4,758.7 3197.4,756.7 3197.4,754.7 3202.1,753.9 
					3206.8,753 3211.5,752.1 3216.2,751.2 3220.9,750.3 3225.5,749.4 3230.2,748.5 3234.9,747.6 3239.6,746.8 3244.3,745.9 
					3249,745 3253.7,744.1 3258.4,743.2 3263.1,742.3 3267.7,741.4 3272.4,740.5 3272.4,743.4 3272.4,746.2 3272.4,749.1 
					3272.4,751.9 3272.4,754.8 3272.4,757.6 3272.4,760.5 3272.4,763.3 3272.4,766.2 3272.4,769 3272.4,771.9 3272.4,774.7 
					3272.4,777.6 3272.4,780.4 3272.4,783.2 				"/>
			</g>
			<g>
				<polygon class="st0" points="2074.5,1069 2074.5,1046.5 2074.5,1023.9 2074.5,1001.3 2074.5,978.8 2074.5,956.2 2074.5,933.6 
					2074.5,911.1 2074.5,888.5 2074.5,865.9 2074.5,843.4 2074.5,820.8 2074.5,798.3 2074.5,775.7 2074.5,753.1 2074.5,730.6 
					2074.5,708 2069.1,708.8 2063.7,709.6 2058.3,710.4 2052.9,711.2 2047.6,712 2042.2,712.8 2036.8,713.5 2031.4,714.3 
					2026,715.1 2020.6,715.9 2015.3,716.7 2009.9,717.5 2004.5,718.3 1999.1,719.1 1993.7,719.9 1988.3,720.7 1988.3,742.5 
					1988.3,764.2 1988.3,786 1988.3,807.8 1988.3,829.5 1988.3,851.3 1988.3,873.1 1988.3,894.9 1988.3,916.6 1988.3,938.4 
					1988.3,960.2 1988.3,981.9 1988.3,1003.7 1988.3,1025.5 1988.3,1047.2 1988.3,1069 1993.7,1069 1999.1,1069 2004.5,1069 
					2009.9,1069 2015.3,1069 2020.6,1069 2026,1069 2031.4,1069 2036.8,1069 2042.2,1069 2047.6,1069 2052.9,1069 2058.3,1069 
					2063.7,1069 2069.1,1069 				"/>
				<polygon class="st0" points="2064.9,724.5 2060.7,724.5 2056.5,724.5 2052.3,724.5 2048.2,724.5 2044,724.5 2039.8,724.5 
					2035.6,724.5 2031.4,724.5 2027.2,724.5 2023,724.5 2018.8,724.5 2014.7,724.5 2010.5,724.5 2006.3,724.5 2002.1,724.5 
					1997.9,724.5 1997.9,722.8 1997.9,721 1997.9,719.3 1997.9,717.5 1997.9,715.8 1997.9,714 1997.9,712.3 1997.9,710.5 
					1997.9,708.8 1997.9,707 1997.9,705.3 1997.9,703.5 1997.9,701.8 1997.9,700 1997.9,698.3 1997.9,696.6 2002.1,695.8 
					2006.3,695 2010.5,694.2 2014.7,693.4 2018.8,692.6 2023,691.8 2027.2,691 2031.4,690.2 2035.6,689.4 2039.8,688.6 2044,687.8 
					2048.2,687 2052.3,686.2 2056.5,685.5 2060.7,684.7 2064.9,683.9 2064.9,686.4 2064.9,688.9 2064.9,691.5 2064.9,694 
					2064.9,696.6 2064.9,699.1 2064.9,701.7 2064.9,704.2 2064.9,706.7 2064.9,709.3 2064.9,711.8 2064.9,714.4 2064.9,716.9 
					2064.9,719.5 2064.9,722 				"/>
			</g>
			<g>
				<polygon class="st0" points="3401.3,1069 3401.3,1055.8 3401.3,1042.7 3401.3,1029.5 3401.3,1016.3 3401.3,1003.1 3401.3,990 
					3401.3,976.8 3401.3,963.6 3401.3,950.4 3401.3,937.3 3401.3,924.1 3401.3,910.9 3401.3,897.7 3401.3,884.5 3401.3,871.4 
					3401.3,858.2 3395.2,858.2 3389.1,858.2 3383,858.2 3376.9,858.2 3370.8,858.2 3364.7,858.2 3358.6,858.2 3352.5,858.2 
					3346.4,858.2 3340.3,858.2 3334.2,858.2 3328.1,858.2 3322,858.2 3315.9,858.2 3309.8,858.2 3303.7,858.2 3303.7,871.4 
					3303.7,884.5 3303.7,897.7 3303.7,910.9 3303.7,924.1 3303.7,937.3 3303.7,950.4 3303.7,963.6 3303.7,976.8 3303.7,990 
					3303.7,1003.1 3303.7,1016.3 3303.7,1029.5 3303.7,1042.7 3303.7,1055.8 3303.7,1069 3309.8,1069 3315.9,1069 3322,1069 
					3328.1,1069 3334.2,1069 3340.3,1069 3346.4,1069 3352.5,1069 3358.6,1069 3364.7,1069 3370.8,1069 3376.9,1069 3383,1069 
					3389.1,1069 3395.2,1069 				"/>
				<polygon class="st0" points="3395.9,860.3 3390.6,860.3 3385.2,860.3 3379.8,860.3 3374.5,860.3 3369.1,860.3 3363.8,860.3 
					3358.4,860.3 3353,860.3 3347.7,860.3 3342.3,860.3 3336.9,860.3 3331.6,860.3 3326.2,860.3 3320.9,860.3 3315.5,860.3 
					3310.1,860.3 3310.1,859.4 3310.1,858.4 3310.1,857.5 3310.1,856.6 3310.1,855.6 3310.1,854.7 3310.1,853.8 3310.1,852.8 
					3310.1,851.9 3310.1,851 3310.1,850 3310.1,849.1 3310.1,848.2 3310.1,847.2 3310.1,846.3 3310.1,845.3 3315.5,845.3 
					3320.9,845.3 3326.2,845.3 3331.6,845.3 3336.9,845.3 3342.3,845.3 3347.7,845.3 3353,845.3 3358.4,845.3 3363.8,845.3 
					3369.1,845.3 3374.5,845.3 3379.8,845.3 3385.2,845.3 3390.6,845.3 3395.9,845.3 3395.9,846.3 3395.9,847.2 3395.9,848.2 
					3395.9,849.1 3395.9,850 3395.9,851 3395.9,851.9 3395.9,852.8 3395.9,853.8 3395.9,854.7 3395.9,855.6 3395.9,856.6 
					3395.9,857.5 3395.9,858.4 3395.9,859.4 				"/>
				<polygon class="st0" points="3389.9,847.8 3385.3,847.8 3380.7,847.8 3376.1,847.8 3371.5,847.8 3366.9,847.8 3362.2,847.8 
					3357.6,847.8 3353,847.8 3348.4,847.8 3343.8,847.8 3339.2,847.8 3334.6,847.8 3330,847.8 3325.4,847.8 3320.8,847.8 
					3316.1,847.8 3316.1,846.9 3316.1,846 3316.1,845 3316.1,844.1 3316.1,843.2 3316.1,842.2 3316.1,841.3 3316.1,840.4 
					3316.1,839.4 3316.1,838.5 3316.1,837.6 3316.1,836.6 3316.1,835.7 3316.1,834.8 3316.1,833.8 3316.1,832.9 3320.8,832.9 
					3325.4,832.9 3330,832.9 3334.6,832.9 3339.2,832.9 3343.8,832.9 3348.4,832.9 3353,832.9 3357.6,832.9 3362.2,832.9 
					3366.9,832.9 3371.5,832.9 3376.1,832.9 3380.7,832.9 3385.3,832.9 3389.9,832.9 3389.9,833.8 3389.9,834.8 3389.9,835.7 
					3389.9,836.6 3389.9,837.6 3389.9,838.5 3389.9,839.4 3389.9,840.4 3389.9,841.3 3389.9,842.2 3389.9,843.2 3389.9,844.1 
					3389.9,845 3389.9,846 3389.9,846.9 				"/>
			</g>
			<g>
				<polygon class="st0" points="1805.1,1036.6 1798.9,1036.6 1792.7,1036.6 1786.4,1036.6 1780.2,1036.6 1773.9,1036.6 
					1767.7,1036.6 1761.4,1036.6 1755.2,1036.6 1748.9,1036.6 1742.7,1036.6 1736.4,1036.6 1730.2,1036.6 1723.9,1036.6 
					1717.7,1036.6 1711.4,1036.6 1705.2,1036.6 1705.2,1028.7 1705.2,1020.9 1705.2,1013.1 1705.2,1005.2 1705.2,997.4 
					1705.2,989.6 1705.2,981.7 1705.2,973.9 1705.2,966.1 1705.2,958.2 1705.2,950.4 1705.2,942.6 1705.2,934.7 1705.2,926.9 
					1705.2,919.1 1705.2,911.2 1711.4,911.2 1717.7,911.2 1723.9,911.2 1730.2,911.2 1736.4,911.2 1742.7,911.2 1748.9,911.2 
					1755.2,911.2 1761.4,911.2 1767.7,911.2 1773.9,911.2 1780.2,911.2 1786.4,911.2 1792.7,911.2 1798.9,911.2 1805.1,911.2 
					1805.1,919.1 1805.1,926.9 1805.1,934.7 1805.1,942.6 1805.1,950.4 1805.1,958.2 1805.1,966.1 1805.1,973.9 1805.1,981.7 
					1805.1,989.6 1805.1,997.4 1805.1,1005.2 1805.1,1013.1 1805.1,1020.9 1805.1,1028.7 				"/>
				<polygon class="st0" points="1797.1,912.8 1791.9,912.8 1786.6,912.8 1781.4,912.8 1776.1,912.8 1770.9,912.8 1765.7,912.8 
					1760.4,912.8 1755.2,912.8 1749.9,912.8 1744.7,912.8 1739.4,912.8 1734.2,912.8 1729,912.8 1723.7,912.8 1718.5,912.8 
					1713.2,912.8 1713.2,904.6 1713.2,896.4 1713.2,888.1 1713.2,879.9 1713.2,871.7 1713.2,863.4 1713.2,855.2 1713.2,847 
					1713.2,838.7 1713.2,830.5 1713.2,822.3 1713.2,814 1713.2,805.8 1713.2,797.6 1713.2,789.3 1713.2,781.1 1718.5,781.1 
					1723.7,781.1 1729,781.1 1734.2,781.1 1739.4,781.1 1744.7,781.1 1749.9,781.1 1755.2,781.1 1760.4,781.1 1765.7,781.1 
					1770.9,781.1 1776.1,781.1 1781.4,781.1 1786.6,781.1 1791.9,781.1 1797.1,781.1 1797.1,789.3 1797.1,797.6 1797.1,805.8 
					1797.1,814 1797.1,822.3 1797.1,830.5 1797.1,838.7 1797.1,847 1797.1,855.2 1797.1,863.4 1797.1,871.7 1797.1,879.9 
					1797.1,888.1 1797.1,896.4 1797.1,904.6 				"/>
				<polygon class="st0" points="1789.9,782.6 1785.5,782.6 1781.2,782.6 1776.9,782.6 1772.5,782.6 1768.2,782.6 1763.8,782.6 
					1759.5,782.6 1755.2,782.6 1750.8,782.6 1746.5,782.6 1742.2,782.6 1737.8,782.6 1733.5,782.6 1729.1,782.6 1724.8,782.6 
					1720.5,782.6 1720.5,777.9 1720.5,773.2 1720.5,768.6 1720.5,763.9 1720.5,759.3 1720.5,754.6 1720.5,749.9 1720.5,745.3 
					1720.5,740.6 1720.5,736 1720.5,731.3 1720.5,726.6 1720.5,722 1720.5,717.3 1720.5,712.7 1720.5,708 1724.8,708 1729.1,708 
					1733.5,708 1737.8,708 1742.2,708 1746.5,708 1750.8,708 1755.2,708 1759.5,708 1763.8,708 1768.2,708 1772.5,708 1776.9,708 
					1781.2,708 1785.5,708 1789.9,708 1789.9,712.7 1789.9,717.3 1789.9,722 1789.9,726.6 1789.9,731.3 1789.9,736 1789.9,740.6 
					1789.9,745.3 1789.9,749.9 1789.9,754.6 1789.9,759.3 1789.9,763.9 1789.9,768.6 1789.9,773.2 1789.9,777.9 				"/>
				<polygon class="st0" points="1781,709.1 1777.8,709.1 1774.6,709.1 1771.3,709.1 1768.1,709.1 1764.9,709.1 1761.6,709.1 
					1758.4,709.1 1755.2,709.1 1751.9,709.1 1748.7,709.1 1745.5,709.1 1742.2,709.1 1739,709.1 1735.8,709.1 1732.5,709.1 
					1729.3,709.1 1729.3,704.8 1729.3,700.5 1729.3,696.3 1729.3,692 1729.3,687.7 1729.3,683.4 1729.3,679.1 1729.3,674.8 
					1729.3,670.5 1729.3,666.3 1729.3,662 1729.3,657.7 1729.3,653.4 1729.3,649.1 1729.3,644.8 1729.3,640.5 1732.5,640.5 
					1735.8,640.5 1739,640.5 1742.2,640.5 1745.5,640.5 1748.7,640.5 1751.9,640.5 1755.2,640.5 1758.4,640.5 1761.6,640.5 
					1764.9,640.5 1768.1,640.5 1771.3,640.5 1774.6,640.5 1777.8,640.5 1781,640.5 1781,644.8 1781,649.1 1781,653.4 1781,657.7 
					1781,662 1781,666.3 1781,670.5 1781,674.8 1781,679.1 1781,683.4 1781,687.7 1781,692 1781,696.3 1781,700.5 1781,704.8 				
					"/>
			</g>
			<g>
				<polygon class="st0" points="2650,1069 2650,1052.7 2650,1036.3 2650,1019.9 2650,1003.6 2650,987.2 2650,970.8 2650,954.5 
					2650,938.1 2650,921.7 2650,905.4 2650,889 2650,872.6 2650,856.3 2650,839.9 2650,823.5 2650,807.2 2649,805.4 2648,803.6 
					2647.1,801.8 2646.1,800 2645.2,798.2 2644.2,796.4 2643.2,794.7 2642.3,792.9 2641.3,791.1 2640.4,789.3 2639.4,787.5 
					2638.4,785.7 2637.5,783.9 2636.5,782.1 2635.6,780.4 2634.6,778.6 2626.4,778.6 2618.2,778.6 2610,778.6 2601.8,778.6 
					2593.6,778.6 2585.4,778.6 2577.2,778.6 2569,778.6 2560.8,778.6 2552.6,778.6 2544.4,778.6 2536.2,778.6 2528,778.6 
					2519.8,778.6 2511.6,778.6 2503.4,778.6 2502.5,780.4 2501.5,782.1 2500.6,783.9 2499.6,785.7 2498.6,787.5 2497.7,789.3 
					2496.7,791.1 2495.8,792.9 2494.8,794.7 2493.8,796.4 2492.9,798.2 2491.9,800 2490.9,801.8 2490,803.6 2489,805.4 
					2488.1,807.2 2488.1,823.5 2488.1,839.9 2488.1,856.3 2488.1,872.6 2488.1,889 2488.1,905.4 2488.1,921.7 2488.1,938.1 
					2488.1,954.5 2488.1,970.8 2488.1,987.2 2488.1,1003.6 2488.1,1019.9 2488.1,1036.3 2488.1,1052.7 2488.1,1069 2498.2,1069 
					2508.3,1069 2518.4,1069 2528.5,1069 2538.7,1069 2548.8,1069 2558.9,1069 2569,1069 2579.1,1069 2589.3,1069 2599.4,1069 
					2609.5,1069 2619.6,1069 2629.7,1069 2639.8,1069 				"/>
				<polygon class="st0" points="2657.8,816.4 2646.7,816.4 2635.6,816.4 2624.5,816.4 2613.4,816.4 2602.3,816.4 2591.2,816.4 
					2580.1,816.4 2569,816.4 2557.9,816.4 2546.8,816.4 2535.7,816.4 2524.6,816.4 2513.5,816.4 2502.4,816.4 2491.3,816.4 
					2480.2,816.4 2480.2,815.7 2480.2,815.1 2480.2,814.4 2480.2,813.8 2480.2,813.1 2480.2,812.5 2480.2,811.8 2480.2,811.2 
					2480.2,810.5 2480.2,809.9 2480.2,809.2 2480.2,808.6 2480.2,807.9 2480.2,807.3 2480.2,806.6 2480.2,806 2491.3,806 
					2502.4,806 2513.5,806 2524.6,806 2535.7,806 2546.8,806 2557.9,806 2569,806 2580.1,806 2591.2,806 2602.3,806 2613.4,806 
					2624.5,806 2635.6,806 2646.7,806 2657.8,806 2657.8,806.6 2657.8,807.3 2657.8,807.9 2657.8,808.6 2657.8,809.2 2657.8,809.9 
					2657.8,810.5 2657.8,811.2 2657.8,811.8 2657.8,812.5 2657.8,813.1 2657.8,813.8 2657.8,814.4 2657.8,815.1 2657.8,815.7 				
					"/>
			</g>
			<g>
				<path class="st0" d="M3103.8,722.6v-5.4v-5.4v-5.4v-5.4v-5.4v-5.4V685v-5.4v-5.4v-5.4v-5.4v-5.4v-5.4v-5.4v-5.4v-5.4l-2.4-4.2
					l-2.4-4.2l-2.4-4.2l-2.4-4.2l-2.4-4.2l-2.4-4.2l-2.4-4.2l-2.4-4.2l-2.4-4.2l-2.4-4.2l-2.4-4.2l-2.4-4.2l-2.4-4.2l-2.4-4.2
					l-2.4-4.2l-2.4-4.2l-2.8,4.2l-2.8,4.2l-2.8,4.2l-2.8,4.2l-2.8,4.2l-2.8,4.2l-2.8,4.2l-2.8,4.2l-2.8,4.2l-2.8,4.2l-2.8,4.2
					l-2.8,4.2l-2.8,4.2l-2.8,4.2l-2.8,4.2l-2.8,4.2v26.2v26.2v26.2v26.2v26.2v26.2v26.2V846v26.2v26.2v26.2v26.2v26.2v26.2v26.2
					v26.2c0.8,0,1.8,0,3,0c1.2,0,2.7,0,4.3,0s3.4,0,5.3,0s4,0,6.2,0s4.5,0,6.9,0c2.4,0,4.9,0,7.4,0s5.2,0,7.8,0c2.6,0,5.3,0,8,0
					s5.4,0,8,0s5.3,0,7.9,0s5.1,0,7.5,0s4.8,0,7,0s4.4,0,6.4,0s3.8,0,5.5,0s3.2,0,4.5,0s2.4,0,3.3,0V1037v-18.5V1000v-18.5v-18.5
					v-18.5v-18.5v-18.5v-18.5v-18.5v-18.5V834v-18.5V797v-18.5v-18.5l-1.1-2.3l-1.1-2.3l-1.1-2.3l-1.1-2.3l-1.1-2.3l-1.1-2.3
					l-1.1-2.3l-1.1-2.3l-1.1-2.3l-1.1-2.3l-1.1-2.3l-1.1-2.3l-1.1-2.3l-1.1-2.3l-1.1-2.3L3103.8,722.6z"/>
			</g>
			<g>
				<path class="st0" d="M2793.2,765.6v14.8v14.8V810v14.8v14.8v14.8v14.8v14.8v14.8v14.8v14.8v14.8v14.8v14.8v14.8v14.8
					c0,1.3,0,2.6,0,3.8s0,2.5,0,3.6c0,1.2,0,2.3,0,3.5s0,2.2,0,3.3c0,1,0,2.1,0,3s0,1.9,0,2.8s0,1.8,0,2.6s0,1.6,0,2.4s0,1.5,0,2.1
					s0,1.3,0,1.9s0,1.1,0,1.6s0,0.9,0,1.3s0,0.7,0,1s0,0.6,0,0.8s0,0.4,0,0.5s0,0.2,0,0.2h-6h-6h-6h-6h-6h-6h-6h-6h-6h-6h-6h-6h-6
					h-6h-6h-6c0,0,0-0.1,0-0.2s0-0.3,0-0.5c0-0.2,0-0.5,0-0.8s0-0.6,0-1s0-0.8,0-1.3s0-1,0-1.6c0-0.6,0-1.2,0-1.8s0-1.4,0-2.1
					s0-1.5,0-2.3s0-1.7,0-2.6c0-0.9,0-1.8,0-2.8c0-1,0-2,0-3c0-1.1,0-2.1,0-3.3s0-2.3,0-3.5s0-2.4,0-3.7c0-1.3,0-2.5,0-3.9v-17.9
					v-17.9v-17.9v-17.9v-17.9v-17.9v-17.9v-17.9v-17.9v-17.9v-17.9v-17.9V770v-17.9v-17.9v-17.9c0-0.6,0-1.1,0.1-1.6
					c0-0.5,0.1-1,0.2-1.5c0.1-0.5,0.2-1,0.3-1.4s0.2-0.9,0.4-1.4s0.3-0.9,0.5-1.3c0.2-0.4,0.4-0.8,0.6-1.2s0.4-0.7,0.7-1.1
					c0.2-0.3,0.5-0.7,0.7-1s0.5-0.6,0.8-0.9s0.6-0.6,0.9-0.8s0.6-0.5,1-0.8s0.7-0.5,1.1-0.7c0.4-0.2,0.7-0.4,1.1-0.6
					s0.8-0.4,1.2-0.6c0.4-0.2,0.8-0.3,1.3-0.5s0.9-0.3,1.3-0.4c0,0,0.1,0,0.1,0s0.1,0,0.1,0s0.1,0,0.1,0s0.1,0,0.1,0
					c0,0,0.1,0,0.1,0c0,0,0.1,0,0.1,0c0,0,0.1,0,0.1,0c0,0,0.1,0,0.1,0c0,0,0.1,0,0.1,0c0,0,0.1,0,0.1,0s0.1,0,0.1,0s0.1,0,0.1,0
					s0.1,0,0.1,0s0.1,0,0.1,0s0.1,0,0.1,0c0,0,0.1,0,0.1,0c0.2,0,0.4-0.1,0.6-0.1c0.2,0,0.4-0.1,0.6-0.1c0.2,0,0.4-0.1,0.6-0.1
					s0.4-0.1,0.6-0.1c0.2,0,0.4-0.1,0.6-0.1c0.2,0,0.4-0.1,0.6-0.1s0.4,0,0.6-0.1c0.2,0,0.4,0,0.6-0.1c0.2,0,0.4,0,0.6-0.1
					c0.2,0,0.4,0,0.6,0s0.4,0,0.7,0c0.2,0,0.4,0,0.7,0s0.4,0,0.7,0c0.2,0,0.4,0,0.7,0c0.2,0,0.5,0,0.7,0c0.2,0,0.5,0,0.7,0
					c0,0,0.1,0,0.1,0c0,0,0.1,0,0.1,0c0,0,0.1,0,0.1,0s0.1,0,0.1,0c0,0,0.1,0,0.1,0c0,0,0.1,0,0.1,0c0,0,0.1,0,0.1,0
					c0,0,0.1,0,0.1,0c0,0,0.1,0,0.1,0c0,0,0.1,0,0.1,0c0,0,0.1,0,0.1,0s0.1,0,0.1,0c0,0,0.1,0,0.1,0c0,0,0.1,0,0.1,0s0.1,0,0.1,0
					s0.1,0,0.1,0c0.2,0,0.4,0,0.6,0s0.4,0,0.6,0c0.2,0,0.4,0,0.6,0s0.4,0,0.6,0s0.4,0,0.6,0c0.2,0,0.4,0,0.6,0c0.2,0,0.4,0,0.6,0.1
					s0.4,0,0.6,0.1s0.4,0,0.6,0.1c0.2,0,0.4,0,0.6,0.1c0.2,0,0.4,0,0.6,0.1s0.4,0,0.6,0.1s0.4,0.1,0.6,0.1c0.2,0,0.4,0.1,0.6,0.1
					c0.2,0,0.4,0.1,0.6,0.1s0.4,0.1,0.6,0.1c0,0,0.1,0,0.1,0c0,0,0.1,0,0.1,0s0.1,0,0.1,0s0.1,0,0.1,0c0,0,0.1,0,0.1,0
					c0,0,0.1,0,0.1,0c0,0,0.1,0,0.1,0c0,0,0.1,0,0.1,0c0,0,0.1,0,0.1,0c0,0,0.1,0,0.1,0c0,0,0.1,0,0.1,0c0,0,0.1,0,0.1,0
					s0.1,0,0.1,0s0.1,0,0.1,0c0,0,0.1,0,0.1,0c0,0,0.1,0,0.1,0c0.2,0,0.4,0.1,0.6,0.1c0.2,0,0.4,0.1,0.6,0.1c0.2,0,0.4,0.1,0.6,0.1
					s0.4,0.1,0.6,0.1c0.2,0,0.4,0.1,0.6,0.1s0.4,0.1,0.6,0.1s0.4,0.1,0.6,0.1c0.2,0,0.4,0.1,0.6,0.1s0.4,0.1,0.6,0.1
					c0.2,0,0.4,0.1,0.6,0.1c0.2,0,0.4,0.1,0.6,0.1c0.2,0,0.4,0.1,0.6,0.1c0.2,0,0.4,0.1,0.6,0.1c0.2,0,0.4,0.1,0.6,0.1
					c0.2,0,0.4,0.1,0.6,0.1c0.2,0,0.4,0.1,0.6,0.1c0,0,0.1,0,0.1,0c0,0,0.1,0,0.1,0c0,0,0.1,0,0.1,0c0,0,0.1,0,0.1,0
					c0,0,0.1,0,0.1,0c0,0,0.1,0,0.1,0c0,0,0.1,0,0.1,0s0.1,0,0.1,0s0.1,0,0.1,0s0.1,0,0.1,0c0,0,0.1,0,0.1,0c0,0,0.1,0,0.1,0
					c0,0,0.1,0,0.1,0c0,0,0.1,0,0.1,0c0,0,0.1,0,0.1,0c0,0,0.1,0,0.1,0c0.2,0.1,0.4,0.1,0.7,0.2c0.2,0.1,0.4,0.1,0.7,0.2
					s0.4,0.1,0.7,0.2s0.4,0.1,0.7,0.2c0.2,0.1,0.4,0.1,0.7,0.2c0.2,0.1,0.4,0.1,0.7,0.2c0.2,0.1,0.4,0.1,0.6,0.2s0.4,0.1,0.6,0.2
					c0.2,0.1,0.4,0.1,0.6,0.2c0.2,0.1,0.4,0.1,0.6,0.2s0.4,0.1,0.6,0.2c0.2,0.1,0.4,0.1,0.6,0.2c0.2,0.1,0.4,0.1,0.6,0.2
					c0.2,0.1,0.4,0.1,0.6,0.2s0.4,0.1,0.6,0.2c0.2,0.1,0.4,0.1,0.6,0.2c0,0,0.1,0,0.1,0s0.1,0,0.1,0c0,0,0.1,0,0.1,0
					c0,0,0.1,0,0.1,0c0,0,0.1,0,0.1,0c0,0,0.1,0,0.1,0c0,0,0.1,0,0.1,0c0,0,0.1,0,0.1,0s0.1,0,0.1,0c0,0,0.1,0,0.1,0
					c0,0,0.1,0,0.1,0c0,0,0.1,0,0.1,0c0,0,0.1,0,0.1,0c0,0,0.1,0,0.1,0c0,0,0.1,0,0.1,0c0,0,0.1,0,0.1,0c0.3,0.1,0.5,0.2,0.8,0.2
					s0.5,0.2,0.8,0.2s0.5,0.2,0.7,0.2c0.2,0.1,0.5,0.2,0.7,0.2s0.5,0.2,0.7,0.2c0.2,0.1,0.5,0.2,0.7,0.2c0.2,0.1,0.5,0.2,0.7,0.2
					c0.2,0.1,0.4,0.1,0.7,0.2c0.2,0.1,0.4,0.1,0.6,0.2c0.2,0.1,0.4,0.1,0.6,0.2c0.2,0.1,0.4,0.1,0.6,0.2s0.4,0.1,0.6,0.2
					s0.4,0.1,0.5,0.2c0.2,0.1,0.4,0.1,0.5,0.2c0.2,0.1,0.3,0.1,0.5,0.2c0.2,0.1,0.3,0.1,0.5,0.2c0,0,0.1,0,0.1,0c0,0,0.1,0,0.1,0
					c0,0,0.1,0,0.1,0s0.1,0,0.1,0s0.1,0,0.1,0s0.1,0,0.1,0c0,0,0.1,0,0.1,0s0.1,0,0.1,0c0,0,0.1,0,0.1,0c0,0,0.1,0,0.1,0
					s0.1,0,0.1,0s0.1,0,0.1,0c0,0,0.1,0,0.1,0c0,0,0.1,0,0.1,0s0.1,0,0.1,0s0.1,0,0.1,0c0.1,0,0.2,0.1,0.3,0.1
					c0.1,0,0.2,0.1,0.3,0.1c0.1,0,0.2,0.1,0.2,0.1c0.1,0,0.2,0.1,0.2,0.1c0.1,0,0.1,0.1,0.2,0.1s0.1,0.1,0.2,0.1s0.1,0,0.2,0.1
					s0.1,0,0.2,0.1c0.1,0,0.1,0,0.1,0.1c0,0,0.1,0,0.1,0c0,0,0.1,0,0.1,0s0.1,0,0.1,0c0,0,0.1,0,0.1,0s0,0,0.1,0s0,0,0,0
					c0,0,0,0,0,0v2.3v2.3v2.3v2.3v2.3v2.3v2.3v2.3v2.3v2.3v2.3v2.3v2.3v2.3v2.3v2.3c0.2,0,0.3,0,0.5,0c0.2,0,0.3,0,0.5,0
					c0.2,0,0.3,0,0.5,0c0.2,0,0.3,0,0.5,0s0.3,0,0.5,0s0.3,0,0.5,0c0.2,0,0.3,0,0.5,0c0.2,0,0.3,0,0.5,0.1s0.3,0,0.5,0.1
					c0.2,0,0.3,0,0.5,0.1c0.2,0,0.3,0,0.5,0.1c0.2,0,0.3,0.1,0.5,0.1c0.2,0,0.3,0.1,0.5,0.1c0.2,0,0.3,0.1,0.5,0.1s0.3,0.1,0.5,0.1
					c0.2,0,0.3,0.1,0.5,0.1c0,0,0.1,0,0.1,0s0.1,0,0.1,0s0.1,0,0.1,0c0,0,0.1,0,0.1,0c0,0,0.1,0,0.1,0c0,0,0.1,0,0.1,0s0.1,0,0.1,0
					c0,0,0.1,0,0.1,0c0,0,0.1,0,0.1,0c0,0,0.1,0,0.1,0c0,0,0.1,0,0.1,0s0.1,0,0.1,0c0,0,0.1,0,0.1,0c0,0,0.1,0,0.1,0
					c0,0,0.1,0,0.1,0c0,0,0.1,0,0.1,0c0.5,0.1,0.9,0.3,1.3,0.4s0.9,0.3,1.3,0.5s0.8,0.4,1.2,0.6s0.8,0.4,1.1,0.6s0.7,0.5,1.1,0.7
					s0.7,0.5,1,0.8c0.3,0.3,0.6,0.6,0.9,0.8c0.3,0.3,0.6,0.6,0.8,0.9c0.3,0.3,0.5,0.7,0.7,1s0.5,0.7,0.7,1.1s0.4,0.8,0.6,1.2
					c0.2,0.4,0.3,0.8,0.5,1.3c0.1,0.4,0.3,0.9,0.4,1.4s0.2,0.9,0.3,1.4c0.1,0.5,0.1,1,0.2,1.5
					C2793.2,764.5,2793.2,765.1,2793.2,765.6z"/>
			</g>
			<g>
				<polygon class="st0" points="2449.6,1069 2449.6,1056.6 2449.6,1044.1 2449.6,1031.6 2449.6,1019.2 2449.6,1006.7 2449.6,994.3 
					2449.6,981.8 2449.6,969.3 2449.6,956.9 2449.6,944.4 2449.6,932 2449.6,919.5 2449.6,907 2449.6,894.6 2449.6,882.1 
					2449.6,869.7 2444.1,869.7 2438.7,869.7 2433.3,869.7 2427.8,869.7 2422.4,869.7 2417,869.7 2411.5,869.7 2406.1,869.7 
					2400.7,869.7 2395.3,869.7 2389.8,869.7 2384.4,869.7 2379,869.7 2373.5,869.7 2368.1,869.7 2362.7,869.7 2362.7,866.8 
					2362.7,864 2362.7,861.1 2362.7,858.3 2362.7,855.4 2362.7,852.6 2362.7,849.8 2362.7,846.9 2362.7,844.1 2362.7,841.2 
					2362.7,838.4 2362.7,835.5 2362.7,832.7 2362.7,829.8 2362.7,827 2362.7,824.1 2354.4,824.1 2346.1,824.1 2337.9,824.1 
					2329.6,824.1 2321.3,824.1 2313,824.1 2304.7,824.1 2296.5,824.1 2288.2,824.1 2279.9,824.1 2271.6,824.1 2263.4,824.1 
					2255.1,824.1 2246.8,824.1 2238.5,824.1 2230.3,824.1 2230.3,839.4 2230.3,854.7 2230.3,870.1 2230.3,885.4 2230.3,900.7 
					2230.3,916 2230.3,931.3 2230.3,946.6 2230.3,961.9 2230.3,977.2 2230.3,992.5 2230.3,1007.8 2230.3,1023.1 2230.3,1038.4 
					2230.3,1053.7 2230.3,1069 2244,1069 2257.7,1069 2271.4,1069 2285.1,1069 2298.8,1069 2312.5,1069 2326.2,1069 2339.9,1069 
					2353.6,1069 2367.3,1069 2381,1069 2394.7,1069 2408.4,1069 2422.1,1069 2435.8,1069 				"/>
				<polygon class="st0" points="2355.6,827.8 2348.2,827.8 2340.9,827.8 2333.5,827.8 2326.2,827.8 2318.9,827.8 2311.5,827.8 
					2304.2,827.8 2296.8,827.8 2289.5,827.8 2282.2,827.8 2274.8,827.8 2267.5,827.8 2260.1,827.8 2252.8,827.8 2245.5,827.8 
					2238.1,827.8 2238.1,825.4 2238.1,823.1 2238.1,820.7 2238.1,818.4 2238.1,816 2238.1,813.7 2238.1,811.3 2238.1,809 
					2238.1,806.7 2238.1,804.3 2238.1,802 2238.1,799.6 2238.1,797.3 2238.1,794.9 2238.1,792.6 2238.1,790.2 2245.5,790.2 
					2252.8,790.2 2260.1,790.2 2267.5,790.2 2274.8,790.2 2282.2,790.2 2289.5,790.2 2296.8,790.2 2304.2,790.2 2311.5,790.2 
					2318.9,790.2 2326.2,790.2 2333.5,790.2 2340.9,790.2 2348.2,790.2 2355.6,790.2 2355.6,792.6 2355.6,794.9 2355.6,797.3 
					2355.6,799.6 2355.6,802 2355.6,804.3 2355.6,806.7 2355.6,809 2355.6,811.3 2355.6,813.7 2355.6,816 2355.6,818.4 
					2355.6,820.7 2355.6,823.1 2355.6,825.4 				"/>
				<polygon class="st0" points="2443.5,872.1 2437.9,872.1 2432.4,872.1 2426.9,872.1 2421.4,872.1 2415.9,872.1 2410.4,872.1 
					2404.9,872.1 2399.4,872.1 2393.8,872.1 2388.3,872.1 2382.8,872.1 2377.3,872.1 2371.8,872.1 2366.3,872.1 2360.8,872.1 
					2355.3,872.1 2355.3,870.5 2355.3,869 2355.3,867.4 2355.3,865.8 2355.3,864.3 2355.3,862.7 2355.3,861.1 2355.3,859.5 
					2355.3,858 2355.3,856.4 2355.3,854.8 2355.3,853.2 2355.3,851.7 2355.3,850.1 2355.3,848.5 2355.3,846.9 2360.8,846.9 
					2366.3,846.9 2371.8,846.9 2377.3,846.9 2382.8,846.9 2388.3,846.9 2393.8,846.9 2399.4,846.9 2404.9,846.9 2410.4,846.9 
					2415.9,846.9 2421.4,846.9 2426.9,846.9 2432.4,846.9 2437.9,846.9 2443.5,846.9 2443.5,848.5 2443.5,850.1 2443.5,851.7 
					2443.5,853.2 2443.5,854.8 2443.5,856.4 2443.5,858 2443.5,859.5 2443.5,861.1 2443.5,862.7 2443.5,864.3 2443.5,865.8 
					2443.5,867.4 2443.5,869 2443.5,870.5 				"/>
			</g>
			<g>
				<polygon class="st0" points="1860.9,893.3 1867.9,894.3 1874.8,895.3 1881.7,896.3 1888.6,897.4 1895.6,898.4 1902.5,899.4 
					1909.4,900.4 1916.4,901.4 1923.3,902.4 1930.2,903.4 1937.1,904.5 1944.1,905.5 1951,906.5 1957.9,907.5 1964.9,908.5 
					1971.8,909.5 1971.8,905.7 1971.8,901.8 1971.8,898 1971.8,894.1 1971.8,890.3 1971.8,886.4 1971.8,882.6 1971.8,878.7 
					1971.8,874.9 1971.8,871 1971.8,867.2 1971.8,863.3 1971.8,859.4 1971.8,855.6 1971.8,851.7 1971.8,847.9 1964.9,848.5 
					1957.9,849.2 1951,849.8 1944.1,850.4 1937.1,851 1930.2,851.7 1923.3,852.3 1916.4,852.9 1909.4,853.6 1902.5,854.2 
					1895.6,854.8 1888.6,855.4 1881.7,856.1 1874.8,856.7 1867.9,857.3 1860.9,858 1860.9,860.2 1860.9,862.4 1860.9,864.6 
					1860.9,866.8 1860.9,869 1860.9,871.2 1860.9,873.4 1860.9,875.6 1860.9,877.8 1860.9,880.1 1860.9,882.3 1860.9,884.5 
					1860.9,886.7 1860.9,888.9 1860.9,891.1 				"/>
				<polygon class="st0" points="1959.6,825.2 1959.6,826.8 1959.6,828.5 1959.6,830.1 1959.6,831.8 1959.6,833.4 1959.6,835.1 
					1959.6,836.7 1959.6,838.4 1959.6,840 1959.6,841.7 1959.6,843.3 1959.6,845 1959.6,846.6 1959.6,848.2 1959.6,849.9 
					1959.6,851.5 1954.2,852 1948.8,852.4 1943.4,852.8 1938,853.2 1932.6,853.6 1927.2,854.1 1921.8,854.5 1916.4,854.9 
					1910.9,855.3 1905.5,855.7 1900.1,856.1 1894.7,856.6 1889.3,857 1883.9,857.4 1878.5,857.8 1873.1,858.2 1873.1,856.8 
					1873.1,855.4 1873.1,853.9 1873.1,852.5 1873.1,851.1 1873.1,849.6 1873.1,848.2 1873.1,846.7 1873.1,845.3 1873.1,843.9 
					1873.1,842.4 1873.1,841 1873.1,839.6 1873.1,838.1 1873.1,836.7 1873.1,835.3 1878.5,834.6 1883.9,834 1889.3,833.4 
					1894.7,832.7 1900.1,832.1 1905.5,831.5 1910.9,830.9 1916.4,830.2 1921.8,829.6 1927.2,829 1932.6,828.3 1938,827.7 
					1943.4,827.1 1948.8,826.4 1954.2,825.8 				"/>
				<polygon class="st0" points="1992.9,1069 1992.9,1058.7 1992.9,1048.4 1992.9,1038.1 1992.9,1027.8 1992.9,1017.5 
					1992.9,1007.2 1992.9,996.9 1992.9,986.6 1992.9,976.3 1992.9,966 1992.9,955.7 1992.9,945.4 1992.9,935.1 1992.9,924.8 
					1992.9,914.5 1992.9,904.2 1983.3,902.7 1973.7,901.2 1964.2,899.6 1954.6,898.1 1945.1,896.6 1935.5,895.1 1925.9,893.6 
					1916.4,892 1906.8,890.5 1897.2,889 1887.7,887.5 1878.1,886 1868.5,884.4 1859,882.9 1849.4,881.4 1839.9,879.9 1839.9,891.7 
					1839.9,903.5 1839.9,915.3 1839.9,927.2 1839.9,939 1839.9,950.8 1839.9,962.6 1839.9,974.5 1839.9,986.3 1839.9,998.1 
					1839.9,1009.9 1839.9,1021.7 1839.9,1033.6 1839.9,1045.4 1839.9,1057.2 1839.9,1069 1849.4,1069 1859,1069 1868.5,1069 
					1878.1,1069 1887.7,1069 1897.2,1069 1906.8,1069 1916.4,1069 1925.9,1069 1935.5,1069 1945.1,1069 1954.6,1069 1964.2,1069 
					1973.7,1069 1983.3,1069 				"/>
			</g>
			<g>
				<polygon class="st0" points="2987.7,915.7 2987.7,923.6 2987.7,931.5 2987.7,939.3 2987.7,947.2 2987.7,955 2987.7,962.9 
					2987.7,970.7 2987.7,978.6 2987.7,986.5 2987.7,994.3 2987.7,1002.2 2987.7,1010 2987.7,1017.9 2987.7,1025.7 2987.7,1033.6 
					2987.7,1041.5 2974.1,1041.5 2960.5,1041.5 2946.9,1041.5 2933.3,1041.5 2919.7,1041.5 2906.1,1041.5 2892.5,1041.5 
					2878.9,1041.5 2865.3,1041.5 2851.7,1041.5 2838.1,1041.5 2824.5,1041.5 2810.9,1041.5 2797.3,1041.5 2783.7,1041.5 
					2770.1,1041.5 2770.1,1033.6 2770.1,1025.7 2770.1,1017.9 2770.1,1010 2770.1,1002.2 2770.1,994.3 2770.1,986.5 2770.1,978.6 
					2770.1,970.7 2770.1,962.9 2770.1,955 2770.1,947.2 2770.1,939.3 2770.1,931.5 2770.1,923.6 2770.1,915.7 2773.9,913.9 
					2777.8,912 2781.6,910.1 2785.4,908.3 2789.3,906.4 2793.1,904.5 2796.9,902.6 2800.8,900.8 2804.6,898.9 2808.5,897 
					2812.3,895.1 2816.1,893.3 2820,891.4 2823.8,889.5 2827.6,887.7 2831.5,885.8 2841.2,887.7 2851,889.5 2860.8,891.4 
					2870.5,893.3 2880.3,895.1 2890.1,897 2899.8,898.9 2909.6,900.8 2919.4,902.6 2929.1,904.5 2938.9,906.4 2948.7,908.3 
					2958.4,910.1 2968.2,912 2978,913.9 				"/>
				<polygon class="st0" points="2956.3,871.3 2956.3,873.8 2956.3,876.2 2956.3,878.7 2956.3,881.1 2956.3,883.6 2956.3,886 
					2956.3,888.5 2956.3,890.9 2956.3,893.4 2956.3,895.8 2956.3,898.3 2956.3,900.7 2956.3,903.2 2956.3,905.6 2956.3,908.1 
					2956.3,910.5 2957.9,911.2 2959.5,911.9 2961.1,912.6 2962.7,913.3 2964.3,914 2965.9,914.7 2967.5,915.4 2969,916 
					2970.6,916.7 2972.2,917.4 2973.8,918.1 2975.4,918.8 2977,919.5 2978.6,920.2 2980.2,920.9 2981.8,921.6 2981.8,918.4 
					2981.8,915.3 2981.8,912.1 2981.8,909 2981.8,905.9 2981.8,902.7 2981.8,899.6 2981.8,896.4 2981.8,893.3 2981.8,890.2 
					2981.8,887 2981.8,883.9 2981.8,880.8 2981.8,877.6 2981.8,874.5 2981.8,871.3 2980.2,871.3 2978.6,871.3 2977,871.3 
					2975.4,871.3 2973.8,871.3 2972.2,871.3 2970.6,871.3 2969,871.3 2967.5,871.3 2965.9,871.3 2964.3,871.3 2962.7,871.3 
					2961.1,871.3 2959.5,871.3 2957.9,871.3 				"/>
			</g>
			<g>
				<polygon class="st0" points="2204.6,1069 2204.6,1057.9 2204.6,1046.8 2204.6,1035.7 2204.6,1024.6 2204.6,1013.4 
					2204.6,1002.3 2204.6,991.2 2204.6,980.1 2204.6,969 2204.6,957.8 2204.6,946.7 2204.6,935.6 2204.6,924.5 2204.6,913.4 
					2204.6,902.3 2204.6,891.1 2203.9,891.1 2203.1,891.1 2202.4,891.1 2201.7,891.1 2200.9,891.1 2200.2,891.1 2199.4,891.1 
					2198.7,891.1 2197.9,891.1 2197.2,891.1 2196.4,891.1 2195.7,891.1 2195,891.1 2194.2,891.1 2193.5,891.1 2192.7,891.1 
					2192.3,889.5 2191.8,888 2191.3,886.4 2190.8,884.8 2190.4,883.2 2189.9,881.6 2189.4,880 2189,878.4 2188.5,876.8 2188,875.2 
					2187.6,873.6 2187.1,872 2186.6,870.4 2186.1,868.9 2185.7,867.3 2185.2,865.7 2177.9,865.7 2170.6,865.7 2163.2,865.7 
					2155.9,865.7 2148.6,865.7 2141.3,865.7 2134,865.7 2126.6,865.7 2119.3,865.7 2112,865.7 2104.7,865.7 2097.4,865.7 
					2090,865.7 2082.7,865.7 2075.4,865.7 2068.1,865.7 2067.6,867.3 2067.1,868.9 2066.7,870.4 2066.2,872 2065.7,873.6 
					2065.3,875.2 2064.8,876.8 2064.3,878.4 2063.9,880 2063.4,881.6 2062.9,883.2 2062.4,884.8 2062,886.4 2061.5,888 2061,889.5 
					2060.6,891.1 2059.8,891.1 2059.1,891.1 2058.3,891.1 2057.6,891.1 2056.8,891.1 2056.1,891.1 2055.4,891.1 2054.6,891.1 
					2053.9,891.1 2053.1,891.1 2052.4,891.1 2051.6,891.1 2050.9,891.1 2050.1,891.1 2049.4,891.1 2048.7,891.1 2048.7,902.3 
					2048.7,913.4 2048.7,924.5 2048.7,935.6 2048.7,946.7 2048.7,957.8 2048.7,969 2048.7,980.1 2048.7,991.2 2048.7,1002.3 
					2048.7,1013.4 2048.7,1024.6 2048.7,1035.7 2048.7,1046.8 2048.7,1057.9 2048.7,1069 2058.4,1069 2068.1,1069 2077.9,1069 
					2087.6,1069 2097.4,1069 2107.1,1069 2116.9,1069 2126.6,1069 2136.4,1069 2146.1,1069 2155.9,1069 2165.6,1069 2175.4,1069 
					2185.1,1069 2194.9,1069 				"/>
			</g>
			<g>
				<path class="st0" d="M3163.9,940.3v-2.4v-2.4v-2.4v-2.4v-2.4v-2.4v-2.4v-2.4v-2.4v-2.4v-2.4V911v-2.4v-2.4v-2.4v-2.4l-1.9-1.1
					l-1.9-1.1l-1.9-1.1l-1.9-1.1l-1.9-1.1l-1.9-1.1l-1.9-1.1l-1.9-1.1l-1.9-1.1l-1.9-1.1l-1.9-1.1l-1.9-1.1l-1.9-1.1l-1.9-1.1
					l-1.9-1.1l-1.9-1.1l-1.9,0.4l-1.9,0.4l-1.9,0.4l-1.9,0.4l-1.9,0.4l-1.9,0.4l-1.9,0.4l-1.9,0.4l-1.9,0.4l-1.9,0.4l-1.9,0.4
					l-1.9,0.4l-1.9,0.4l-1.9,0.4l-1.9,0.4l-1.9,0.4v2.1v2.1v2.1v2.1v2.1v2.1v2.1v2.1v2.1v2.1v2.1v2.1v2.1v2.1v2.1v2.1l-1.6,0.5
					l-1.6,0.5l-1.6,0.5l-1.6,0.5l-1.6,0.5l-1.6,0.5l-1.6,0.5l-1.6,0.5l-1.6,0.5l-1.6,0.5l-1.6,0.5l-1.6,0.5l-1.6,0.5l-1.6,0.5
					l-1.6,0.5l-1.6,0.5v6.7v6.7v6.7v6.7v6.7v6.7v6.7v6.7v6.7v6.7v6.7v6.7v6.7v6.7v6.7v6.7c0.8,0,1.9,0,3.4,0s3.2,0,5.2,0
					c2,0,4.3,0,6.8,0s5.2,0,8.1,0s5.9,0,9.1,0s6.5,0,9.9,0c3.4,0,6.9,0,10.4,0s7.1,0,10.7,0s7.1,0,10.7,0c3.5,0,7,0,10.4,0
					c3.4,0,6.7,0,9.9,0s6.2,0,9.1,0c2.9,0,5.6,0,8,0s4.7,0,6.7,0c2,0,3.7,0,5.2,0s2.6,0,3.3,0v-5.8v-5.8v-5.8v-5.8v-5.8v-5.8v-5.8
					v-5.8V989v-5.8v-5.8v-5.8v-5.8v-5.8v-5.8v-5.8l-2.5-0.5l-2.5-0.5l-2.5-0.5l-2.5-0.5l-2.5-0.5l-2.5-0.5l-2.5-0.5l-2.5-0.5
					l-2.5-0.5l-2.5-0.5l-2.5-0.5l-2.5-0.5l-2.5-0.5l-2.5-0.5l-2.5-0.5L3163.9,940.3z"/>
			</g>
			<polygon class="st0" points="3459.8,1330.6 3344.6,1330.6 3229.4,1330.6 3114.1,1330.6 2998.9,1330.6 2883.6,1330.6 
				2768.4,1330.6 2653.1,1330.6 2537.9,1330.6 2422.6,1330.6 2307.4,1330.6 2192.1,1330.6 2076.9,1330.6 1961.7,1330.6 
				1846.4,1330.6 1731.2,1330.6 1615.9,1330.6 1615.9,1311.3 1615.9,1291.9 1615.9,1272.5 1615.9,1253.2 1615.9,1233.8 
				1615.9,1214.4 1615.9,1195 1615.9,1175.7 1615.9,1156.3 1615.9,1136.9 1615.9,1117.6 1615.9,1098.2 1615.9,1078.8 1615.9,1059.5 
				1615.9,1040.1 1615.9,1020.7 1731.2,1020.7 1846.4,1020.7 1961.7,1020.7 2076.9,1020.7 2192.1,1020.7 2307.4,1020.7 
				2422.6,1020.7 2537.9,1020.7 2653.1,1020.7 2768.4,1020.7 2883.6,1020.7 2998.9,1020.7 3114.1,1020.7 3229.4,1020.7 
				3344.6,1020.7 3459.8,1020.7 3459.8,1040.1 3459.8,1059.5 3459.8,1078.8 3459.8,1098.2 3459.8,1117.6 3459.8,1136.9 
				3459.8,1156.3 3459.8,1175.7 3459.8,1195 3459.8,1214.4 3459.8,1233.8 3459.8,1253.2 3459.8,1272.5 3459.8,1291.9 3459.8,1311.3 
							"/>
			<polygon class="st0" points="1872.3,974.2 1866.9,974.2 1861.4,974.2 1856,974.2 1850.6,974.2 1845.1,974.2 1839.7,974.2 
				1834.2,974.2 1828.8,974.2 1823.3,974.2 1817.9,974.2 1812.4,974.2 1807,974.2 1801.6,974.2 1796.1,974.2 1790.7,974.2 
				1785.2,974.2 1785.2,978.3 1785.2,982.4 1785.2,986.4 1785.2,990.5 1785.2,994.6 1785.2,998.6 1785.2,1002.7 1785.2,1006.8 
				1785.2,1010.8 1785.2,1014.9 1785.2,1019 1785.2,1023 1785.2,1027.1 1785.2,1031.1 1785.2,1035.2 1785.2,1039.3 1790.7,1039.3 
				1796.1,1039.3 1801.6,1039.3 1807,1039.3 1812.4,1039.3 1817.9,1039.3 1823.3,1039.3 1828.8,1039.3 1834.2,1039.3 1839.7,1039.3 
				1845.1,1039.3 1850.6,1039.3 1856,1039.3 1861.4,1039.3 1866.9,1039.3 1872.3,1039.3 1872.3,1035.2 1872.3,1031.1 1872.3,1027.1 
				1872.3,1023 1872.3,1019 1872.3,1014.9 1872.3,1010.8 1872.3,1006.8 1872.3,1002.7 1872.3,998.6 1872.3,994.6 1872.3,990.5 
				1872.3,986.4 1872.3,982.4 1872.3,978.3 			"/>
			<polygon class="st0" points="2245.3,1044.2 2242,1044.2 2238.7,1044.2 2235.4,1044.2 2232.1,1044.2 2228.8,1044.2 2225.5,1044.2 
				2222.2,1044.2 2218.9,1044.2 2215.6,1044.2 2212.3,1044.2 2209,1044.2 2205.7,1044.2 2202.4,1044.2 2199.1,1044.2 2195.8,1044.2 
				2192.5,1044.2 2192.5,1040 2192.5,1035.7 2192.5,1031.5 2192.5,1027.3 2192.5,1023.1 2192.5,1018.9 2192.5,1014.7 2192.5,1010.4 
				2192.5,1006.2 2192.5,1002 2192.5,997.8 2192.5,993.6 2192.5,989.4 2192.5,985.1 2192.5,980.9 2192.5,976.7 2195.8,976.7 
				2199.1,976.7 2202.4,976.7 2205.7,976.7 2209,976.7 2212.3,976.7 2215.6,976.7 2218.9,976.7 2222.2,976.7 2225.5,976.7 
				2228.8,976.7 2232.1,976.7 2235.4,976.7 2238.7,976.7 2242,976.7 2245.3,976.7 2245.3,980.9 2245.3,985.1 2245.3,989.4 
				2245.3,993.6 2245.3,997.8 2245.3,1002 2245.3,1006.2 2245.3,1010.4 2245.3,1014.7 2245.3,1018.9 2245.3,1023.1 2245.3,1027.3 
				2245.3,1031.5 2245.3,1035.7 2245.3,1040 			"/>
			<polygon class="st0" points="2521.3,1004.9 2515.2,1004.9 2509.1,1004.9 2502.9,1004.9 2496.8,1004.9 2490.6,1004.9 
				2484.5,1004.9 2478.4,1004.9 2472.2,1004.9 2466.1,1004.9 2460,1004.9 2453.8,1004.9 2447.7,1004.9 2441.6,1004.9 2435.4,1004.9 
				2429.3,1004.9 2423.2,1004.9 2423.2,1007.1 2423.2,1009.4 2423.2,1011.6 2423.2,1013.8 2423.2,1016 2423.2,1018.3 2423.2,1020.5 
				2423.2,1022.7 2423.2,1024.9 2423.2,1027.2 2423.2,1029.4 2423.2,1031.6 2423.2,1033.8 2423.2,1036.1 2423.2,1038.3 
				2423.2,1040.5 2429.3,1040.5 2435.4,1040.5 2441.6,1040.5 2447.7,1040.5 2453.8,1040.5 2460,1040.5 2466.1,1040.5 2472.2,1040.5 
				2478.4,1040.5 2484.5,1040.5 2490.6,1040.5 2496.8,1040.5 2502.9,1040.5 2509.1,1040.5 2515.2,1040.5 2521.3,1040.5 
				2521.3,1038.3 2521.3,1036.1 2521.3,1033.8 2521.3,1031.6 2521.3,1029.4 2521.3,1027.2 2521.3,1024.9 2521.3,1022.7 
				2521.3,1020.5 2521.3,1018.3 2521.3,1016 2521.3,1013.8 2521.3,1011.6 2521.3,1009.4 2521.3,1007.1 			"/>
			<polygon class="st0" points="2715.2,1074.8 2710.3,1074.8 2705.5,1074.8 2700.7,1074.8 2695.8,1074.8 2691,1074.8 2686.2,1074.8 
				2681.3,1074.8 2676.5,1074.8 2671.7,1074.8 2666.9,1074.8 2662,1074.8 2657.2,1074.8 2652.4,1074.8 2647.5,1074.8 2642.7,1074.8 
				2637.9,1074.8 2637.9,1064.8 2637.9,1054.8 2637.9,1044.7 2637.9,1034.7 2637.9,1024.6 2637.9,1014.6 2637.9,1004.5 
				2637.9,994.5 2637.9,984.4 2637.9,974.4 2637.9,964.4 2637.9,954.3 2637.9,944.3 2637.9,934.2 2637.9,924.2 2637.9,914.1 
				2642.7,914.1 2647.5,914.1 2652.4,914.1 2657.2,914.1 2662,914.1 2666.9,914.1 2671.7,914.1 2676.5,914.1 2681.3,914.1 
				2686.2,914.1 2691,914.1 2695.8,914.1 2700.7,914.1 2705.5,914.1 2710.3,914.1 2715.2,914.1 2715.2,924.2 2715.2,934.2 
				2715.2,944.3 2715.2,954.3 2715.2,964.4 2715.2,974.4 2715.2,984.4 2715.2,994.5 2715.2,1004.5 2715.2,1014.6 2715.2,1024.6 
				2715.2,1034.7 2715.2,1044.7 2715.2,1054.8 2715.2,1064.8 			"/>
			<polygon class="st0" points="3051.3,1000 3046.2,1000 3041,1000 3035.9,1000 3030.8,1000 3025.6,1000 3020.5,1000 3015.3,1000 
				3010.2,1000 3005.1,1000 2999.9,1000 2994.8,1000 2989.7,1000 2984.5,1000 2979.4,1000 2974.2,1000 2969.1,1000 2969.1,1002.8 
				2969.1,1005.7 2969.1,1008.5 2969.1,1011.4 2969.1,1014.2 2969.1,1017 2969.1,1019.9 2969.1,1022.7 2969.1,1025.5 2969.1,1028.4 
				2969.1,1031.2 2969.1,1034.1 2969.1,1036.9 2969.1,1039.7 2969.1,1042.6 2969.1,1045.4 2974.2,1045.4 2979.4,1045.4 
				2984.5,1045.4 2989.7,1045.4 2994.8,1045.4 2999.9,1045.4 3005.1,1045.4 3010.2,1045.4 3015.3,1045.4 3020.5,1045.4 
				3025.6,1045.4 3030.8,1045.4 3035.9,1045.4 3041,1045.4 3046.2,1045.4 3051.3,1045.4 3051.3,1042.6 3051.3,1039.7 3051.3,1036.9 
				3051.3,1034.1 3051.3,1031.2 3051.3,1028.4 3051.3,1025.5 3051.3,1022.7 3051.3,1019.9 3051.3,1017 3051.3,1014.2 3051.3,1011.4 
				3051.3,1008.5 3051.3,1005.7 3051.3,1002.8 			"/>
			<polygon class="st0" points="3327.3,984.1 3323.7,984.1 3320.1,984.1 3316.5,984.1 3312.9,984.1 3309.3,984.1 3305.7,984.1 
				3302.1,984.1 3298.5,984.1 3294.9,984.1 3291.3,984.1 3287.7,984.1 3284.1,984.1 3280.5,984.1 3276.9,984.1 3273.3,984.1 
				3269.7,984.1 3269.7,987.4 3269.7,990.8 3269.7,994.2 3269.7,997.6 3269.7,1000.9 3269.7,1004.3 3269.7,1007.7 3269.7,1011.1 
				3269.7,1014.4 3269.7,1017.8 3269.7,1021.2 3269.7,1024.5 3269.7,1027.9 3269.7,1031.3 3269.7,1034.7 3269.7,1038 3273.3,1038 
				3276.9,1038 3280.5,1038 3284.1,1038 3287.7,1038 3291.3,1038 3294.9,1038 3298.5,1038 3302.1,1038 3305.7,1038 3309.3,1038 
				3312.9,1038 3316.5,1038 3320.1,1038 3323.7,1038 3327.3,1038 3327.3,1034.7 3327.3,1031.3 3327.3,1027.9 3327.3,1024.5 
				3327.3,1021.2 3327.3,1017.8 3327.3,1014.4 3327.3,1011.1 3327.3,1007.7 3327.3,1004.3 3327.3,1000.9 3327.3,997.6 3327.3,994.2 
				3327.3,990.8 3327.3,987.4 			"/>
		</g>
	</g>
</g>
</svg>
