<?xml version="1.0" encoding="utf-8"?>
<!-- Generator: Adobe Illustrator 23.1.0, SVG Export Plug-In . SVG Version: 6.00 Build 0)  -->
<svg version="1.1" id="Isolation_Mode" xmlns="http://www.w3.org/2000/svg" xmlns:xlink="http://www.w3.org/1999/xlink" x="0px"
	 y="0px" viewBox="0 0 3421 1316" style="enable-background:new 0 0 3421 1316;" xml:space="preserve">
<style type="text/css">
	.st0{fill:url(#SVGID_1_);}
</style>
<linearGradient id="SVGID_1_" gradientUnits="userSpaceOnUse" x1="1709.7374" y1="1321.9387" x2="1712.8679" y2="661.4169">
	<stop  offset="0" style="stop-color:#162037;stop-opacity:0"/>
	<stop  offset="1" style="stop-color:#162037"/>
</linearGradient>
<path class="st0" d="M3401.6,1006.1v-4.4v-13.2v-13.2v-13.2V949v-13.2v-13.2v-13.2v-13.2v-13.2v-13.2v-13.2v-13.2h-5.4v-0.7v-0.9
	V841v-0.9v-0.9v-0.9v-0.9v-0.9v-0.9v-0.9v-0.9v-0.9v-0.9v-0.9h-5.4h-0.7v-0.3v-0.9v-0.9v-0.9v-0.9v-0.9v-0.9v-0.9v-0.9V822v-0.9
	v-0.9v-0.9v-0.9h-4.6h-4.6h-4.6h-4.6h-4.6h-4.6h-4.6h-4.6h-4.6h-4.6h-4.6h-4.6h-4.6h-4.6h-4.6h-4.6v0.9v0.9v0.9v0.9v0.9v0.9v0.9v0.9
	v0.9v0.9v0.9v0.9v0.9v0.3h-0.7h-5.4v0.9v0.9v0.9v0.9v0.9v0.9v0.9v0.9v0.9v0.9v0.9v0.9v0.9v0.7h-0.3h-6.1v13.2v13.2v13.2v13.2v13.2
	v13.2v13.2V949v13.2v7.3h-1.6h-3.6h-3.6h-3.6h-3.6h-3.6h-0.9v-9.2v-18.8v-18.8v-18.8v-18.8V866v-18.8v-18.8v-18.8v-18.8v-18.8v-18.8
	l-6,0.9l-4.7,0.7v-0.1v-2.8v-2.8v-2.8V743v-2.8v-2.8v-2.8v-2.8v-2.8v-2.8l-4.7,0.9l-4.7,0.9l-4.7,0.9l-4.7,0.9l-4.7,0.9l-4.7,0.9
	l-4.7,0.9l-4.7,0.9l-4.7,0.9l-4.7,0.9l-4.7,0.9l-4.7,0.9l-4.7,0.9l-4.7,0.9l-4.7,0.9l-4.7,0.9v2v2v2v2v2v2v2v2v2v2v2v2v1.9l-4.7,0.7
	l-6,0.9v18v18v18v18v18v18v18v18v18v1.5l-0.6-0.1l-2.5-0.5l-2.5-0.5l-2.5-0.5l-2.5-0.5l-2.5-0.5l-2.5-0.5l-2.5-0.5l-2.5-0.5
	l-2.5-0.5v-2.4v-2.4v-2.4v-2.4v-2.4V911v-2.4v-2.4v-2.4v-2.4v-2.4v-2.4v-2.4v-2.4v-2.4v-2.4l-1.9-1.1l-1.9-1.1l-1.9-1.1l-1.9-1.1
	l-1.9-1.1l-1.9-1.1l-1.9-1.1l-1.9-1.1l-1.9-1.1l-1.9-1.1l-1.9-1.1l-1.9-1.1l-1.9-1.1l-1.9-1.1l-1.9-1.1l-1.9-1.1l-1.9,0.4l-1.9,0.4
	l-1.9,0.4l-1.9,0.4l-1.9,0.4l-1.9,0.4l-1,0.2v-16.4v-18.5v-18.5v-18.5v-18.5V764v-18.5l-1.1-2.3l-1.1-2.3l-1.1-2.3l-1.1-2.3
	l-1.1-2.3l-1.1-2.3l-1.1-2.3l-1.1-2.3l-1.1-2.3l-1.1-2.3l-1.1-2.3l-1.1-2.3l-1.1-2.3l-1.1-2.3l-1.1-2.3l-1.1-2.3v-5.4v-5.4v-5.4
	v-5.4v-5.4v-5.4v-5.4V665v-5.4v-5.4v-5.4v-5.4v-5.4v-5.4v-5.4v-5.4l-2.4-4.2l-2.4-4.2l-2.4-4.2l-2.4-4.2l-2.4-4.2l-2.4-4.2l-2.4-4.2
	l-2.4-4.2l-2.4-4.2l-2.4-4.2l-2.4-4.2l-2.4-4.2l-2.4-4.2l-2.4-4.2l-2.4-4.2l-2.4-4.2l-2.8,4.2l-2.8,4.2l-2.8,4.2l-2.8,4.2l-2.8,4.2
	l-2.8,4.2l-2.8,4.2l-2.8,4.2l-2.8,4.2l-2.8,4.2l-2.8,4.2l-2.8,4.2l-2.8,4.2l-2.8,4.2l-2.8,4.2l-2.8,4.2v26.2v26.2v26.2v26.2v26.2
	V779v26.2v26.2v26.2v26.2v26.2v26.2v26.2v23.1h-1.2h-5.1h-5.1h-5.1h-5.1h-5.1h-5.1h-1.9v-5.7v-7.9V964v-7.9v-7.9v-7.9v-7.9v-7.9
	v-7.9V909v-7.9l-6-1.1v-2.5v-3.1v-3.1v-3.1V885v-3.1v-3.1v-3.1v-3.1v-3.1v-3.1V863v-3.1v-3.1h-1.6h-1.6h-1.6h-1.6h-1.6h-1.6h-1.6
	h-1.6h-1.6h-1.6h-1.6h-1.6h-1.6h-1.6h-1.6h-1.6v2.5v2.5v2.5v2.5v2.5v2.5v2.5v2.5v2.5v2.5v2.5v2.5v2.5v2.5v2.5v1.6l-7.7-1.5l-9.8-1.9
	l-9.8-1.9l-9.8-1.9l-9.8-1.9l-9.8-1.9l-9.8-1.9l-9.8-1.9l-9.8-1.9l-9.8-1.9l-9.8-1.9l-9.8-1.9l-9.8-1.9l-3.8,1.9l-3.8,1.9l-3.8,1.9
	l-3.8,1.9l-3.8,1.9l-3.8,1.9l-3.8,1.9l-3.8,1.9l-3.8,1.9l-3.7,1.8v-5.7v-14.8v-14.8v-14.8v-14.8v-14.8v-14.8v-14.8v-14.8V751
	c0-0.6,0-1.1,0-1.6c0-0.5-0.1-1-0.2-1.5c-0.1-0.5-0.2-1-0.3-1.4s-0.2-0.9-0.4-1.4c-0.1-0.4-0.3-0.9-0.5-1.3
	c-0.2-0.4-0.4-0.8-0.6-1.2s-0.4-0.7-0.7-1.1s-0.5-0.7-0.7-1c-0.3-0.3-0.5-0.6-0.8-0.9c-0.3-0.3-0.6-0.6-0.9-0.8
	c-0.3-0.3-0.6-0.5-1-0.8s-0.7-0.5-1.1-0.7s-0.7-0.4-1.1-0.6s-0.8-0.4-1.2-0.6s-0.8-0.3-1.3-0.5s-0.9-0.3-1.3-0.4c0,0-0.1,0-0.1,0
	c0,0-0.1,0-0.1,0c0,0-0.1,0-0.1,0c0,0-0.1,0-0.1,0c0,0-0.1,0-0.1,0s-0.1,0-0.1,0c0,0-0.1,0-0.1,0c0,0-0.1,0-0.1,0c0,0-0.1,0-0.1,0
	c0,0-0.1,0-0.1,0s-0.1,0-0.1,0c0,0-0.1,0-0.1,0c0,0-0.1,0-0.1,0c0,0-0.1,0-0.1,0s-0.1,0-0.1,0s-0.1,0-0.1,0c-0.1,0-0.3-0.1-0.5-0.1
	c-0.2,0-0.3-0.1-0.5-0.1s-0.3-0.1-0.5-0.1c-0.2,0-0.3-0.1-0.5-0.1c-0.2,0-0.3-0.1-0.5-0.1c-0.2,0-0.3,0-0.5-0.1
	c-0.2,0-0.3,0-0.5-0.1c-0.2,0-0.3,0-0.5-0.1s-0.3,0-0.5-0.1c-0.2,0-0.3,0-0.5,0c-0.2,0-0.3,0-0.5,0s-0.3,0-0.5,0s-0.3,0-0.5,0
	c-0.2,0-0.3,0-0.5,0c-0.2,0-0.3,0-0.5,0c-0.2,0-0.3,0-0.5,0v-2.3v-2.3v-2.3v-2.3v-2.3v-2.3v-2.3v-2.3v-2.3v-2.3v-2.3v-2.3v-2.3V701
	v-2.3v-2.3c0,0,0,0,0,0c0,0,0,0,0,0s0,0-0.1,0s0,0-0.1,0c0,0-0.1,0-0.1,0s-0.1,0-0.1,0c0,0-0.1,0-0.1,0c0,0-0.1,0-0.1-0.1
	c-0.1,0-0.1,0-0.2-0.1s-0.1,0-0.2-0.1s-0.1,0-0.2-0.1s-0.1-0.1-0.2-0.1c-0.1,0-0.2-0.1-0.2-0.1c-0.1,0-0.2-0.1-0.2-0.1
	c-0.1,0-0.2-0.1-0.3-0.1c-0.1,0-0.2-0.1-0.3-0.1c0,0-0.1,0-0.1,0s-0.1,0-0.1,0s-0.1,0-0.1,0c0,0-0.1,0-0.1,0c0,0-0.1,0-0.1,0
	s-0.1,0-0.1,0s-0.1,0-0.1,0c0,0-0.1,0-0.1,0c0,0-0.1,0-0.1,0s-0.1,0-0.1,0c0,0-0.1,0-0.1,0s-0.1,0-0.1,0s-0.1,0-0.1,0s-0.1,0-0.1,0
	c0,0-0.1,0-0.1,0c0,0-0.1,0-0.1,0c-0.2-0.1-0.3-0.1-0.5-0.2c-0.2-0.1-0.3-0.1-0.5-0.2c-0.2-0.1-0.3-0.1-0.5-0.2
	c-0.2-0.1-0.4-0.1-0.5-0.2s-0.4-0.1-0.6-0.2s-0.4-0.1-0.6-0.2c-0.2-0.1-0.4-0.1-0.6-0.2c-0.2-0.1-0.4-0.1-0.6-0.2
	c-0.2-0.1-0.4-0.1-0.7-0.2c-0.2-0.1-0.4-0.1-0.7-0.2c-0.2-0.1-0.5-0.2-0.7-0.2c-0.2-0.1-0.5-0.2-0.7-0.2s-0.5-0.2-0.7-0.2
	c-0.2-0.1-0.5-0.2-0.7-0.2s-0.5-0.2-0.8-0.2s-0.5-0.2-0.8-0.2c0,0-0.1,0-0.1,0c0,0-0.1,0-0.1,0c0,0-0.1,0-0.1,0c0,0-0.1,0-0.1,0
	c0,0-0.1,0-0.1,0c0,0-0.1,0-0.1,0c0,0-0.1,0-0.1,0c0,0-0.1,0-0.1,0s-0.1,0-0.1,0c0,0-0.1,0-0.1,0c0,0-0.1,0-0.1,0c0,0-0.1,0-0.1,0
	c0,0-0.1,0-0.1,0c0,0-0.1,0-0.1,0c0,0-0.1,0-0.1,0s-0.1,0-0.1,0c-0.2-0.1-0.4-0.1-0.6-0.2c-0.2-0.1-0.4-0.1-0.6-0.2
	s-0.4-0.1-0.6-0.2c-0.2-0.1-0.4-0.1-0.6-0.2c-0.2-0.1-0.4-0.1-0.6-0.2c-0.2-0.1-0.4-0.1-0.6-0.2s-0.4-0.1-0.6-0.2
	c-0.2-0.1-0.4-0.1-0.6-0.2c-0.2-0.1-0.4-0.1-0.6-0.2s-0.4-0.1-0.6-0.2c-0.2-0.1-0.4-0.1-0.7-0.2c-0.2-0.1-0.4-0.1-0.7-0.2
	c-0.2-0.1-0.4-0.1-0.7-0.2s-0.4-0.1-0.7-0.2s-0.4-0.1-0.7-0.2c-0.2-0.1-0.4-0.1-0.7-0.2c0,0-0.1,0-0.1,0c0,0-0.1,0-0.1,0
	c0,0-0.1,0-0.1,0c0,0-0.1,0-0.1,0c0,0-0.1,0-0.1,0c0,0-0.1,0-0.1,0c0,0-0.1,0-0.1,0s-0.1,0-0.1,0s-0.1,0-0.1,0s-0.1,0-0.1,0
	c0,0-0.1,0-0.1,0c0,0-0.1,0-0.1,0c0,0-0.1,0-0.1,0c0,0-0.1,0-0.1,0c0,0-0.1,0-0.1,0c0,0-0.1,0-0.1,0c-0.2,0-0.4-0.1-0.6-0.1
	c-0.2,0-0.4-0.1-0.6-0.1c-0.2,0-0.4-0.1-0.6-0.1c-0.2,0-0.4-0.1-0.6-0.1c-0.2,0-0.4-0.1-0.6-0.1c-0.2,0-0.4-0.1-0.6-0.1
	c-0.2,0-0.4-0.1-0.6-0.1c-0.2,0-0.4-0.1-0.6-0.1s-0.4-0.1-0.6-0.1c-0.2,0-0.4-0.1-0.6-0.1s-0.4-0.1-0.6-0.1s-0.4-0.1-0.6-0.1
	c-0.2,0-0.4-0.1-0.6-0.1s-0.4-0.1-0.6-0.1c-0.2,0-0.4-0.1-0.6-0.1c-0.2,0-0.4-0.1-0.6-0.1c0,0-0.1,0-0.1,0c0,0-0.1,0-0.1,0
	c0,0-0.1,0-0.1,0s-0.1,0-0.1,0s-0.1,0-0.1,0c0,0-0.1,0-0.1,0c0,0-0.1,0-0.1,0c0,0-0.1,0-0.1,0c0,0-0.1,0-0.1,0c0,0-0.1,0-0.1,0
	c0,0-0.1,0-0.1,0c0,0-0.1,0-0.1,0c0,0-0.1,0-0.1,0s-0.1,0-0.1,0s-0.1,0-0.1,0c0,0-0.1,0-0.1,0c-0.2,0-0.4-0.1-0.6-0.1
	s-0.4-0.1-0.6-0.1c-0.2,0-0.4-0.1-0.6-0.1c-0.2,0-0.4-0.1-0.6-0.1s-0.4-0.1-0.6-0.1s-0.4,0-0.6-0.1c-0.2,0-0.4,0-0.6-0.1
	c-0.2,0-0.4,0-0.6-0.1s-0.4,0-0.6-0.1s-0.4,0-0.6-0.1c-0.2,0-0.4,0-0.6,0c-0.2,0-0.4,0-0.6,0s-0.4,0-0.6,0s-0.4,0-0.6,0
	c-0.2,0-0.4,0-0.6,0s-0.4,0-0.6,0c0,0-0.1,0-0.1,0s-0.1,0-0.1,0s-0.1,0-0.1,0c0,0-0.1,0-0.1,0c0,0-0.1,0-0.1,0s-0.1,0-0.1,0
	c0,0-0.1,0-0.1,0c0,0-0.1,0-0.1,0c0,0-0.1,0-0.1,0c0,0-0.1,0-0.1,0c0,0-0.1,0-0.1,0c0,0-0.1,0-0.1,0c0,0-0.1,0-0.1,0s-0.1,0-0.1,0
	c0,0-0.1,0-0.1,0c0,0-0.1,0-0.1,0c-0.2,0-0.5,0-0.7,0c-0.2,0-0.5,0-0.7,0c-0.2,0-0.5,0-0.7,0c-0.2,0-0.4,0-0.7,0s-0.4,0-0.7,0
	c-0.2,0-0.4,0-0.7,0s-0.4,0-0.6,0c-0.2,0-0.4,0-0.6,0.1c-0.2,0-0.4,0-0.6,0.1c-0.2,0-0.4,0-0.6,0.1s-0.4,0.1-0.6,0.1
	c-0.2,0-0.4,0.1-0.6,0.1c-0.2,0-0.4,0.1-0.6,0.1s-0.4,0.1-0.6,0.1c-0.2,0-0.4,0.1-0.6,0.1c-0.2,0-0.4,0.1-0.6,0.1c0,0-0.1,0-0.1,0
	c0,0-0.1,0-0.1,0s-0.1,0-0.1,0s-0.1,0-0.1,0s-0.1,0-0.1,0s-0.1,0-0.1,0s-0.1,0-0.1,0c0,0-0.1,0-0.1,0c0,0-0.1,0-0.1,0
	c0,0-0.1,0-0.1,0c0,0-0.1,0-0.1,0c0,0-0.1,0-0.1,0c0,0-0.1,0-0.1,0s-0.1,0-0.1,0s-0.1,0-0.1,0s-0.1,0-0.1,0
	c-0.5,0.1-0.9,0.3-1.3,0.4s-0.9,0.3-1.3,0.5c-0.4,0.2-0.8,0.4-1.2,0.6s-0.8,0.4-1.1,0.6c-0.4,0.2-0.7,0.5-1.1,0.7s-0.7,0.5-1,0.8
	s-0.6,0.6-0.9,0.8s-0.6,0.6-0.8,0.9s-0.5,0.7-0.7,1c-0.2,0.3-0.5,0.7-0.7,1.1s-0.4,0.8-0.6,1.2c-0.2,0.4-0.3,0.8-0.5,1.3
	s-0.3,0.9-0.4,1.4s-0.2,0.9-0.3,1.4c-0.1,0.5-0.1,1-0.2,1.5c0,0.5-0.1,1.1-0.1,1.6v17.9v17.9v17.9v17.9v17.9v17.9v17.9v17.9v17.9
	v17.9v17.9v1.2h-1h-4.8h-4.8h-4.8h-4.8h-4.8h-4.8h-4.8h-4.8h-4.8h-2.4v-8.8v-16.4V858v-16.4v-16.4v-16.4v-7.2h7.8v-0.6v-0.7v-0.6
	v-0.6v-0.7v-0.6v-0.6v-0.6v-0.6v-0.6v-0.6v-0.6v-0.6v-0.6V792v-0.6h-8.5l-0.3-0.6l-1-1.8l-1-1.8l-1-1.8l-1-1.8l-1-1.8l-1-1.8l-1-1.8
	l-1-1.8l-1-1.8l-1-1.8l-1-1.8l-1-1.8l-1-1.8l-1-1.8l-1-1.8h-8.2h-8.2h-8.2h-8.2h-8.2h-8.2h-8.2h-8.2h-8.2h-8.2h-8.2h-8.2h-8.2h-8.2
	h-8.2h-8.2l-1,1.8l-1,1.8l-1,1.8l-1,1.8l-1,1.8l-1,1.8l-1,1.8l-1,1.8l-1,1.8l-1,1.8l-1,1.8l-1,1.8l-1,1.8l-1,1.8l-1,1.8l-0.3,0.6
	h-8.5v0.6v0.6v0.6v0.6v0.6v0.6v0.6v0.6v0.6v0.6v0.6v0.7v0.6v0.6v0.7v0.6h7.8v7.2v16.4v16.4V858v16.4v16.4v16.4v16.4v16.4v16.4v16.4
	v16.4v1.4h-3.5h-6.1h-6.1h-6.1h-6.1h-6.1h-4.3v-10.7v-12.5v-12.5v-12.5v-12.5v-12.5v-12.5v-12.5V880v-12.5V855h-5.4h-0.7v-0.7v-1.6
	v-1.6v-1.6V848v-1.6v-1.6v-1.6v-1.6v-1.6v-1.6V837v-1.6v-1.6v-1.6h-5.5h-5.5h-5.5h-5.5h-5.5h-5.5h-5.5h-5.5h-5.5h-5.5h-5.5h-5.5
	h-5.5h-5.5h-3.6v0v-2.8v-2.8v-2.8v-2.8V818v-2.8v-2.8v-2.8h-7.1v-1.1v-2.3v-2.3v-2.3v-2.3v-2.3v-2.3V792v-2.3v-2.3V785v-2.3v-2.3
	v-2.3v-2.3h-7.3h-7.3h-7.3h-7.3h-7.3h-7.3h-7.3h-7.3h-7.3h-7.3h-7.3h-7.3h-7.3h-7.3h-7.3h-7.3v2.3v2.3v2.3v2.3v2.3v2.3v2.3v2.3v2.3
	v2.3v2.3v2.3v2.3v2.3v1.1h-7.9v15.3v15.3v15.3v15.3V886v15.3v15.3V932v15.3v14.8h-1.5h-3.3h-3.3h-3.3h-3.3h-3.3h-3.3h-3.3h-1.1v-7.7
	v-11.1v-11.1V921v-11.1v-11.1v-11.1v-11.1h-0.7h-0.7h-0.7h-0.7h-0.7h-0.7h-0.7h-0.7h-0.7h-0.7h-0.7h-0.7h-0.7h-0.7h-0.7h-0.7
	l-0.5-1.6l-0.5-1.6l-0.5-1.6l-0.5-1.6l-0.5-1.6l-0.5-1.6l-0.5-1.6l-0.5-1.6l-0.5-1.6l-0.5-1.6l-0.5-1.6l-0.5-1.6l-0.5-1.6l-0.5-1.6
	l-0.5-1.6l-0.5-1.6h-7.3h-7.3h-7.3h-7.3h-7.3h-7.3h-7.3h-7.3h-7.3h-7.3h-7.3h-7.3h-7.3h-7.3h-7.3h-0.9v-22.3v-22.6v-22.6v-22.6
	v-22.6v-22.6v-22.6l-5.4,0.8l-4.2,0.6v-0.1v-2.5v-2.5V687v-2.5v-2.5v-2.5v-2.5v-2.5v-2.5v-2.5l-4.2,0.8l-4.2,0.8l-4.2,0.8l-4.2,0.8
	l-4.2,0.8l-4.2,0.8l-4.2,0.8l-4.2,0.8l-4.2,0.8l-4.2,0.8l-4.2,0.8l-4.2,0.8l-4.2,0.8l-4.2,0.8l-4.2,0.8l-4.2,0.8v1.7v1.7v1.7v1.7
	v1.7v1.7v1.7v1.7v1.7v1.7v1.7v1.7v1.7l-4.2,0.6l-5.4,0.8v21.8v21.8v21.8v21.8v21.8v21.8v21.8v21.8v8.6l-5-0.8l-9.6-1.5l-2-0.3v-2.9
	v-3.9v-3.9v-3.9v-3.9v-3.9v-3.9v-3.9v-3.9v-3.9v-3.9V841v-3.9v-3.9l-6.9,0.6l-5.2,0.5v-0.7V832v-1.6v-1.6V827v-1.6v-1.6v-1.6v-1.6
	v-1.6v-1.6v-1.6v-1.6v-1.6v-1.6l-5.4,0.6l-5.4,0.6l-5.4,0.6l-5.4,0.6l-5.4,0.6l-5.4,0.6l-5.4,0.6l-5.4,0.6l-5.4,0.6l-5.4,0.6
	l-5.4,0.6l-5.4,0.6l-5.4,0.6l-5.4,0.6l-5.4,0.6l-5.4,0.6v1.4v1.4v1.4v1.4v1.4v1.4v1.4v1.4v1.4v1.4v1.4v1.4v1.4v1.4v1.4v0.1l-5.2,0.5
	l-6.9,0.6v2.2v2.2v2.2v2.2v2.2v2.2v2.2v2.2v2.2v2.2v2.2v1l-1.9-0.3l-9.6-1.5l-9.6-1.5v11.8v11.8v11.8v11.8v11.8v11.8V948v11.6h-0.2
	h-5.4h-5.4h-5.4h-5.4h-5.4h-5.4h-1.9v-0.3v-7.8v-7.8v-7.8v-7.8v-7.8v-7.8v-7.8v-7.8h-6.2h-1.8V890v-8.2v-8.2v-8.2V857v-8.2v-8.2
	v-8.2v-8.2v-8.2v-8.2v-8.2v-8.2v-8.2v-8.2v-8.2h-5.2h-2v-3.2v-4.7v-4.7v-4.7v-4.7V740v-4.7v-4.7V726v-4.7v-4.7V712v-4.7v-4.7V698
	v-4.7h-4.3h-4.3h-0.2v-3.2v-4.3v-4.3v-4.3v-4.3v-4.3v-4.3v-4.3v-4.3v-4.3v-4.3V643v-4.3v-4.3v-4.3v-4.3h-3.2h-3.2h-3.2h-3.2h-3.2
	h-3.2h-3.2h-3.2h-3.2h-3.2h-3.2h-3.2h-3.2h-3.2h-3.2h-3.2v4.3v4.3v4.3v4.3v4.3v4.3v4.3v4.3v4.3v4.3v4.3v4.3v4.3v4.3v4.3v3.2h-0.2
	h-4.3h-4.3v4.7v4.7v4.7v4.7v4.7v4.7v4.7v4.7v4.7v4.7v4.7v4.7v4.7v4.7v4.7v3.2h-2h-5.2v8.2v8.2v8.2v8.2v8.2v8.2v8.2v8.2v8.2v8.2v8.2
	v8.2v8.2v8.2v8.2v6.6h-1.8h-6.2v7.8v7.8v7.8v7.8v7.8v7.8v7.8v7.8v7.8v7.8v7.8v7.8v7.8v7.6h-16H1671v-2.9v-16.8v-16.8v-16.8v-16.8
	V919v-16.8v-16.8v-16.8v-16.8v-16.8V818v-16.8v-16.8l-4.7,0.9l-3.5,0.6v-1.5v-3v-2.9v-3v-2.9v-2.9v-3v-2.9v-3v-2.9v-3v-2.9v-2.9
	v-2.9V743l-3.7,1l-3.7,1l-0.2,0.1v-1.4V742v-1.6v-1.6v-1.6v-1.6v-1.6v-1.6v-1.6v-1.6v-1.6v-1.6v-1.6v-1.6l-2.7-1.1l-2.7-1.1
	l-2.7-1.1l-2.7-1.1l-2.7-1.1l-2.7-1.1l-2.7-1.1l-2.7-1.1l-2.7-1.1l-2.7-1.1l-2.7-1.1l-2.7-1.1l-2.7-1.1l-2.7-1.1l-2.7-1.1l-2.7-1.1
	v3.4v3.4v3.4v3.4v3.4v3.4v3.4v3.4v3.4v3.4v3.4v3.4v3.4v3.4v3.4v0.8l-0.2,0.1l-3.7,1l-3.7,1v2.5v2.5v2.5v2.5v2.5v2.5v2.5v2.5v2.5v2.5
	v2.5v2.5v2.5v2.5v2.2l-3.5,0.6l-4.7,0.9v16v16v16v16v16v16v16v16v13.8h-1.2h-4.8h-4.8h-4.8h-4.8h-4.8h-4.8h-3v-6.3V922v-11.3v-11.3
	v-11.3V877v-11.3v-11.3v-11.3l-4.1,1.2l-4.1,1.2l-3.5,1v-1.3v-1.4v-1.4v-1.4v-1.4v-1.4V837v-1.4v-1.4v-1.4l-7.6,2.4l-7.6,2.4
	l-7.6,2.4l-7.6,2.4l-7.6,2.4l-7.6,2.4l-7.6,2.4l-7.6,2.4l-7.6,2.4l-7.6,2.4l-7.6,2.4l-7.6,2.4l-7.6,2.4l-7.6,2.4l-7.6,2.4l-7.6,2.4
	v1.1v1.1v1.1v1.1v1.1v1.1v1.1v1.1v1.1v1l-0.2,0l-1.9,0.6l-1.9,0.6l-1.9,0.6l-1.9,0.6l-1.9,0.6l-1.9,0.6v8.6v8.7v8.7v8.6v8.7v8.7v8.6
	v8.7v8.6v8.7v8.7v8.7v6h-2h-5.5h-5.5h-5.5h-5.5h-5.5h-5.5h-5.5h-3.7V991v-9.5v-9.5v-9.5v-9.5v-9.5v-9.5v-9.5v-9.5v-9.5v-9.5V887
	v-9.5h-5.4h-5.4h-3.5v-0.4v-2.2v-2.2v-2.2v-2.2v-2.2v-2.2v-2.2v-2.2V857v-2.2v-2.2v-2.2V848v-2.2v-2.2h-4.5h-4.5h-4.5v-0.2v-1v-1v-1
	v-1v-1v-1v-1v-1v-1v-1v-1v-1v-1v-1h-3.7h-3.7h-3.7h-3.7h-3.7h-3.7h-3.7h-3.7h-3.7h-3.7h-3.7h-3.7h-3.7h-3.7h-3.7h-3.7v1v1v1v1v1v1v1
	v1v1v1v1v1v1v1v0.2v0.9v1v0.4v2.2v2.2v2.2v2.2v2.2v2.2v2.2v2.2v2.2v2.2v2.2v2.2v2.2v2.2v0.4v1.9v7.6v9.5v9.5v9.5v9.5v9.5v9.5v9.5
	v9.5v9.5v0.6h-0.4h-6.2h-6.2h-6.2h-6.2h-6.2h-6.2h-6.2h-6.2h-3.5v-14.3v-18.9v-18.9v-18.9v-18.9v-18.9v-18.9V826V807v-18.9v-18.9
	v-18.9v-18.9v-18.9h-0.6h-0.6h-0.6h-0.6h-0.6h-0.6h-0.6h-0.6h-0.6h-0.6h-0.6h-0.6h-0.6h-0.6h-0.6h-0.5v-1.7v-1.7v-1.7v-1.7v-1.7
	v-1.7v-1.7V699v-1.7v-1.7V694v-1.7v-1.7V689v-1.7v-1.7l-0.6-0.9l-0.6-0.9l-0.6-0.9l-0.6-0.9l-0.6-0.9l-0.6-0.9l-0.6-0.9l-0.6-0.9
	l-0.6-0.9l-0.6-0.9l-0.6-0.9l-0.6-0.9l-0.6-0.9l-0.6-0.9l-0.6-0.9l-0.6-0.9c-0.4-0.7-0.8-1.5-1.3-2.3c-0.5-0.8-0.9-1.7-1.4-2.6
	c-0.5-0.9-1-1.9-1.5-2.9s-1.1-2.1-1.6-3.2c-0.6-1.1-1.1-2.3-1.7-3.5c-0.6-1.2-1.2-2.4-1.7-3.7c-0.6-1.3-1.2-2.6-1.8-3.9
	c-0.6-1.3-1.2-2.7-1.8-4.1c-0.6-1.4-1.2-2.9-1.8-4.3c-0.6-1.5-1.2-3-1.7-4.5c-0.6-1.5-1.1-3.1-1.7-4.7s-1.1-3.2-1.6-4.8
	c-0.5-1.6-1-3.3-1.5-4.9c-0.5-1.7-0.9-3.3-1.4-5s-0.8-3.4-1.2-5.1c-0.4-1.7-0.7-3.5-1.1-5.2c-0.5,2-1,4-1.4,6c-0.5,2-1,3.9-1.5,5.7
	c-0.5,1.9-1,3.7-1.6,5.5c-0.5,1.8-1.1,3.5-1.6,5.2s-1.1,3.4-1.7,5s-1.1,3.2-1.7,4.7c-0.6,1.5-1.1,3-1.7,4.5
	c-0.6,1.4-1.1,2.9-1.7,4.2s-1.1,2.7-1.7,4s-1.1,2.5-1.6,3.7s-1.1,2.3-1.6,3.4c-0.5,1.1-1,2.2-1.5,3.2c-0.5,1-1,2-1.5,2.9
	s-0.9,1.8-1.4,2.6c-0.4,0.8-0.9,1.6-1.3,2.3c-0.4,0.7-0.8,1.4-1.2,2.1l-0.6,0.9l-0.6,0.9l-0.6,0.9l-0.6,0.9l-0.6,0.9l-0.6,0.9
	l-0.6,0.9l-0.6,0.9l-0.6,0.9l-0.6,0.9l-0.6,0.9l-0.6,0.9l-0.6,0.9l-0.6,0.9l-0.6,0.9l-0.6,0.9v1.7v1.7v1.7v1.7v1.7v1.7v1.7v1.7v1.7
	v1.7v1.7v1.7v1.7v1.7v1.7v1.7h-0.6h-0.6h-0.6h-0.6h-0.6h-0.6h-0.6h-0.6h-0.6h-0.6h-0.6h-0.6h-0.6h-0.6h-0.6h-0.6v18.9v18.9v18.9
	v18.9V807V826v18.9v18.9v18.9v18.9v18.6h-2.1h-4.6h-4.6h-4.6h-4.6h-4.6h-4.6h-4.6h-4.6h-4.6h-4.6h-4.6h-4.6l0-0.8l-0.1-3.5l-0.1-3.5
	l-0.1-3.5l0-0.3l0-0.3l0-0.3l0-0.3l0-0.3l0-0.3l0-0.3l0-0.3l0-0.3l0-0.3l0-0.3l0-0.3l0-0.3l0-0.3l0-0.3l0-0.3l-0.1-3.5l-0.1-3.5
	l-0.1-3.5l-0.1-3.5l-0.1-3.5l-0.1-3.5l-0.1-3.5l-0.1-3.5l-0.1-3.5l-0.1-3.5l-0.1-3.5l-0.1-3.5l-0.1-3.5l-0.1-3.5l-0.1-3.5l-0.1-3.5
	l0-0.3l0-0.3l0-0.3l0-0.3l0-0.3l0-0.3l0-0.3l0-0.3l0-0.3l0-0.3l0-0.3l0-0.3l0-0.3l0-0.3l0-0.3l0-0.3l-0.1-3.7l-0.1-3.7l-0.1-3.7
	l-0.1-3.7l-0.1-3.7l-0.1-3.7l-0.1-3.7l-0.1-3.7l-0.1-3.7l-0.1-3.7l-0.1-3.7l-0.1-3.7l-0.1-3.7l-0.1-3.7l-0.1-3.7l-0.1-3.7h-3.5h-3.5
	h-3.5h-3.5h-3.5h-3.5h-3.5h-3.5h-3.5h-3.5h-3.5h-3.5h-3.5h-3.5h-3.5h-3.5l-0.1,3.7l-0.1,3.7l-0.1,3.7l-0.1,3.7l-0.1,3.7l-0.1,3.7
	l-0.1,3.7l-0.1,3.7l-0.1,3.7l-0.1,3.7l-0.1,3.7l-0.1,3.7l-0.1,3.7l-0.1,3.7l-0.1,3.7l-0.1,3.7l0,0.3l0,0.3l0,0.3l0,0.3l0,0.3l0,0.3
	l0,0.3l0,0.3l0,0.3l0,0.3l0,0.3l0,0.3l0,0.3l0,0.3l0,0.3l0,0.3l-0.1,3.5l-0.1,3.5l-0.1,3.5l-0.1,3.5l-0.1,3.5l-0.1,3.5l-0.1,3.5
	l-0.1,3.5l-0.1,3.5l-0.1,3.5l-0.1,3.5l-0.1,3.5l-0.1,3.5l-0.1,3.5l-0.1,3.5l-0.1,3.5l0,0.3l0,0.3l0,0.3l0,0.3l0,0.3l0,0.3l0,0.3
	l0,0.3l0,0.3l0,0.3l0,0.3l0,0.3l0,0.3l0,0.3l0,0.3l0,0.3l-0.1,3.5l-0.1,3.5l-0.1,3.5l-0.1,3.5l-0.1,3.5l-0.1,3.5l-0.1,3.5l-0.1,3.5
	l-0.1,3.5l-0.1,3.5l-0.1,3.5l-0.1,3.5l-0.1,3.5l-0.1,3.5l-0.1,3.5l-0.1,3.5l0,0.3l0,0.3l0,0.3l0,0.3l0,0.3l0,0.3l0,0.3l0,0.3l0,0.3
	l0,0.3l0,0.3l0,0.3l0,0.3l0,0.3l0,0.3l0,0.3l-0.1,3.5l-0.1,3.5l-0.1,3.5l-0.1,3.5l0,1.2h-5.5h-7h-7h-7h-7h-7h-7h-7h-7h-7h-1.9V983
	v-3.4v-3.4v-3.4v-3.4h0.5h0.5h0.5h0.5h0.5h0.5h0.5h0.5h0.5h0.5h0.5h0.5h0.5h0.5h0.5h0.5v-5.9v-5.9v-5.9v-5.9v-5.9v-5.9V928V922v-5.9
	v-5.9v-5.9v-5.9v-5.9v-5.9v-5.9v-5.9h-3.5h-3.5h-3.5h-3.5h-3.5h-3.5h-3.5h-3.5h-3.5H927h-3.5H920h-3.5h-3.5h-3.5h-3.5l-4.8-2.7
	l-4.8-2.7l-4.8-2.7l-4.8-2.7l-4.8-2.7l-4.8-2.7l-4.8-2.7l-4.8-2.7l-4.8-2.7l-4.8-2.7l-4.8-2.7l-4.8-2.7l-4.8-2.7l-4.8-2.7l-4.8-2.7
	l-4.8-2.7v12v12v12v12v12v12v12v6.2H828h-4.8h-4.8h-4.8h-4.8h-4.8H799h-4.8h-4.8h-4.8h-4.8h-4.8H771v-10.4v-16.5v-16.5v-16.5v-16.5
	v-16.5v-16.5v-16.5v-16.5v-16.5c-1.7-0.5-3.3-1-4.9-1.4c-1.6-0.5-3.2-0.9-4.8-1.4c-0.2-0.1-0.5-0.1-0.7-0.2v-0.7v-1.7v-1.7v-1.7V752
	v-1.7v-1.7V747v-1.7v-1.7V742v-1.7v-1.7l-4-1.5l-2.4-0.9v-1.8v-3.8V727v-3.8v-3.8v-3.8v-3.8v-3.8v-3.8v-3.8v-3.8V693v-3.8v-3.8v-3.8
	l-1.7,1.5l-1.7,1.5l-1.7,1.5l-1.7,1.5l-1.7,1.5l-1.7,1.5l-1.7,1.5l-1.7,1.5l-1.7,1.5l-1.7,1.5l-1.7,1.5l-1.7,1.5l-1.7,1.5l-1.7,1.5
	l-1.7,1.5l-1.7,1.5v1.7v1.7v1.7v1.7v1.7v1.7v1.7v1.7v1.7v1.7v1.7v1.2l-2.2-0.8l-4-1.5l-4-1.5l-4-1.5l-4-1.5l-4-1.5l-4-1.5l-4-1.5
	v2.1v2.1v2.1v2.1v2.1v2.1v2.1v2.1v2.1v2.1v2.1v2.1v1.9c-1-0.3-2-0.6-3-0.9c-2.4-0.7-4.9-1.4-7.5-2.2v18v18v18v18v18v18v18v18v18v18
	v12.8l-1.1-0.2l-2.5-0.5l-2.5-0.5l-2.5-0.5l-2.5-0.5l-2.5-0.5l-2.5-0.5v-2.4v-2.4v-2.4v-2.4v-2.4v-2.4v-2.4v-2.4v-2.4v-2.4v-2.4
	v-2.4V896v-2.4v-2.4v-2.4l-1.9-1.1l-1.9-1.1l-1.9-1.1l-1.9-1.1l-1.9-1.1l-1.9-1.1l-1.9-1.1l-1.9-1.1l-1.9-1.1l-1.9-1.1l-1.9-1.1
	l-1.9-1.1l-1.9-1.1l-1.9-1.1l-1.9-1.1l-1.9-1.1l-1.9,0.4l-1.9,0.4l-1.9,0.4l-1.9,0.4l-1.9,0.4l-1.9,0.4l-1.9,0.4l-1.9,0.4l-1.9,0.4
	l-1.9,0.4l-1.9,0.4l-1.9,0.4l-1.9,0.4l-1.9,0.4l-1.9,0.4l-1.9,0.4v2.1v2.1v2.1v2.1v2.1v2.1v2.1v2.1v2.1v2.1v2.1v2.1v2.1v2.1v2.1v2.1
	l-1.6,0.5l-1.6,0.5l-1.6,0.5l-1.6,0.5l-1.6,0.5l-1.6,0.5l-1.6,0.5l-1.6,0.5l-1.6,0.5l-1.6,0.5l-1.6,0.5l-0.9,0.3v-7.9v-15.8v-15.8
	v-15.8V848v-15.8v-15.8v-15.8l-2.4-1.3l-2.4-1.3l-2.4-1.3l-2.4-1.3l-2.4-1.3l-2.4-1.3l-2.4-1.3l-2.4-1.3l-2.4-1.3l-2.4-1.3l-2.4-1.3
	l-2.4-1.3l-2.4-1.3l-2.4-1.3l-2.4-1.3l-2.4-1.3l-3.7,1.4l-3.7,1.4l-3.7,1.4l-3.7,1.4l-3.7,1.4l-3.7,1.4l-3.7,1.4l-3.7,1.4l-3.7,1.4
	l-3.7,1.4l-3.7,1.4l-3.7,1.4l-3.7,1.4L499,799l-3.7,1.4l-3.7,1.4v15.7v15.7V849v15.7v15.7v15.7V912v15.7v15.7v15.7V974h-1.3H483
	h-7.4h-7.4h-7.4h-7.4h-7.4h-5.9v-11.6v-12.9v-12.9v-12.9v-12.9v-12.9v-12.9v-12.9v-12.9V846v-12.9h-7.4H425h-4.7v-0.5v-3.1v-3.1
	v-3.1v-3.1v-3.1v-3.1v-3.1v-3.1V805V802v-3.1v-3.1v-3.1v-3.1v-3.1h-6.2h-6.2h-6.2v-0.2v-1.4v-1.4v-1.4v-1.4v-1.4v-1.4v-1.4v-1.4V774
	v-1.4v-1.4v-1.4v-1.4v-1.4h-5h-5h-5h-5h-5h-5h-5h-5h-5h-5h-5h-2v-16v-21.3v-21.3h-4.8h-4.8H334v-0.6v-1.6v-1.6v-1.6v-1.6v-1.6v-1.6
	v-1.6v-1.6v-1.6v-1.6v-1.6v-1.6v-1.6h-3.2h-3.2h-3.2h-3.2h-3.2h-3.2h-3.2h-3.2h-3.2h-3.2h-3.2h-3.2h-3.2h-3.2h-3.2h-3.2l-0.1,1.5
	l-0.1,1.5l-0.1,1.5l-0.1,1.5l-0.1,1.5l-0.1,1.5l-0.1,1.5l-0.1,1.5l-0.1,1.5l-0.1,1.5l-0.1,1.5l-0.1,1.5l-0.1,1.5l-0.1,0.8h-4h-4.8
	h-4.8l0,0.5l0,0.5l0,0.5l0,0.5l0,0.5l0,0.5l0,0.5l0,0.5l0,0.5l0,0.5l0,0.5l0,0.5l0,0.5l0,0.5l0,0.5l0,0.5l0,0.2l0,0.2l0,0.2l0,0.2
	l0,0.2l0,0.2l0,0.2l0,0.2l0,0.2l0,0.2l0,0.2l0,0.2l0,0.2l0,0.2l0,0.2l0,0.2l0,0.7l0,0.7l0,0.7l0,0.7l0,0.7l0,0.7l0,0.7l0,0.7l0,0.7
	l0,0.7l0,0.7l0,0.7l0,0.7l0,0.7l0,0.7l0,0.7l0,0.2l0,0.2l0,0.2l0,0.2l0,0.2l0,0.2l0,0.2l0,0.2l0,0.2l0,0.2l0,0.2l0,0.2l0,0.2l0,0.2
	l0,0.2l0,0.2l0,0.7l0,0.7l0,0.7l0,0.7l0,0.7l0,0.7l0,0.7l0,0.7l0,0.7l0,0.7l0,0.7l0,0.7l0,0.7l0,0.7l0,0.7l0,0.7l0,0.2l0,0.2l0,0.2
	l0,0.2l0,0.2l0,0.2l0,0.2l0,0.2l0,0.2l0,0.2l0,0.2l0,0.2l0,0.2l0,0.2l0,0.2l0,0.2l0,0.7l0,0.7l0,0.7l0,0.7l0,0.7l0,0.7l0,0.7l0,0.7
	l0,0.7l0,0.7l0,0.7l0,0.7l0,0.7l0,0.7l0,0.7l0,0.7l0,0.2l0,0.2l0,0.2l0,0.2l0,0.2l0,0.2l0,0.2l0,0.2l0,0.2l0,0.2l0,0.2l0,0.2l0,0.2
	l0,0.2l0,0.2l0,0.2l0,0.7l0,0.7l0,0.7l0,0.7l0,0.7l0,0.7l0,0.7l0,0.7l0,0.7l0,0.7l0,0.7l0,0.7l0,0.7l0,0.7l0,0.7l0,0.7l0,0.2l0,0.2
	l0,0.2l0,0.2l0,0.2l0,0.2l0,0.2l0,0.2l0,0.2l0,0.2l0,0.2l0,0.2l0,0.2l0,0.2l0,0.2l0,0.2l0,0.7l0,0.7l0,0.7l0,0.7l0,0.7l0,0.7l0,0.7
	l0,0.7l0,0.7l0,0.7l0,0.7l0,0.7l0,0.7l0,0.7l0,0.7l0,0.7l0,0.2l0,0.2l0,0.2l0,0.2l0,0.2l0,0.2l0,0.2l0,0.2l0,0.2l0,0.2l0,0.2l0,0.2
	l0,0.2l0,0.2l0,0.2l0,0.2l0,0.7l0,0.7l0,0.7l0,0.7l0,0.7l0,0.7l0,0.7l0,0.7l0,0.7l0,0.7l0,0.7l0,0.7l0,0.7l0,0.7l0,0.7l0,0.7l0,0.2
	l0,0.2l0,0.2l0,0.2l0,0.2l0,0.2l0,0.2l0,0.2l0,0.2l0,0.2l0,0.2l0,0.2l0,0.2l0,0.2l0,0.2l0,0.2l0,0.7l0,0.7l0,0.7l0,0.7l0,0.7l0,0.7
	l0,0.7l0,0.7l0,0.7l0,0.7l0,0.7l0,0.7l0,0.7l0,0.7l0,0.7l0,0.7l0,0.2l0,0.2l0,0.2l0,0.2l0,0.2l0,0.2l0,0.2l0,0.2l0,0.2l0,0.2l0,0.2
	l0,0.2l0,0.2l0,0.2l0,0.2l0,0.2l0,0.7l0,0.7l0,0.7l0,0.7l0,0.7l0,0.7l0,0.7l0,0.7l0,0.7l0,0.7l0,0.7l0,0.7l0,0.7l0,0.7l0,0.7l0,0.7
	l0,0.2l0,0.2l0,0.2l0,0.2l0,0.2l0,0.2l0,0.2l0,0.2l0,0.2l0,0.2l0,0.2l0,0.2l0,0.2l0,0.2l0,0.2l0,0.2l0,0.7l0,0.7l0,0.7l0,0.7l0,0.7
	l0,0.7l0,0.7l0,0.7l0,0.7l0,0.7l0,0.7l0,0.7l0,0.7l0,0.7l0,0.7l0,0.7l0,0.2l0,0.2l0,0.2l0,0.2l0,0.2l0,0.2l0,0.2l0,0.2l0,0.2l0,0.2
	l0,0.2l0,0.2l0,0.2l0,0.2l0,0.2l0,0.2l0,0.7l0,0.7l0,0.7l0,0.7l0,0.7l0,0.7l0,0.7l0,0.7l0,0.7l0,0.7l0,0.7l0,0.7l0,0.1h-1.3H258
	h-5.4h-5.4h-5.4h-5.4H231h-5.4h-5.4h-5.4h-5.4H204h-5.4h-5.4h-5.4h-5.4v2.1v2.1v2.1v2.1v2.1v2.1v2.1v2.1v2.1v2.1v2.1v2.1v2.1v2.1
	v2.1v0.6H181h-6.4l-0.1,0.6l-0.1,0.6l-0.1,0.6l-0.1,0.6l-0.1,0.6l-0.1,0.6l-0.1,0.6l-0.1,0.6l-0.1,0.6l-0.1,0.6l-0.1,0.6l-0.1,0.6
	l-0.1,0.6l-0.1,0.6l-0.1,0.6l-0.1,0.6l0,0.1l0,0.1l0,0.1l0,0.1l0,0.1l0,0.1l0,0.1l0,0.1l0,0.1l0,0.1l0,0.1l0,0.1l0,0.1l0,0.1l0,0.1
	l0,0.1l-0.2,1l-0.2,0.9l-0.2,1l-0.2,0.9l-0.2,1l-0.2,0.9l-0.2,0.9l-0.2,1l-0.2,1l-0.2,0.9l-0.2,1l-0.2,1l-0.2,1l-0.2,1l-0.2,0.9
	l-0.2,1l0,0.1l0,0.1l0,0.1l0,0.1l0,0.1l0,0.1l0,0.1l0,0.1l0,0.1l0,0.1l0,0.1l0,0.1l0,0.1l0,0.1l0,0.1l0,0.1l-0.1,0.5l-0.1,0.5
	l-0.1,0.5l-0.1,0.5l-0.1,0.5l-0.1,0.5l-0.1,0.5l-0.1,0.5l-0.1,0.5l-0.1,0.5l-0.1,0.5l-0.1,0.5l-0.1,0.5l-0.1,0.5l-0.1,0.5l-0.1,0.5
	l-0.1,0.5l-0.1,0.5l-0.1,0.5l-0.1,0.5l-0.1,0.5l-0.1,0.5l-0.1,0.5l-0.1,0.5l-0.1,0.5l-0.1,0.5l-0.1,0.5l-0.1,0.5l-0.1,0.5l-0.1,0.5
	l-0.1,0.5l-0.1,0.5l0,0.1l0,0.1l0,0.1l0,0.1l0,0.1l0,0.1l0,0.1l0,0.1l0,0.1l0,0.1l0,0.1l0,0.1l0,0.1l0,0.1l0,0.1l0,0.1v5.7v5.7v5.7
	v5.7v0.1h-2h-3.8h-3.8h-3.8h-3.8h-3.8h-2.2v-3.9v-22.6v-22.6v-22.6V873v-22.6v-22.6v-22.6v-22.6V760v-22.6v-22.6v-22.6h-7.4h-1.2
	v-0.9v-2.6v-2.6v-2.6v-2.6v-2.6V676v-2.6v-2.6h-1.1h-1.1H132h-1.1h-1.1h-1.1h-1.1h-1.1h-1.1h-1.1h-1.1h-1.1H121h-1.1h-1.1h-1.1v2.6
	v2.6v2.6v2.6v2.6v2.6v2.6v2.6v0.9h-3.6h-7.4h-7.4h-7.4H85v-0.9v-2.6v-2.6v-2.6v-2.6v-2.6V676v-2.6v-2.6h-3.2h-3.2h-3.2h-3.2h-3.2
	h-3.2h-3.2h-3.2h-3.2h-3.2h-3.2h-3.2h-3.2h-3.2h-3.2h-3.2v2.6v2.6v2.6v2.6v2.6v2.6v2.6v2.6v0.9h-1.8H25v22.6v22.6V760v22.6v22.6
	v22.6v22.6V873v22.6v22.6v22.6v22.6v22.6v20.1h-64.2v19.4v19.4v19.4v19.4v19.4v19.4v19.4v19.4v19.4v19.4v19.4v19.4v19.4v19.4v19.4
	v19.4H76.1h115.2h115.2h115.2H537h115.2h115.2h115.2H998h115.2h115.2h115.2H1459h115.2h42h73.2h42h73.2h42H1962h115.2h115.2h115.2
	H2423h115.2h115.2h115.2H2884h115.2h115.2h115.2h115.2h115.2v-19.4v-19.4v-19.4v-19.4v-19.4v-19.4v-19.4V1161v-19.4v-19.4v-19.4
	v-19.4v-19.4v-19.4v-19.4v-19.4H3401.6z"/>
</svg>
