<?xml version="1.0" encoding="utf-8"?>
<!-- Generator: Adobe Illustrator 23.1.0, SVG Export Plug-In . SVG Version: 6.00 Build 0)  -->
<svg version="1.1" id="Layer_1" xmlns="http://www.w3.org/2000/svg" xmlns:xlink="http://www.w3.org/1999/xlink" x="0px" y="0px"
	 viewBox="0 0 90 80" style="enable-background:new 0 0 90 80;" xml:space="preserve">
<style type="text/css">
	.st0{fill:url(#SVGID_1_);}
	.st1{fill:url(#SVGID_2_);}
</style>
<g>
	<linearGradient id="SVGID_1_" gradientUnits="userSpaceOnUse" x1="46.0856" y1="44.302" x2="42.1126" y2="16.6891">
		<stop  offset="0" style="stop-color:#CE9F3B"/>
		<stop  offset="0.5553" style="stop-color:#DDAC46"/>
		<stop  offset="1" style="stop-color:#AB7822"/>
	</linearGradient>
	<path class="st0" d="M58,30.5c0,2.8-0.8,5.5-2.3,7.7c-2.5,3.8-6.8,6.3-11.7,6.3c-4.9,0-9.2-2.5-11.7-6.3c-1.5-2.2-2.3-4.8-2.3-7.7
		c0-7.7,6.2-13.9,13.9-13.9C51.8,16.5,58,22.8,58,30.5z"/>
	<linearGradient id="SVGID_2_" gradientUnits="userSpaceOnUse" x1="0" y1="40" x2="90" y2="40">
		<stop  offset="0" style="stop-color:#CE9F3B"/>
		<stop  offset="0.5553" style="stop-color:#DDAC46"/>
		<stop  offset="1" style="stop-color:#AB7822"/>
	</linearGradient>
	<path class="st1" d="M90,0.8c0,6.7-1,16.8-5.3,28c-0.7,1.7-1.4,3.5-2.3,5.3c-0.7,1.4-1.4,2.8-2.1,4.1c-2,3.5-4,6.5-6.1,9.1
		c-3.2,4.2-6.3,7.3-8.5,9.5c-3.6,3.6-7.3,6.6-10.9,9.3c-9.9,7.2-19.8,11.4-27.2,13.9c1.3-1.5,5.6-7.1,5.2-13.9
		c0-0.6-0.1-1.2-0.2-1.9c-1-5.2-4.7-8.7-8.7-11.3c-2-1.3-4.2-2.4-6.1-3.4c-1.6-0.8-3.1-1.5-4.6-2.1C8.2,45.5,3.7,44.8,0,44.7v-0.5
		c4.7-1,11.4-1.9,19.4-1c1.5,0.2,3,0.4,4.4,0.7c4.4,0.9,8.2,2.1,11.4,3.4c1.2,0.5,2.4,1,3.4,1.6c2.3,1.1,4.8,1.8,7.3,1.8
		c1.7,0,3.5-0.2,5.5-0.6c1.9-0.4,4.2-1.1,7.1-2.8c3-1.8,6.5-4.6,10.6-9.1c0.9-1,1.7-2,2.6-3.1c3.3-4.1,6.1-8.4,8.5-12.7
		c4.3-7.6,7.3-15.3,9.3-22.3L90,0.8z"/>
</g>
</svg>
