<?xml version="1.0" encoding="utf-8"?>
<!-- Generator: Adobe Illustrator 23.1.0, SVG Export Plug-In . SVG Version: 6.00 Build 0)  -->
<svg version="1.1" id="Isolation_Mode" xmlns="http://www.w3.org/2000/svg" xmlns:xlink="http://www.w3.org/1999/xlink" x="0px"
	 y="0px" viewBox="0 0 3421 606.8" style="enable-background:new 0 0 3421 606.8;" xml:space="preserve">
<style type="text/css">
	.st0{fill:#152036;}
</style>
<path class="st0" d="M3459.8,606.7v-2.1v-19.4v-19.4v-19.4V527v-19.4h-58.6v-4.4V490v-13v-13.2v-13.2v-13.2v-13.2V411v-13.2v-13.2
	v-13.2v-13.2V345h-5.4v-0.7v-0.9v-0.9v-0.9v-0.9v-0.9v-0.9V338v-1v-0.9v-0.9v-0.9v-0.9v-0.9h-5.4h-0.7V332v-0.9v-0.9v-0.9v-0.9v-0.9
	v-0.9v-0.9v-0.9v-0.9V323v-0.9v-0.9v-0.9h-4.6h-4.6h-4.6h-4.6h-4.6h-4.6h-4.6h-4.6h-4.6h-4.6h-4.6h-4.6h-4.6h-4.6h-4.6h-4.6v0.9v0.9
	v0.9v0.9v0.9v0.9v0.9v0.9v0.9v0.9v0.9v0.9v0.9v0.3h-0.7h-5.4v0.9v0.9v0.9v0.9v0.9v0.9v0.9v0.9v0.9v0.9v0.9v0.9v0.9v0.7h-0.3h-6.1
	v13.2v13.2v13.2v13.2v13.2v13.2v13.2v13.2v13.2v7.3h-1.6h-3.6h-3.6h-3.6h-3.6h-3.6h-0.9v-9.2V443v-18.8v-18.8v-18.8v-18.8V349v-18.8
	v-18.8v-18.8v-18.8V255l-6,0.9l-4.7,0.7V256v-2.8v-2.8v-2.8v-2.8V242v-2.8v-2.8v-2.8v-2.8V228l-4.7,0.9l-4.7,0.9l-4.7,0.9l-4.7,0.9
	l-4.7,0.9l-4.7,0.9l-4.7,0.9l-4.7,0.9l-4.7,0.9l-4.7,0.9l-4.7,0.9l-4.7,0.9l-4.7,0.9l-4.7,0.9l-4.7,0.9l-4.7,0.9v2v2v2v2v2v2v2v2v2
	v2v2v2v1.9l-4.7,0.7l-6,0.9v18v18v18v18v18v18v18v18v18v1.5l-0.6-0.1l-2.5-0.5l-2.5-0.5l-2.5-0.5l-2.5-0.5l-2.5-0.5l-2.5-0.5
	l-2.5-0.5l-2.5-0.5l-2.5-0.5v-2.4V424v-2.4v-2.4v-2.4v-2.4V412v-2.4v-2.4v-2.4v-2.4V398v-2.4v-2.4v-2.4v-2.4l-1.9-1.1l-1.9-1.1
	l-1.9-1.1l-1.9-1.1l-1.9-1.1l-1.9-1.1l-1.9-1.1l-1.9-1.1l-1.9-1.1l-1.9-1.1l-1.9-1.1l-1.9-1.1l-1.9-1.1l-1.9-1.1l-1.9-1.1l-1.9-1.1
	l-1.9,0.4l-1.9,0.4l-1.9,0.4l-1.9,0.4l-1.9,0.4l-1.9,0.4l-1,0.2V357v-18.5V321v-18.5V284v-18.5V247l-1.1-2.3l-1.1-2.3l-1.1-2.3
	l-1.1-2.3l-1.1-2.3l-1.1-2.3l-1.1-2.3l-1.1-2.3l-1.1-2.3l-1.1-2.3l-1.1-2.3l-1.1-2.3l-1.1-2.3l-1.1-2.3l-1.1-2.3l-1.1-2.3v-5.4v-5.4
	V194v-5.4v-5.4v-5.4V172v-5.4v-5.4v-5.4v-5.4V145v-5.4v-5.4v-5.4v-5.4l-2.4-4.2l-2.4-4.2l-2.4-4.2l-2.4-4.2l-2.4-4.2l-2.4-4.2
	l-2.4-4.2l-2.4-4.2l-2.4-4.2l-2.4-4.2l-2.4-4.2l-2.4-4.2l-2.4-4.2l-2.4-4.2l-2.4-4.2l-2.4-4.2l-2.8,4.2l-2.8,4.2l-2.8,4.2l-2.8,4.2
	l-2.8,4.2l-2.8,4.2l-2.8,4.2l-2.8,4.2l-2.8,4.2l-2.8,4.2l-2.8,4.2l-2.8,4.2l-2.8,4.2l-2.8,4.2l-2.8,4.2l-2.8,4.2v26.2v26.2V202v26.2
	v26.2v26.2v26.2V333v26.2v26.2v26.2v26.2V464v23.1h-1.2h-5.1h-5.1h-5.1h-5.1h-5.1h-5.1h-1.9v-5.7v-7.9v-7.9v-7.9v-7.9V442v-7.9v-7.9
	v-7.9v-7.9v-7.9l-6-1.1v-2.5V396v-3.1v-3.1v-3.1v-3.1v-3.1v-3.1V374v-3.1v-3.1v-3.1v-3.1v-3.1h-1.6h-1.6h-1.6h-1.6h-1.6h-1.6h-1.6
	h-1.6h-1.6h-1.6h-1.6h-1.6h-1.6h-1.6h-1.6h-1.6v2.5v2.5v2.5v2.5v2.5v2.5v2.5v2.5v2.5v2.5v2.5v2.5v2.5v2.5v2.5v1.6l-7.7-1.5l-9.8-1.9
	l-9.8-1.9l-9.8-1.9l-9.8-1.9l-9.8-1.9l-9.8-1.9l-9.8-1.9l-9.8-1.9l-9.8-1.9l-9.8-1.9l-9.8-1.9l-9.8-1.9l-3.8,1.9l-3.8,1.9l-3.8,1.9
	l-3.8,1.9l-3.8,1.9l-3.8,1.9l-3.8,1.9l-3.8,1.9l-3.8,1.9l-3.7,1.8v-5.7v-14.8v-14.8v-14.8v-14.8v-14.8V297v-14.8v-14.8v-14.8
	c0-0.6,0-1.1,0-1.6s-0.1-1-0.2-1.5c-0.1-0.5-0.2-1-0.3-1.4s-0.2-0.9-0.4-1.4c-0.1-0.4-0.3-0.9-0.5-1.3c-0.2-0.4-0.4-0.8-0.6-1.2
	s-0.4-0.7-0.7-1.1s-0.5-0.7-0.7-1c-0.3-0.3-0.5-0.6-0.8-0.9c-0.3-0.3-0.6-0.6-0.9-0.8c-0.3-0.3-0.6-0.5-1-0.8s-0.7-0.5-1.1-0.7
	s-0.7-0.4-1.1-0.6s-0.8-0.4-1.2-0.6s-0.8-0.3-1.3-0.5s-0.9-0.3-1.3-0.4h-0.1h-0.1h-0.1h-0.1h-0.1h-0.1h-0.1h-0.1h-0.1h-0.1h-0.1
	h-0.1h-0.1h-0.1h-0.1h-0.1c-0.1,0-0.3-0.1-0.5-0.1s-0.3-0.1-0.5-0.1s-0.3-0.1-0.5-0.1s-0.3-0.1-0.5-0.1s-0.3-0.1-0.5-0.1
	s-0.3,0-0.5-0.1c-0.2,0-0.3,0-0.5-0.1c-0.2,0-0.3,0-0.5-0.1s-0.3,0-0.5-0.1c-0.2,0-0.3,0-0.5,0s-0.3,0-0.5,0s-0.3,0-0.5,0
	s-0.3,0-0.5,0s-0.3,0-0.5,0s-0.3,0-0.5,0s-0.3,0-0.5,0v-2.3v-2.3V229v-2.3v-2.3v-2.3V219v-2.3v-2.3V212v-2.3v-2.3V205v-2.3v-2.3V198
	l0,0l0,0c0,0,0,0-0.1,0s0,0-0.1,0h-0.1h-0.1h-0.1c0,0-0.1,0-0.1-0.1c-0.1,0-0.1,0-0.2-0.1s-0.1,0-0.2-0.1s-0.1,0-0.2-0.1
	s-0.1-0.1-0.2-0.1c-0.1,0-0.2-0.1-0.2-0.1c-0.1,0-0.2-0.1-0.2-0.1c-0.1,0-0.2-0.1-0.3-0.1s-0.2-0.1-0.3-0.1h-0.1h-0.1h-0.1h-0.1
	h-0.1h-0.1h-0.1h-0.1h-0.1h-0.1h-0.1h-0.1h-0.1h-0.1h-0.1h-0.1c-0.2-0.1-0.3-0.1-0.5-0.2c-0.2-0.1-0.3-0.1-0.5-0.2
	c-0.2-0.1-0.3-0.1-0.5-0.2c-0.2-0.1-0.4-0.1-0.5-0.2s-0.4-0.1-0.6-0.2s-0.4-0.1-0.6-0.2c-0.2-0.1-0.4-0.1-0.6-0.2
	c-0.2-0.1-0.4-0.1-0.6-0.2c-0.2-0.1-0.4-0.1-0.7-0.2c-0.2-0.1-0.4-0.1-0.7-0.2c-0.2-0.1-0.5-0.2-0.7-0.2c-0.2-0.1-0.5-0.2-0.7-0.2
	s-0.5-0.2-0.7-0.2c-0.2-0.1-0.5-0.2-0.7-0.2s-0.5-0.2-0.8-0.2s-0.5-0.2-0.8-0.2h-0.1h-0.1h-0.1h-0.1h-0.1h-0.1h-0.1h-0.1h-0.1h-0.1
	h-0.1h-0.1h-0.1h-0.1h-0.1h-0.1c-0.2-0.1-0.4-0.1-0.6-0.2c-0.2-0.1-0.4-0.1-0.6-0.2s-0.4-0.1-0.6-0.2c-0.2-0.1-0.4-0.1-0.6-0.2
	c-0.2-0.1-0.4-0.1-0.6-0.2c-0.2-0.1-0.4-0.1-0.6-0.2s-0.4-0.1-0.6-0.2c-0.2-0.1-0.4-0.1-0.6-0.2c-0.2-0.1-0.4-0.1-0.6-0.2
	s-0.4-0.1-0.6-0.2c-0.2-0.1-0.4-0.1-0.7-0.2c-0.2-0.1-0.4-0.1-0.7-0.2c-0.2-0.1-0.4-0.1-0.7-0.2s-0.4-0.1-0.7-0.2s-0.4-0.1-0.7-0.2
	c-0.2-0.1-0.4-0.1-0.7-0.2h-0.1h-0.1h-0.1h-0.1h-0.1h-0.1h-0.1h-0.1h-0.1h-0.1h-0.1h-0.1h-0.1h-0.1h-0.1h-0.1
	c-0.2,0-0.4-0.1-0.6-0.1c-0.2,0-0.4-0.1-0.6-0.1c-0.2,0-0.4-0.1-0.6-0.1c-0.2,0-0.4-0.1-0.6-0.1c-0.2,0-0.4-0.1-0.6-0.1
	c-0.2,0-0.4-0.1-0.6-0.1c-0.2,0-0.4-0.1-0.6-0.1c-0.2,0-0.4-0.1-0.6-0.1s-0.4-0.1-0.6-0.1c-0.2,0-0.4-0.1-0.6-0.1s-0.4-0.1-0.6-0.1
	s-0.4-0.1-0.6-0.1c-0.2,0-0.4-0.1-0.6-0.1s-0.4-0.1-0.6-0.1c-0.2,0-0.4-0.1-0.6-0.1c-0.2,0-0.4-0.1-0.6-0.1h-0.1h-0.1h-0.1h-0.1
	h-0.1h-0.1h-0.1h-0.1h-0.1h-0.1h-0.1h-0.1h-0.1h-0.1h-0.1h-0.1c-0.2,0-0.4-0.1-0.6-0.1s-0.4-0.1-0.6-0.1c-0.2,0-0.4-0.1-0.6-0.1
	c-0.2,0-0.4-0.1-0.6-0.1s-0.4-0.1-0.6-0.1s-0.4,0-0.6-0.1c-0.2,0-0.4,0-0.6-0.1c-0.2,0-0.4,0-0.6-0.1s-0.4,0-0.6-0.1s-0.4,0-0.6-0.1
	c-0.2,0-0.4,0-0.6,0c-0.2,0-0.4,0-0.6,0s-0.4,0-0.6,0s-0.4,0-0.6,0c-0.2,0-0.4,0-0.6,0s-0.4,0-0.6,0h-0.1h-0.1h-0.1h-0.1h-0.1h-0.1
	h-0.1h-0.1h-0.1h-0.1h-0.1h-0.1h-0.1h-0.1h-0.1h-0.1c-0.2,0-0.5,0-0.7,0s-0.5,0-0.7,0s-0.5,0-0.7,0s-0.4,0-0.7,0s-0.4,0-0.7,0
	c-0.2,0-0.4,0-0.7,0s-0.4,0-0.6,0c-0.2,0-0.4,0-0.6,0.1c-0.2,0-0.4,0-0.6,0.1c-0.2,0-0.4,0-0.6,0.1s-0.4,0.1-0.6,0.1
	c-0.2,0-0.4,0.1-0.6,0.1c-0.2,0-0.4,0.1-0.6,0.1s-0.4,0.1-0.6,0.1c-0.2,0-0.4,0.1-0.6,0.1c-0.2,0-0.4,0.1-0.6,0.1h-0.1h-0.1h-0.1
	h-0.1h-0.1h-0.1h-0.1h-0.1h-0.1h-0.1h-0.1h-0.1h-0.1h-0.1h-0.1h-0.1c-0.5,0.1-0.9,0.3-1.3,0.4s-0.9,0.3-1.3,0.5
	c-0.4,0.2-0.8,0.4-1.2,0.6s-0.8,0.4-1.1,0.6c-0.4,0.2-0.7,0.5-1.1,0.7s-0.7,0.5-1,0.8s-0.6,0.6-0.9,0.8s-0.6,0.6-0.8,0.9
	s-0.5,0.7-0.7,1s-0.5,0.7-0.7,1.1s-0.4,0.8-0.6,1.2c-0.2,0.4-0.3,0.8-0.5,1.3s-0.3,0.9-0.4,1.4s-0.2,0.9-0.3,1.4s-0.1,1-0.2,1.5
	c0,0.5-0.1,1.1-0.1,1.6v17.9v17.9V257v17.9v17.9v17.9v17.9v17.9v17.9v17.9v17.9v1.2h-1h-4.8h-4.8h-4.8h-4.8h-4.8h-4.8h-4.8h-4.8
	h-4.8h-2.4v-8.8V376v-16.4v-16.4v-16.4v-16.4v-7.2h7.8v-0.6v-0.7v-0.6v-0.6V300v-0.6v-0.6v-0.6v-0.6V297v-0.6v-0.6v-0.6v-0.6V294v-1
	h-8.5l-0.3-0.6l-1-1.8l-1-1.8l-1-1.8l-1-1.8l-1-1.8l-1-1.8l-1-1.8l-1-1.8l-1-1.8l-1-1.8l-1-1.8l-1-1.8l-1-1.8l-1-1.8l-1-1.8h-8.2
	h-8.2h-8.2h-8.2h-8.2h-8.2h-8.2h-8.2h-8.2h-8.2h-8.2h-8.2h-8.2h-8.2h-8.2h-8.2l-1,1.8l-1,1.8l-1,1.8l-1,1.8l-1,1.8l-1,1.8l-1,1.8
	l-1,1.8l-1,1.8l-1,1.8l-1,1.8l-1,1.8l-1,1.8l-1,1.8l-1,1.8l-0.3,0.6h-8.5v0.6v0.6v0.6v0.6v0.6v0.6v0.6v0.6v0.6v0.6v0.6v0.7v0.6v0.6
	v0.7v0.6h7.8v7.2v16.4v16.4v16.4V376v16.4v16.4v16.4v16.4V458v16.4v16.4v1.4h-3.5h-6.1h-6.1h-6.1h-6.1h-6.1h-4.3v-10.7V469v-12.5
	V444v-12.5V419v-12.5V394v-12.5V369v-12.5h-5.4h-0.7V356v-1.6v-1.6v-1.6v-1.6V348v-1.6V345v-1.6v-1.6v-1.6v-1.6V337v-1.6v-1.6h-5.5
	h-5.5h-5.5h-5.5h-5.5h-5.5h-5.5h-5.5h-5.5h-5.5h-5.5h-5.5h-5.5h-5.5h-3.6l0,0V331v-2.8v-2.8v-2.8v-2.8V317v-3v-2.8h-7.1v-1.1v-2.3
	v-2.3V303v-2.3v-2.3V296v-2.3v-2.3V289v-2.3v-2.3v-2.3v-2.3v-2.3h-7.3h-7.3h-7.3h-7.3h-7.3h-7.3h-7.3h-7.3h-7.3h-7.3h-7.3h-7.3h-7.3
	h-7.3h-7.3h-7.3v2.3v2.3v2.3v2.3v2.3v2.3v2.3v2.3v2.3v2.3v2.3v2.3v2.3v2.3v1.1h-7.9v15.3v15.3v15.3V372v15.3V403v15.3v15.3v15.3
	v14.8h-1.5h-3.3h-3.3h-3.3h-3.3h-3.3h-3.3h-3.3h-1.1V456v-11.1v-11.1v-11.1v-11.1v-11.1v-11.1v-11.1h-0.7h-0.7h-0.7h-0.7h-0.7h-0.7
	h-0.7h-0.7h-0.7h-0.7h-0.7h-0.7h-0.7h-0.7h-0.7h-0.7l-0.5-1.6l-0.5-1.6l-0.5-1.6l-0.5-1.6l-0.5-1.6l-0.5-1.6l-0.5-1.6l-0.5-1.6
	l-0.5-1.6l-0.5-1.6l-0.5-1.6l-0.5-1.6l-0.5-1.6l-0.5-1.6l-0.5-1.6l-0.5-1.6h-7.3h-7.3h-7.3h-7.3h-7.3h-7.3h-7.3h-7.3h-7.3h-7.3h-7.3
	h-7.3h-7.3h-7.3h-7.3h-0.9v-22.3v-22.6v-22.6v-22.6V240v-22.6V195l-5.4,0.8l-4.2,0.6v-0.1v-2.5v-2.5v-2.5v-2.5v-2.5V181v-2.5V176
	v-2.5V171l-4.2,0.8l-4.2,0.8l-4.2,0.8l-4.2,0.8l-4.2,0.8l-4.2,0.8l-4.2,0.8l-4.2,0.8l-4.2,0.8l-4.2,0.8l-4.2,0.8l-4.2,0.8l-4.2,0.8
	l-4.2,0.8l-4.2,0.8l-4.2,0.8v1.7v1.7v1.7v1.7v1.7v1.7v1.7v1.7v1.7v1.7v1.7v1.7v1.7l-4.2,0.6l-5.4,0.8v21.8v21.8V273v21.8v21.8v21.8
	v21.8V382v8.6l-5-0.8l-9.6-1.5l-2-0.3v-3v-3.9v-3.9v-3.9v-3.9v-3.9v-3.9V358v-3.9v-3.9v-3.9v-3.9v-3.9v-3.9l-6.9,0.6l-5.2,0.5V335
	v-1.6V332v-1.6v-1.6V327v-1.6v-1.6v-1.6v-1.6V319v-1.6v-1.6v-1.6v-1.6l-5.4,0.6l-5.4,0.6l-5.4,0.6l-5.4,0.6l-5.4,0.6l-5.4,0.6
	l-5.4,0.6l-5.4,0.6l-5.4,0.6l-5.4,0.6l-5.4,0.6l-5.4,0.6l-5.4,0.6l-5.4,0.6l-5.4,0.6l-5.4,0.6v1.4v1.4v1.4v1.4v1.4v1.4v1.4v1.4v1.4
	v1.4v1.4v1.4v1.4v1.4v1.4v0.1l-5.2,0.5l-6.9,0.6v2.2v2.2v2.2v2.2v2.2v2.2v2.2v2.2v2.2v2.2v2.2v1l-1.9-0.3l-9.6-1.5l-9.6-1.5v11.8
	v11.8v11.8v11.8V426v11.8v11.8v11.6h-0.2h-5.4h-5.4h-5.4h-5.4h-5.4h-5.4h-1.9v-0.3v-7.8v-7.8v-7.8v-7.8v-7.8v-7.8v-7.8v-7.8h-6.2
	h-1.8v-6.6v-8.2v-8.2v-8.2v-8.2v-8.2v-8.2V334v-8.2v-8.2v-8.2V301v-8.2v-8.2v-8.2v-8.2h-5.2h-2V265v-4.7v-4.7v-4.7v-4.7v-4.7v-4.7
	v-4.7v-4.7V223v-4.7v-4.7V209v-4.7v-4.7V195h-4.3h-4.3h-0.2v-3.2v-4.3v-4.3V179v-4.3v-4.3v-4.3v-4.3v-4.3v-4.3V149v-4.3v-4.3v-4.3
	v-4.3v-4.3h-3.2h-3.2h-3.2h-3.2h-3.2h-3.2h-3.2h-3.2h-3.2h-3.2h-3.2h-3.2h-3.2h-3.2h-3.2h-3.2v4.3v4.3v4.3v4.3v4.3v4.3v4.3v4.3v4.3
	v4.3v4.3v4.3v4.3v4.3v4.3v3.2h-0.2h-4.3h-4.3v4.7v4.7v4.7v4.7v4.7v4.7v4.7v4.7v4.7v4.7v4.7v4.7v4.7v4.7v4.7v3.2h-2h-5.2v8.2v8.2v8.2
	v8.2v8.2v8.2v8.2v8.2v8.2v8.2v8.2v8.2v8.2v8.2v8.2v6.6h-1.8h-6.2v7.8v7.8v7.8v7.8v7.8v7.8v7.8v7.8v7.8v7.8v7.8v7.8v7.8v7.6h-16
	h-18.5v-2.9V488v-16.8v-16.8v-16.8v-16.8V404v-17v-16.8v-16.8v-16.8v-16.8V303v-16.8l-4.7,0.9l-3.5,0.6v-1.5v-3V280v-3v-2.9v-2.9v-3
	v-2.9v-3v-2.9v-3v-2.9v-2.9v-2.9v-2.9l-3.7,1l-3.7,1l-0.2,0.1v-1.4v-1.6V242v-1.6v-1.6v-1.6v-1.6V234v-1.6v-1.6v-1.6v-1.6V226v-1.6
	l-2.7-1.1l-2.7-1.1l-2.7-1.1l-2.7-1.1l-2.7-1.1l-2.7-1.1l-2.7-1.1l-2.7-1.1l-2.7-1.1l-2.7-1.1l-2.7-1.1l-2.7-1.1l-2.7-1.1l-2.7-1.1
	l-2.7-1.1l-2.7-1.1v3.4v3.4v3.4v3.4v3.4v3.4v3.4v3.4v3.4v3.4v3.4v3.4v3.4v3.4v3.4v0.8l-0.2,0.1l-3.7,1l-3.7,1v2.5v2.5v2.5v2.5v2.5
	v2.5v2.5v2.5v2.5v2.5v2.5v2.5v2.5v2.5v2.2l-3.5,0.6l-4.7,0.9v16v16v16v16v16v16v16v16v13.8h-1.2h-4.8h-4.8h-4.8h-4.8h-4.8h-4.8h-3
	v-6.3v-11.3v-11.3V401v-11.3v-11.3v-11.3v-11.3v-11.3l-4.1,1.2l-4.1,1.2l-3.5,1v-1.3v-1.4v-1.4v-1.4V341v-1v-1.4v-1.4v-1.4v-1.4
	l-7.6,2.4l-7.6,2.4l-7.6,2.4l-7.6,2.4l-7.6,2.4l-7.6,2.4l-7.6,2.4l-7.6,2.4l-7.6,2.4l-7.6,2.4l-7.6,2.4l-7.6,2.4l-7.6,2.4l-7.6,2.4
	l-7.6,2.4l-7.6,2.4v1.1v1.1v1.1v1.1v1.1v1.1v1.1v1.1v1.1v1h-0.2l-1.9,0.6l-1.9,0.6l-1.9,0.6l-1.9,0.6l-1.9,0.6l-1.9,0.6v8.6v8.7v8.7
	v8.6v8.7v8.7v8.6v8.7v8.6v8.7v8.7v8.7v6h-2h-5.5h-5.5h-5.5h-5.5h-5.5h-5.5h-5.5h-3.7v-3.8V484v-9.5V465v-9.5V446v-9.5V427v-10v-9.5
	V398v-9.5V379h-5.4h-5.4h-3.5v-0.4v-2.2v-2.2V372v-2.2v-2.2v-2.2v-2.2V361v-2.2v-2.2v-2.2v-2.2V350v-2.2v-2.2h-4.5h-4.5h-4.5V345v-1
	v-1v-1v-1v-1v-1v-1v-1v-1v-1v-1v-1v-1v-1h-3.7h-3.7h-3.7h-3.7h-3.7h-3.7h-3.7h-3.7h-3.7h-3.7h-3.7h-3.7h-3.7h-3.7h-3.7h-3.7v1v1v1v1
	v1v1v1v1v1v1v1v1v1v1v0.2v0.9v1v0.4v2.2v2.2v2.2v2.2v2.2v2.2v2.2v2.2v2.2v2.2v2.2v2.2v2.2v2.2v0.4v1.9v7.6v9.5v9.5v9.5v9.5v9.5v9.5
	v9.5v9.5v9.5v0.6h-0.4h-6.2h-6.2h-6.2h-6.2h-6.2h-6.2h-6.2h-6.2h-3.5V460v-18.9v-18.9v-18.9v-18.9v-18.9v-18.9v-18.9v-18.9v-18.9
	V271v-18.9V233v-19h-0.6h-0.6h-0.6h-0.6h-0.6h-0.6h-0.6h-0.6h-0.6h-0.6h-0.6h-0.6h-0.6h-0.6h-0.6h-0.5v-1.7v-1.7V209v-1.7v-1.7V204
	v-1.7v-1.7V199v-1.7v-1.7V194v-1.7v-1.7V189v-1.7l-0.6-0.9l-0.6-0.9l-0.6-0.9l-0.6-0.9l-0.6-0.9l-0.6-0.9l-0.6-0.9l-0.6-0.9
	l-0.6-0.9l-0.6-0.9l-0.6-0.9l-0.6-0.9l-0.6-0.9l-0.6-0.9l-0.6-0.9l-0.6-0.9c-0.4-0.7-0.8-1.5-1.3-2.3s-0.9-1.7-1.4-2.6
	c-0.5-0.9-1-1.9-1.5-2.9s-1.1-2.1-1.6-3.2c-0.6-1.1-1.1-2.3-1.7-3.5s-1.2-2.4-1.7-3.7c-0.6-1.3-1.2-2.6-1.8-3.9
	c-0.6-1.3-1.2-2.7-1.8-4.1c-0.6-1.4-1.2-2.9-1.8-4.3c-0.6-1.5-1.2-3-1.7-4.5c-0.6-1.5-1.1-3.1-1.7-4.7s-1.1-3.2-1.6-4.8
	s-1-3.3-1.5-4.9c-0.5-1.7-0.9-3.3-1.4-5s-0.8-3.4-1.2-5.1c-0.4-1.7-0.7-3.5-1.1-5.2c-0.5,2-1,4-1.4,6c-0.5,2-1,3.9-1.5,5.7
	c-0.5,1.9-1,3.7-1.6,5.5c-0.5,1.8-1.1,3.5-1.6,5.2s-1.1,3.4-1.7,5s-1.1,3.2-1.7,4.7s-1.1,3-1.7,4.5c-0.6,1.4-1.1,2.9-1.7,4.2
	s-1.1,2.7-1.7,4s-1.1,2.5-1.6,3.7s-1.1,2.3-1.6,3.4c-0.5,1.1-1,2.2-1.5,3.2s-1,2-1.5,2.9s-0.9,1.8-1.4,2.6c-0.4,0.8-0.9,1.6-1.3,2.3
	s-0.8,1.4-1.2,2.1l-0.6,0.9l-0.6,0.9l-0.6,0.9l-0.6,0.9l-0.6,0.9l-0.6,0.9l-0.6,0.9l-0.6,0.9l-0.6,0.9l-0.6,0.9l-0.6,0.9l-0.6,0.9
	l-0.6,0.9l-0.6,0.9l-0.6,0.9l-0.6,0.9v1.7v1.7v1.7v1.7v1.7v1.7v1.7v1.7v1.7v1.7v1.7v1.7v1.7v1.7v1.7v1.7h-0.6h-0.6h-0.6h-0.6h-0.6
	h-0.6h-0.6h-0.6h-0.6h-0.6h-0.6h-0.6h-0.6h-0.6h-0.6h-0.6V233v18.9v18.9v18.9v18.9v18.9v18.9v18.9v18.9v18.9v18.6h-2.1h-4.6h-4.6
	h-4.6h-4.6h-4.6h-4.6h-4.6h-4.6h-4.6h-4.6h-4.6h-4.6v-0.8l-0.1-3.5l-0.1-3.5l-0.1-3.5v-0.3v-0.3v-0.3v-0.3v-0.3v-0.3v-0.3V408v-0.3
	v-0.3v-0.3v-0.3v-0.3v-0.3v-0.3v-0.3l-0.1-3.5l-0.1-3.5l-0.1-3.5l-0.1-3.5l-0.1-3.5l-0.1-3.5l-0.1-3.5l-0.1-3.5l-0.1-3.5l-0.1-3.5
	l-0.1-3.5l-0.1-3.5l-0.1-3.5l-0.1-3.5l-0.1-3.5l-0.1-3.5v-0.3V349v-0.3v-0.3v-0.3v-0.3v-0.3v-0.3v-0.3v-0.3v-0.3V346v-0.3v-0.3v-0.3
	v-0.3l-0.1-3.7l-0.1-3.7l-0.1-3.7l-0.1-3.7l-0.1-3.7l-0.1-3.7l-0.1-3.7l-0.1-3.7l-0.1-3.7l-0.1-3.7l-0.1-3.7l-0.1-3.7l-0.1-3.7
	l-0.1-3.7l-0.1-3.7l-0.1-3.7h-3.5h-3.5h-3.5h-3.5h-3.5h-3.5h-3.5h-3.5h-3.5h-3.5h-3.5h-3.5h-3.5h-3.5h-3.5h-3.5l-0.1,3.7l-0.1,3.7
	l-0.1,3.7l-0.1,3.7l-0.1,3.7l-0.1,3.7l-0.1,3.7l-0.1,3.7l-0.1,3.7l-0.1,3.7l-0.1,3.7l-0.1,3.7l-0.1,3.7l-0.1,3.7l-0.1,3.7l-0.1,3.7
	v0.3v0.3v0.3v0.3v0.3v0.3v0.3v0.3v0.3v0.3v0.3v0.3v0.3v0.3v0.3v0.3l-0.1,3.5l-0.1,3.5l-0.1,3.5l-0.1,3.5l-0.1,3.5l-0.1,3.5l-0.1,3.5
	l-0.1,3.5l-0.1,3.5l-0.1,3.5l-0.1,3.5l-0.1,3.5l-0.1,3.5l-0.1,3.5l-0.1,3.5l-0.1,3.5v0.3v0.3v0.3v0.3v0.3v0.3v0.3v0.3v0.3v0.3v0.3
	v0.3v0.3v0.3v0.3v0.3l-0.1,3.5l-0.1,3.5l-0.1,3.5l-0.1,3.5l-0.1,3.5l-0.1,3.5l-0.1,3.5l-0.1,3.5l-0.1,3.5l-0.1,3.5l-0.1,3.5
	l-0.1,3.5l-0.1,3.5l-0.1,3.5l-0.1,3.5l-0.1,3.5v0.3v0.3v0.3v0.3v0.3v0.3v0.3v0.3v0.3v0.3v0.3v0.3v0.3v0.3v0.3v0.3l-0.1,3.5l-0.1,3.5
	l-0.1,3.5l-0.1,3.5v1.2h-5.5h-7h-7h-7h-7h-7h-7h-7h-7h-7H954v-2.6v-3.4V477v-3.4v-3.4h0.5h0.5h0.5h0.5h0.5h0.5h0.5h0.5h0.5h0.5h0.5
	h0.5h0.5h0.5h0.5h0.5v-5.9v-5.9v-5.9v-5.9v-5.9v-5.9v-5.9V423v-5.9v-5.9v-5.9v-5.9V394v-5.9v-5.9v-5.9h-3.5H955h-3.5H948h-3.5H941
	h-3.5H934h-3.5H927h-3.5H920h-3.5H913h-4h-3.5l-4.8-2.7l-4.8-2.7l-4.8-2.7l-4.8-2.7l-4.8-2.7l-4.8-2.7L872,357l-4.8-2.7l-4.8-2.7
	l-4.8-2.7l-4.8-2.7l-4.8-2.7l-4.8-2.7l-4.8-2.7l-4.8-2.7l-4.8-2.7v12v12v12v12v12v12v12v6.2h-1.2h-4.8H818h-4.8h-4.8h-4.8h-4.8H794
	h-5h-4.8h-4.8h-4.8h-3.9v-10.4V396v-16.5V363v-16.5V330v-16.5V297v-16.5V264c-1.7-0.5-3.3-1-4.9-1.4c-1.6-0.5-3.2-0.9-4.8-1.4
	c-0.2-0.1-0.5-0.1-0.7-0.2v-0.7v-1.7v-1.7v-1.7v-1.7v-1.7v-1.7v-1.7V247v-1.7v-1.7V242v-1.7l-4-1.5l-2.4-0.9v-1.8v-3.8v-3.8v-3.8
	v-3.8v-3.8v-3.8v-3.8V206v-3.8v-3.8v-3.8v-3.8V187v-3.8l-1.7,1.5l-1.7,1.5l-1.7,1.5l-1.7,1.5l-1.7,1.5l-1.7,1.5l-1.7,1.5l-1.7,1.5
	l-1.7,1.5l-1.7,1.5l-1.7,1.5l-1.7,1.5l-1.7,1.5l-1.7,1.5l-1.7,1.5l-1.7,1.5v1.7v1.7v1.7v1.7v1.7v1.7v1.7v1.7v1.7v1.7v1.7v1.2
	l-2.2-0.8l-4-1.5l-4-1.5l-4-1.5l-4-1.5l-4-1.5l-4-1.5l-4-1.5v2.1v2.1v2.1v2.1v2.1v2.1v2.1v2.1v2.1v2.1v2.1v2.1v1.9
	c-1-0.3-2-0.6-3-0.9c-2.4-0.7-4.9-1.4-7.5-2.2v18v18v18v18v18v18v18v18v18v18v12.8l-1.1-0.2l-2.5-0.5l-2.5-0.5l-2.5-0.5l-2.5-0.5
	l-2.5-0.5l-2.5-0.5V427v-2.4V422v-2.4v-2.4v-2.4v-2.4V410v-2.4v-2.4v-2.4v-2.4V398v-2.4v-2.4v-2.4l-1.9-1.1l-1.9-1.1l-1.9-1.1
	l-1.9-1.1l-1.9-1.1l-1.9-1.1l-1.9-1.1l-1.9-1.1l-1.9-1.1l-1.9-1.1l-1.9-1.1l-1.9-1.1l-1.9-1.1l-1.9-1.1l-1.9-1.1l-1.9-1.1l-1.9,0.4
	l-1.9,0.4l-1.9,0.4l-1.9,0.4l-1.9,0.4l-1.9,0.4l-1.9,0.4l-1.9,0.4l-1.9,0.4l-1.9,0.4l-1.9,0.4l-1.9,0.4l-1.9,0.4l-1.9,0.4l-1.9,0.4
	l-1.9,0.4v2.1v2.1v2.1v2.1v2.1v2.1v2.1v2.1v2.1v2.1v2.1v2.1v2.1v2.1v2.1v2.1l-1.6,0.5l-1.6,0.5l-1.6,0.5l-1.6,0.5l-1.6,0.5l-1.6,0.5
	l-1.6,0.5l-1.6,0.5l-1.6,0.5l-1.6,0.5l-1.6,0.5l-0.9,0.3v-7.9v-15.8v-15.8v-15.8v-15.8v-15.8V318v-15.8l-2.4-1.3l-2.4-1.3l-2.4-1.3
	L581,297l-2.4-1.3l-2.4-1.3l-2.4-1.3l-2.4-1.3l-2.4-1.3l-2.4-1.3l-2.4-1.3l-2.4-1.3l-2.4-1.3L557,284l-2.4-1.3l-2.4-1.3l-3.7,1.4
	l-3.7,1.4l-3.7,1.4l-3.7,1.4l-3.7,1.4l-3.7,1.4l-3.7,1.4l-3.7,1.4l-3.7,1.4l-3.7,1.4l-3.7,1.4l-3.7,1.4l-3.7,1.4l-3.7,1.4l-5.4,1
	l-3.7,1.4v15.7v15.7v15.7v15.7v15.7v15.7v15.7V429v15.7v15.7v14.7H490h-7.4h-7.4h-7.4h-7.4H453h-7.4h-5.9V464v-12.9v-12.9v-12.9
	v-12.9v-12.9v-12.9v-12.9v-12.9v-12.9V335h-7.4h-7.4h-4.7v-0.5v-3.1v-3.1V325v-3v-3.1v-3.1v-3.1v-3.1v-3.1v-3.1v-3.1v-3.1v-3.1V291
	v-3.1H414h-6.2h-6.2v-0.2v-1.4v-1.4v-1.4v-1.4v-1.4v-1.4v-1.4V277v-1.4v-1.4v-1.4v-1.4V270v-1.4h-5h-5h-5h-5h-5h-5h-5h-5h-5h-5h-5
	h-2v-16v-21.3V210h-4.8H335h-0.7v-0.6v-1.6v-1.6v-1.6V203v-1.6v-1.6v-1.6V197v-1.6v-1.6v-1.6v-1.6V189h-3.2h-3.2h-3.2H321h-3.2h-3.2
	h-3.2h-3.2H305h-3.2h-3.2h-3.2h-3.2H289h-3.2h-3.2l-0.1,1.5l-0.1,1.5l-0.1,1.5l-0.1,1.5l-0.1,1.5L282,198l-0.1,1.5l-0.1,1.5
	l-0.1,1.5l-0.1,1.5l-0.1,1.5l-0.1,1.5l-0.1,1.5l-0.1,0.8h-4h-4.8h-4.8v0.5v0.5v0.5v0.5v0.5v0.5v0.5v0.5v0.5v0.5v0.5v0.5v0.5v0.5v0.5
	v0.5v0.2v0.2v0.2v0.2v0.2v0.2v0.2v0.2v0.2v0.2v0.2v0.2v0.2v0.2v0.2v0.2v0.7v0.7v0.7v0.7v0.7v0.7v0.7v0.7v0.7v0.7v0.7v0.7v0.7v0.7
	v0.7v0.7v0.2v0.2v0.2v0.2v0.2v0.2v0.2v0.2v0.2v0.2v0.2v0.2v0.2v0.2v0.2v0.2v0.7v0.7v0.7v0.7v0.7v0.7v0.7v0.7v0.7v0.7v0.7v0.7v0.7
	v0.7v0.7v0.7v0.2v0.2v0.2v0.2v0.2v0.2v0.2v0.2v0.2v0.2v0.2v0.2v0.2v0.2v0.2v0.2v0.7v0.7v0.7v0.7v0.7v0.7v0.7v0.7v0.7v0.7v0.7v0.7
	v0.7v0.7v0.7v0.7v0.2v0.2v0.2v0.2v0.2v0.2v0.2v0.2v0.2v0.2v0.2v0.2v0.2v0.2v0.2v0.2v0.7v0.7v0.7v0.7v0.7v0.7v0.7v0.7v0.7v0.7v0.7
	v0.7v0.7v0.7v0.7v0.7v0.2v0.2v0.2v0.2v0.2v0.2v0.2v0.2v0.2v0.2v0.2v0.2v0.2v0.2v0.2v0.2v0.7v0.7v0.7v0.7v0.7v0.7v0.7v0.7v0.7v0.7
	v0.7v0.7v0.7v0.7v0.7v0.7v0.2v0.2v0.2v0.2v0.2v0.2v0.2v0.2v0.2v0.2v0.2v0.2v0.2v0.2v0.2v0.2v0.7v0.7v0.7v0.7v0.7v0.7v0.7v0.7v0.7
	v0.7v0.7v0.7v0.7v0.7v0.7v0.7v0.2v0.2v0.2v0.2v0.2v0.2v0.2v0.2v0.2v0.2v0.2v0.2v0.2v0.2v0.2v0.2v0.7v0.7v0.7v0.7v0.7v0.7v0.7v0.7
	v0.7v0.7v0.7v0.7v0.7v0.7v0.7v0.7v0.2v0.2v0.2v0.2v0.2v0.2v0.2v0.2v0.2v0.2v0.2v0.2v0.2v0.2v0.2v0.2v0.7v0.7v0.7v0.7v0.7v0.7v0.7
	v0.7v0.7v0.7v0.7v0.7v0.7v0.7v0.7v0.7v0.2v0.2v0.2v0.2v0.2v0.2v0.2v0.2v0.2v0.2v0.2v0.2v0.2v0.2v0.2v0.2v0.7v0.7v0.7v0.7v0.7v0.7
	v0.7v0.7v0.7v0.7v0.7v0.7v0.7v0.7v0.7v0.7v0.2v0.2v0.2v0.2v0.2v0.2v0.2v0.2v0.2v0.2v0.2v0.2v0.2v0.2v0.2v0.2v0.7v0.7v0.7v0.7v0.7
	v0.7v0.7v0.7v0.7v0.7v0.7v0.7v0.1H263h-5.4h-5.4h-5.4h-5.4H236h-5.4h-5.4h-5.4h-5.4H209h-5.4h-5.4h-5.4h-5.4H182v2.1v2.1v2.1v2.1
	v2.1v2.1v2.1v2.1v2.1v2.1v2.1v2.1v2.1v2.1v2.1v0.6h-1.5h-6.4l-0.1,0.6l-0.1,0.6l-0.1,0.6l-0.1,0.6l-0.1,0.6l-0.1,0.6l-0.1,0.6
	l-0.1,0.6l-0.1,0.6l-0.1,0.6l-0.1,0.6l-0.1,0.6l-0.1,0.6l-0.1,0.6l-0.1,0.6l-0.1,0.6v0.1v0.1v0.1v0.1v0.1v0.1v0.1v0.1v0.1v0.1v0.1
	v0.1v0.1v0.1v0.1v0.1l-0.2,1l-0.2,0.9l-0.2,1l-0.2,0.9l-0.2,1l-0.2,0.9l-0.2,0.9l-0.2,1l-0.2,1l-0.2,0.9l-0.2,1l-0.2,1l-0.2,1
	l-0.2,1l-0.2,0.9l-0.2,1v0.1v0.1v0.1v0.1v0.1v0.1v0.1v0.1v0.1v0.1v0.1v0.1v0.1v0.1v0.1v0.1l-0.1,0.5l-0.1,0.5l-0.1,0.5l-0.1,0.5
	l-0.1,0.5l-0.1,0.5l-0.1,0.5l-0.1,0.5l-0.1,0.5l-0.1,0.5l-0.1,0.5l-0.1,0.5l-0.1,0.5l-0.1,0.5l-0.1,0.5l-0.1,0.5l-0.1,0.5l-0.1,0.5
	l-0.1,0.5l-0.1,0.5l-0.1,0.5l-0.1,0.5l-0.1,0.5l-0.1,0.5l-0.1,0.5l-0.1,0.5l-0.1,0.5l-0.1,0.5l-0.1,0.5l-0.1,0.5l-0.1,0.5l-0.1,0.5
	v0.1v0.1v0.1v0.1v0.1v0.1v0.1v0.1v0.1v0.1v0.1v0.1v0.1v0.1v0.1v0.1v5.7v5.7v5.7v5.7v0.1h-2H161h-3.8h-3.8h-3.8h-3.8h-2.2v5.6v-22.6
	v-22.6v-22.6v-22.6V352v-22.6v-22.6v-22.6v-22.6V239v-22.6v-22.6h-7.4H135V193v-2.6v-2.6v-2.6v-2.6V180v-2.6v-2.6v-2.6h-1.1h-1.1
	h-1.1h-1.1h-1.1h-1.1h-1.1h-1.1h-1.1H124h-1.1h-1.1h-1.1h-1.1h-1.1h-1.1v2.6v2.6v2.6v2.6v2.6v2.6v2.6v2.6v0.9h-3.6h-7.4H99h-7.4
	h-6.9V193v-2.6v-2.6v-2.6v-2.6V180v-2.6v-2.6v-2.6h-3.2h-3.2h-3.2h-3.2h-3.2h-3.2h-3.2h-3.2h-3.2h-3.2h-3.2h-3.2h-3.2h-3.2H37h-3.2
	v2.6v2.6v2.6v2.6v2.6v2.6v2.6v2.6v0.9H32h-7.4v22.6v22.6v22.6v22.6v22.6v22.6V352v22.6v22.6v22.6v22.6V465v22.6v20.1h-64.2v19.4
	v19.4v19.4v19.4v19.4v2.1h3499.4L3459.8,606.7L3459.8,606.7z"/>
</svg>
