<?xml version="1.0" encoding="utf-8"?>
<!-- Generator: Adobe Illustrator 23.1.0, SVG Export Plug-In . SVG Version: 6.00 Build 0)  -->
<svg version="1.1" id="Layer_1" xmlns="http://www.w3.org/2000/svg" xmlns:xlink="http://www.w3.org/1999/xlink" x="0px" y="0px"
	 viewBox="0 0 950 346.1" style="enable-background:new 0 0 950 346.1;" xml:space="preserve">
<style type="text/css">
	.st0{fill:#FFFFFF;}
	.st1{fill:url(#SVGID_1_);}
	.st2{fill:url(#SVGID_2_);}
	.st3{fill:url(#SVGID_3_);}
	.st4{fill:url(#SVGID_4_);}
</style>
<g>
	<g>
		<path class="st0" d="M8.2,295.9L0,282.4h3.2l6.4,10.7l6.4-10.7h3.2L11,295.9v9.7H8.2V295.9z"/>
		<path class="st0" d="M22.8,294c0-6.8,4.8-11.8,11.3-11.8c6.5,0,11.4,5,11.4,11.8c0,6.8-4.8,11.8-11.4,11.8
			C27.6,305.8,22.8,300.8,22.8,294z M42.5,294c0-5.3-3.6-9.3-8.5-9.3c-4.8,0-8.4,4-8.4,9.3c0,5.3,3.6,9.3,8.4,9.3
			C38.9,303.3,42.5,299.3,42.5,294z"/>
		<path class="st0" d="M52.9,297.6v-15.2h2.8v15.3c0,3.4,2.4,5.5,5.9,5.5c3.6,0,6-2.1,6-5.5v-15.3h2.8v15.2c0,5.1-3.5,8.2-8.8,8.2
			C56.4,305.8,52.9,302.7,52.9,297.6z"/>
		<path class="st0" d="M84,285h-7.4v-2.5h17.6v2.5h-7.4v20.6H84V285z"/>
		<path class="st0" d="M115.8,294.9h-12.3v10.7h-2.8v-23.1h2.8v9.9h12.3v-9.9h2.8v23.1h-2.8V294.9z"/>
		<path class="st0" d="M145.6,282.4h2.6l9.2,23.1h-2.9l-2.4-6.2h-10.3l-2.4,6.2h-2.9L145.6,282.4z M151.1,296.8l-4.2-10.9l-4.2,10.9
			H151.1z"/>
		<path class="st0" d="M166,285h-7.4v-2.5h17.6v2.5h-7.4v20.6H166V285z"/>
		<path class="st0" d="M197.7,294.9h-12.3v10.7h-2.8v-23.1h2.8v9.9h12.3v-9.9h2.8v23.1h-2.8V294.9z"/>
		<path class="st0" d="M209.5,282.4h2.8V303h11.6v2.5h-14.4V282.4z"/>
		<path class="st0" d="M230.4,282.4h14.5v2.5h-11.6v7.4h9.5v2.5h-9.5v8.1h12v2.5h-14.8V282.4z"/>
		<path class="st0" d="M257.5,285h-7.4v-2.5h17.6v2.5h-7.4v20.6h-2.8V285z"/>
		<path class="st0" d="M274.3,282.4h2.8v23.1h-2.8V282.4z"/>
		<path class="st0" d="M284.7,294c0-8,5.4-11.8,11.2-11.8c5,0,9.1,3.1,9.7,7.5h-2.9c-0.4-2.8-3.3-4.9-6.8-4.9
			c-4.8,0-8.2,3.3-8.2,9.3c0,6,3.4,9.3,8.2,9.3c3.6,0,6.5-2.1,6.9-4.9h2.9c-0.5,4.3-4.6,7.5-9.7,7.5
			C290.1,305.8,284.7,302,284.7,294z"/>
		<path class="st0" d="M322.9,298h2.8c0.3,3.2,2.1,5.3,6.1,5.3c3.2,0,5.5-1.2,5.5-4c0-6.2-13.5-2.4-13.5-10.9c0-3.7,3.2-6.1,7.9-6.1
			c4.6,0,7.8,2.7,8.2,6.8h-2.8c-0.3-2.6-2.3-4.3-5.4-4.3c-3.1,0-5,1.4-5,3.6c0,6.2,13.6,2,13.6,10.9c0,4.2-3.5,6.6-8.4,6.6
			C326.2,305.8,323.2,302.7,322.9,298z"/>
		<path class="st0" d="M347.6,282.4h8.7c4.6,0,7.4,2.8,7.4,6.8c0,4.1-2.8,6.8-7.4,6.8h-5.9v9.4h-2.8V282.4z M360.8,289.3
			c0-2.3-1.2-4.3-4.5-4.3h-5.9v8.7h5.9C359.6,293.6,360.8,291.6,360.8,289.3z"/>
		<path class="st0" d="M369.4,294c0-6.8,4.8-11.8,11.3-11.8c6.5,0,11.4,5,11.4,11.8c0,6.8-4.8,11.8-11.4,11.8
			C374.2,305.8,369.4,300.8,369.4,294z M389.2,294c0-5.3-3.6-9.3-8.5-9.3c-4.8,0-8.4,4-8.4,9.3c0,5.3,3.6,9.3,8.4,9.3
			C385.5,303.3,389.2,299.3,389.2,294z"/>
		<path class="st0" d="M399.7,282.4h8.8c4.6,0,7.3,2.4,7.3,6.3c0,2.9-1.4,4.8-3.6,5.8c1.8,1,2.9,2.9,3.1,5.2l0.4,5.7h-2.8l-0.4-5.6
			c-0.1-2.2-1.6-3.8-3.7-3.8h-6.2v9.4h-2.8V282.4z M412.9,289.2c0-2.3-1.2-4.3-4.5-4.3h-5.9v8.7h5.9
			C411.7,293.6,412.9,291.5,412.9,289.2z"/>
		<path class="st0" d="M428.2,285h-7.4v-2.5h17.6v2.5H431v20.6h-2.8V285z"/>
		<path class="st0" d="M442.7,298h2.8c0.3,3.2,2.1,5.3,6.1,5.3c3.2,0,5.5-1.2,5.5-4c0-6.2-13.5-2.4-13.5-10.9c0-3.7,3.2-6.1,7.9-6.1
			c4.6,0,7.8,2.7,8.2,6.8h-2.8c-0.3-2.6-2.3-4.3-5.4-4.3c-3.1,0-5,1.4-5,3.6c0,6.2,13.6,2,13.6,10.9c0,4.2-3.5,6.6-8.4,6.6
			C446,305.8,443,302.7,442.7,298z"/>
		<path class="st0" d="M478.6,282.4h8.7c4.6,0,7.4,2.8,7.4,6.8c0,4.1-2.8,6.8-7.4,6.8h-5.9v9.4h-2.8V282.4z M491.8,289.3
			c0-2.3-1.2-4.3-4.5-4.3h-5.9v8.7h5.9C490.6,293.6,491.8,291.6,491.8,289.3z"/>
		<path class="st0" d="M501.7,282.4h8.8c4.6,0,7.3,2.4,7.3,6.3c0,2.9-1.4,4.8-3.6,5.8c1.8,1,2.9,2.9,3.1,5.2l0.4,5.7h-2.8l-0.4-5.6
			c-0.1-2.2-1.6-3.8-3.7-3.8h-6.2v9.4h-2.8V282.4z M514.9,289.2c0-2.3-1.2-4.3-4.5-4.3h-5.9v8.7h5.9
			C513.7,293.6,514.9,291.5,514.9,289.2z"/>
		<path class="st0" d="M524.4,294c0-6.8,4.8-11.8,11.3-11.8c6.5,0,11.4,5,11.4,11.8c0,6.8-4.8,11.8-11.4,11.8
			C529.3,305.8,524.4,300.8,524.4,294z M544.2,294c0-5.3-3.6-9.3-8.5-9.3c-4.8,0-8.4,4-8.4,9.3c0,5.3,3.6,9.3,8.4,9.3
			C540.6,303.3,544.2,299.3,544.2,294z"/>
		<path class="st0" d="M553.5,294c0-7.9,5.3-11.8,11.2-11.8c5.4,0,9.4,3.1,10,7.6h-3.1c-0.6-3-3.3-5-6.9-5c-4.7,0-8.3,3.3-8.3,9.3
			c0,6,3.5,9.3,8.3,9.3c3.9,0,7.1-2.2,7.1-5.2c0-1.3-0.6-1.9-1.8-1.9h-5.2v-2.4h5.9c2.4,0,3.9,1.5,3.9,3.9v8h-2.6v-3.5
			c-1.2,2.1-3.9,3.8-7.5,3.8C558.7,305.8,553.5,301.9,553.5,294z"/>
		<path class="st0" d="M582.6,282.4h8.8c4.6,0,7.3,2.4,7.3,6.3c0,2.9-1.4,4.8-3.6,5.8c1.8,1,2.9,2.9,3.1,5.2l0.4,5.7h-2.8l-0.4-5.6
			c-0.1-2.2-1.6-3.8-3.7-3.8h-6.2v9.4h-2.8V282.4z M595.8,289.2c0-2.3-1.2-4.3-4.5-4.3h-5.9v8.7h5.9
			C594.6,293.6,595.8,291.5,595.8,289.2z"/>
		<path class="st0" d="M613.5,282.4h2.6l9.2,23.1h-2.9l-2.4-6.2h-10.3l-2.4,6.2h-2.9L613.5,282.4z M619,296.8l-4.2-10.9l-4.2,10.9
			H619z"/>
		<path class="st0" d="M631.8,282.4h3.7l7.6,19.3l7.6-19.3h3.7v23.1h-2.7v-18.4l-7.3,18.4h-2.4l-7.3-18.4v18.4h-2.7V282.4z"/>
		<path class="st0" d="M663.3,282.4h3.7l7.6,19.3l7.6-19.3h3.7v23.1h-2.7v-18.4l-7.3,18.4h-2.4l-7.3-18.4v18.4h-2.7V282.4z"/>
		<path class="st0" d="M694.8,282.4h2.8v23.1h-2.8V282.4z"/>
		<path class="st0" d="M706.6,282.4h3.2l11.9,18.8v-18.8h2.8v23.1h-3.2l-11.9-18.8v18.8h-2.8V282.4z"/>
		<path class="st0" d="M732.2,294c0-7.9,5.3-11.8,11.2-11.8c5.4,0,9.4,3.1,10,7.6h-3.1c-0.6-3-3.3-5-6.9-5c-4.7,0-8.3,3.3-8.3,9.3
			c0,6,3.5,9.3,8.3,9.3c3.9,0,7.1-2.2,7.1-5.2c0-1.3-0.6-1.9-1.8-1.9h-5.2v-2.4h5.9c2.4,0,3.9,1.5,3.9,3.9v8h-2.6v-3.5
			c-1.2,2.1-3.9,3.8-7.5,3.8C737.5,305.8,732.2,301.9,732.2,294z"/>
		<path class="st0" d="M772.5,282.4h3.2l11.9,18.8v-18.8h2.8v23.1h-3.2l-11.9-18.8v18.8h-2.8V282.4z"/>
		<path class="st0" d="M799.4,282.4h14.5v2.5h-11.6v7.4h9.5v2.5h-9.5v8.1h12v2.5h-14.8V282.4z"/>
		<path class="st0" d="M826.6,285h-7.4v-2.5h17.6v2.5h-7.4v20.6h-2.8V285z"/>
		<path class="st0" d="M841.2,282.4h2.9l5.7,18.9l5.8-18.9h2.5l5.8,18.9l5.7-18.9h2.9l-7.1,23.1h-2.9l-5.7-18.8l-5.7,18.8h-2.8
			L841.2,282.4z"/>
		<path class="st0" d="M877.4,294c0-6.8,4.8-11.8,11.3-11.8c6.5,0,11.4,5,11.4,11.8c0,6.8-4.8,11.8-11.4,11.8
			C882.2,305.8,877.4,300.8,877.4,294z M897.2,294c0-5.3-3.6-9.3-8.5-9.3c-4.8,0-8.4,4-8.4,9.3c0,5.3,3.6,9.3,8.4,9.3
			C893.6,303.3,897.2,299.3,897.2,294z"/>
		<path class="st0" d="M907.7,282.4h8.8c4.6,0,7.3,2.4,7.3,6.3c0,2.9-1.4,4.8-3.6,5.8c1.8,1,2.9,2.9,3.1,5.2l0.4,5.7h-2.8l-0.4-5.6
			c-0.1-2.2-1.6-3.8-3.7-3.8h-6.2v9.4h-2.8V282.4z M920.9,289.2c0-2.3-1.2-4.3-4.5-4.3h-5.9v8.7h5.9
			C919.7,293.6,920.9,291.5,920.9,289.2z"/>
		<path class="st0" d="M931.8,305.6v-23.1h2.8v11l10.7-11h3.6l-9,9.3l10,13.8h-3.4l-8.5-11.8l-3.4,3.5v8.3H931.8z"/>
	</g>
	<g>
		<path class="st0" d="M596.4,189.2c0.1,0.9,0.1,1.9,0.1,2.8c0,5.4-0.9,10.6-2.5,15.4c0,0.1-0.1,0.3-0.1,0.4
			c-2.4,7-6.2,13.2-11.2,18.3c-7.4,7.6-17.2,12.6-28.2,13.8H416.8l5.7-7.5l19-25.1h100.7c8.5,0,15.3-6.9,15.3-15.3v-0.6
			c0-0.8-0.1-1.6-0.2-2.4c-0.7-4.8-3.7-8.9-7.9-11.1c-1.6-0.8-3.3-1.4-5.2-1.7c-0.7-0.1-1.4-0.1-2.1-0.1h-81.7
			c-16.2,0-30.5-8.4-39-21.1c0,0,0-0.1-0.1-0.1c0,0,0,0.1,0,0.1c0,0.2,0,0.3-0.1,0.5c-2.3-3.4-4.1-7-5.4-10.9
			c-1.7-4.9-2.6-10.1-2.6-15.5c0-5.1,0.8-10.1,2.3-14.7c2.3-7.1,6.3-13.5,11.5-18.7c8.6-8.6,20.4-13.8,33.4-13.8h142.2l-19.4,25.6
			l-5.3,6.9l-0.4,0.5c-1.1-0.3-2.2-0.4-3.4-0.4h-107c-4.2,0-7.9,1.7-10.6,4.4c-2.7,2.7-4.4,6.5-4.4,10.6c0,8.3,6.7,15.1,15.1,15.1
			h82c11.6,0,22.2,4.2,30.4,11.1c0,0,0.1,0.1,0.1,0.1c0.1,0.1,0.2,0.2,0.3,0.3c0.1-0.1,0.2-0.2,0.2-0.4h0.1
			c6.3,5.6,11,12.9,13.7,21.2c0.1,0.3,0.2,0.7,0.3,1C595.5,181.6,596.2,185.4,596.4,189.2L596.4,189.2z"/>
		<polygon class="st0" points="950,82 950,240 948.8,240 911.1,212.6 904.1,207.5 879,189.2 862.7,177.3 833.2,155.9 829.3,153 
			829.3,240 791.2,240 791.2,82 792.1,82 829.3,109.1 836.8,114.6 878.2,144.7 893.5,155.9 911.1,168.7 911.1,82 		"/>
		<polygon class="st0" points="411.1,240 367.8,240 344.9,207.5 337.7,197.1 332.1,189.2 325.1,179.2 324.4,178.1 308.8,155.9 
			301,144.7 294.1,134.9 287.2,144.7 279.4,155.9 263.8,178.1 256.1,189.2 243.3,207.5 220.5,240 177.1,240 189.4,222.6 
			199.9,207.5 212.7,189.2 220.5,178.1 236.1,155.9 243.9,144.7 265,114.6 272.4,104 287.8,82 294.1,73 300.4,82 315.8,104 
			323.2,114.6 344.3,144.7 352.1,155.9 367.7,178.1 373.3,186.2 373.4,186.2 375.5,189.2 385,202.8 388.3,207.5 		"/>
		<path class="st0" d="M778.3,135.6c0,3.1-0.3,6.2-0.8,9.1c-0.7,3.9-1.7,7.6-3.2,11.1c-2.7,6.7-6.7,12.7-11.7,17.7
			c-1.3,1.3-2.7,2.6-4.2,3.8c-9.2,7.4-20.9,11.9-33.7,11.9h-74.1V240h-38.1v-84.2h109.5c7.6,0,14-4.6,16.8-11.1
			c0.9-2.2,1.5-4.6,1.5-7.1v-4.8c0-10.1-8.2-18.3-18.3-18.3H612.5V83.1c1.8-0.7,3.7-1.1,5.7-1.1h106.5c2.7,0,5.3,0.2,7.9,0.6
			c17.6,2.6,32.5,13.8,40.1,29.2c0.5,0.9,0.9,1.8,1.3,2.8C776.8,121,778.3,128.1,778.3,135.6z"/>
		<linearGradient id="SVGID_1_" gradientUnits="userSpaceOnUse" x1="167.5988" y1="76.7801" x2="160.6987" y2="28.8249">
			<stop  offset="0" style="stop-color:#CE9F3B"/>
			<stop  offset="0.5553" style="stop-color:#DDAC46"/>
			<stop  offset="1" style="stop-color:#AB7822"/>
		</linearGradient>
		<path class="st1" d="M188.4,52.8c0,4.9-1.5,9.5-4,13.3C180,72.7,172.6,77,164.1,77c-8.5,0-15.9-4.3-20.2-10.9
			c-2.5-3.8-4-8.4-4-13.3c0-13.4,10.8-24.2,24.2-24.2C177.5,28.6,188.4,39.4,188.4,52.8z"/>
		<linearGradient id="SVGID_2_" gradientUnits="userSpaceOnUse" x1="87.5619" y1="69.3089" x2="243.8648" y2="69.3089">
			<stop  offset="0" style="stop-color:#CE9F3B"/>
			<stop  offset="0.5553" style="stop-color:#DDAC46"/>
			<stop  offset="1" style="stop-color:#AB7822"/>
		</linearGradient>
		<path class="st2" d="M243.9,1.3c-0.1,11.6-1.7,29.2-9.3,48.6c-1.2,3-2.5,6.1-4,9.2c-1.2,2.5-2.4,4.8-3.7,7
			c-3.4,6.1-7,11.4-10.5,15.9c-5.6,7.3-11,12.6-14.8,16.4c-6.2,6.2-12.6,11.5-19,16.1c-17.2,12.5-34.3,19.8-47.3,24.1
			c2.2-2.6,9.8-12.3,9.1-24.1c-0.1-1.1-0.2-2.2-0.4-3.3c-1.7-9.1-8.1-15.1-15.1-19.7c-3.5-2.3-7.2-4.2-10.6-6
			c-2.7-1.4-5.4-2.6-8.1-3.6c-8.4-3.1-16.3-4.3-22.7-4.6v-0.9c8.1-1.8,19.8-3.3,33.6-1.7c2.7,0.3,5.2,0.7,7.7,1.2
			c7.6,1.5,14.3,3.7,19.7,6c4.3,1.8,7.9,3.7,10.7,5.2c4.7,0.7,10.7,1,17.4-0.4c3.2-0.7,7.3-1.9,12.3-4.8c5.2-3,11.3-7.9,18.4-15.9
			c1.5-1.7,3-3.4,4.5-5.4c5.8-7.2,10.7-14.6,14.8-22C234.2,25.5,239.4,12.2,243,0L243.9,1.3z"/>
		<path class="st0" d="M226.3,82c-2.1,3.9-4.7,8.4-7.8,13.3c-4.6,7.3-9.2,13.8-13.4,19.2c-6.3,8.2-11.7,14.1-14.8,17.4
			c-3.4,3.6-7.4,7.9-12.4,12.7c-3.6,3.5-7.7,7.3-12.2,11.1c-3.9,3.3-8.1,6.6-12.7,10c-2.3,1.7-4.9,3.6-7.7,5.8
			c-2.2,1.9-4.5,4-6.6,6.4c-2.8,3.1-5.2,6.8-6.9,11.1c-0.5,1.3-1,2.7-1.3,4.2c0,0,0,0,0,0.1c-1,3.9-1.5,7.9-1.5,11.9V240H87.6v-72.7
			l-9.9-11.5L68,144.7l-26.1-30.2L13.7,82L0,66.1h53.6L67.4,82l20.2,23.2l8.1,9.3l26.2,30.2l0.5,0.6c-3,1.5-9.4,5-15.3,10.6
			c-3.4,3.2-6.8,7.1-9.2,11.6c-1.5,2.7-2.5,5.3-3.3,7.8c-0.3,1-0.6,1.9-0.8,2.8c-1.1,4.3-1.4,8.1-1.4,11.1c0,1.9,0.1,3.5,0.2,4.6
			c0.6-1.4,1.3-3,2.1-4.6c1.3-2.6,2.8-5.4,4.7-8.3c0.6-0.9,1.2-1.9,1.9-2.8c2.3-3.3,5-6.7,8.1-10c1.7-1.9,5.7-5.9,14.9-12.2l4.7-3
			v-0.1c1.6-1.1,3.4-2.2,5.3-3.3c3.1-1.9,5.7-3.4,8-4.7c12.4-6.8,15.8-6.4,28.7-14.3c8.5-5.2,15.6-10.7,21.7-15.9
			c5.4-4.6,10-9.1,14.1-13C213.9,94.4,226.3,82,226.3,82z"/>
		<linearGradient id="SVGID_3_" gradientUnits="userSpaceOnUse" x1="232.2357" y1="208.1181" x2="418.272" y2="208.1181">
			<stop  offset="0.2079" style="stop-color:#AA7821"/>
			<stop  offset="0.5553" style="stop-color:#DDAC46"/>
			<stop  offset="0.856" style="stop-color:#AB7822"/>
		</linearGradient>
		<path class="st3" d="M232.2,238.1c5.5-9.6,16.9-26.4,37.3-40.2c17.6-11.8,33.7-15.9,38.5-17c6.7-1.5,44.8-9.6,82,12.4
			c13.8,8.1,22.9,17.7,28.2,24c-14-7.8-46.4-23.2-88.7-20.3c-7.8,0.5-35.1,3-65.5,19.1C250.2,223.5,239.6,231.6,232.2,238.1z"/>
		<linearGradient id="SVGID_4_" gradientUnits="userSpaceOnUse" x1="786.9091" y1="160.134" x2="644.2742" y2="80.8924">
			<stop  offset="0.2079" style="stop-color:#AA7821"/>
			<stop  offset="0.5553" style="stop-color:#DDAC46"/>
			<stop  offset="0.856" style="stop-color:#AB7822"/>
		</linearGradient>
		<path class="st4" d="M774,114.6c-0.4-0.9-0.8-1.9-1.3-2.8c-7.6-15.4-22.5-26.6-40.1-29.2c-2.6-0.4-5.2-0.6-7.9-0.6H618.2
			c-2,0-4,0.4-5.7,1.1v31.4h109.5c10.1,0,18.3,8.2,18.3,18.3v4.8c0,2.5-0.5,5-1.5,7.1c-0.8,1.8-1.9,3.5-3.2,5l21,29
			c0.6-0.5,1.2-0.9,1.9-1.4c1.5-1.2,2.9-2.5,4.2-3.8c5-5,9-11,11.7-17.7c1.4-3.5,2.5-7.3,3.2-11.1c0.5-3,0.8-6,0.8-9.1
			C778.3,128.1,776.8,121,774,114.6z"/>
	</g>
	<g>
		<path class="st0" d="M947.2,346.1H2.8c-1.6,0-2.8-0.4-2.8-1c0-0.5,1.3-0.9,2.8-0.9h944.3c1.6,0,2.8,0.4,2.8,0.9
			C950,345.7,948.7,346.1,947.2,346.1z"/>
	</g>
</g>
</svg>
