<?xml version="1.0" encoding="utf-8"?>
<!-- Generator: Adobe Illustrator 23.1.0, SVG Export Plug-In . SVG Version: 6.00 Build 0)  -->
<svg version="1.1" id="Layer_1" xmlns="http://www.w3.org/2000/svg" xmlns:xlink="http://www.w3.org/1999/xlink" x="0px" y="0px"
	 viewBox="0 0 512 512" style="enable-background:new 0 0 512 512;" xml:space="preserve">
<style type="text/css">
	.st0{fill:url(#SVGID_1_);}
	.st1{fill:url(#SVGID_2_);}
	.st2{fill:url(#SVGID_3_);}
</style>
<linearGradient id="SVGID_1_" gradientUnits="userSpaceOnUse" x1="34.8462" y1="116.7692" x2="477.1538" y2="116.7692">
	<stop  offset="0" style="stop-color:#CD9E3B"/>
	<stop  offset="0.5553" style="stop-color:#DCAB46"/>
	<stop  offset="1" style="stop-color:#AA7822"/>
</linearGradient>
<path class="st0" d="M44.5,179.1c-5.3,0-9.6,4.3-9.6,9.6v38.5h19.2v-28.8h33.3c4.6,0.1,8.6-3,9.6-7.5c4-17.8,11-34.8,20.8-50.2
	c2.4-3.8,1.8-8.8-1.3-11.9l-23.8-23.9l41.1-41.1l23.6,23.6c3.2,3.2,8.1,3.7,11.9,1.3c15.5-9.8,32.6-16.9,50.6-21
	c4.5-1,7.6-5,7.5-9.6V25.2h57.7v33.3c-0.1,4.6,3,8.6,7.5,9.6c17.8,4,34.8,11,50.2,20.8c3.8,2.4,8.8,1.8,11.9-1.3l23.9-23.8
	l41.1,41.1l-23.6,23.6c-3.5,3.2-4.2,8.4-1.6,12.3c9.8,15.5,16.9,32.6,21,50.6c1,4.5,5,7.6,9.6,7.5h33.1v28.8h19.2v-38.8
	c0-5.3-4.3-9.6-9.6-9.6h-35.4c-4.1-14.8-10-29.1-17.6-42.4l25-24.9c3.8-3.7,3.8-9.8,0.1-13.6c0,0,0,0-0.1-0.1l-54.3-54.5
	c-3.7-3.8-9.8-3.8-13.6-0.1c0,0,0,0-0.1,0.1l-25.1,25C333.1,61,318.9,55.1,304.1,51V15.6c0-5.3-4.3-9.6-9.6-9.6h-76.9
	c-5.3,0-9.6,4.3-9.6,9.6V51c-14.8,4.1-29.1,10-42.4,17.6l-24.9-25c-3.7-3.8-9.8-3.8-13.6-0.1c0,0,0,0-0.1,0.1L72.6,97.9
	c-3.8,3.7-3.8,9.8-0.1,13.6c0,0,0,0,0.1,0.1l25,25.1C90,150,84,164.3,79.8,179.1H44.5z"/>
<linearGradient id="SVGID_2_" gradientUnits="userSpaceOnUse" x1="131" y1="164.6538" x2="381" y2="164.6538">
	<stop  offset="0" style="stop-color:#CD9E3B"/>
	<stop  offset="0.5553" style="stop-color:#DCAB46"/>
	<stop  offset="1" style="stop-color:#AA7822"/>
</linearGradient>
<path class="st1" d="M256,102.2c-69,0-125,56-125,125h19.2c0-58.4,47.4-105.8,105.8-105.8s105.8,47.4,105.8,105.8H381
	C381,158.1,325,102.2,256,102.2z"/>
<linearGradient id="SVGID_3_" gradientUnits="userSpaceOnUse" x1="6" y1="376.1923" x2="506" y2="376.1923">
	<stop  offset="0" style="stop-color:#CD9E3B"/>
	<stop  offset="0.5553" style="stop-color:#DCAB46"/>
	<stop  offset="1" style="stop-color:#AA7822"/>
</linearGradient>
<path class="st2" d="M496.4,246.4H15.6c-5.3,0-9.6,4.3-9.6,9.6c0,138.1,111.9,250,250,250s250-111.9,250-250
	C506,250.7,501.7,246.4,496.4,246.4z M358.1,275.2c2.1,28.5-1.2,57.2-9.6,84.5c-26.4-10.5-54.5-16.4-82.9-17.2v-76.9h91.6
	c0.4,3.3,0.7,6.5,0.9,10.1V275.2z M153.9,275.2c0-3.5,0.5-6.7,0.9-9.6h91.6v76.9c-28.3,1-56.2,6.9-82.5,17.4
	C155.3,332.6,151.9,303.8,153.9,275.2z M265.6,361.8c26.1,1,51.8,6.5,76,16.3c-1.1,2.4-1.9,4.9-3,7.3
	c-11.5,25.7-27.6,49.1-47.5,68.9c-7.9,8.2-16.4,15.9-25.5,22.9V361.8z M246.4,476.2c-9-6.6-17.6-14-25.5-21.9
	c-20-19.9-36.1-43.3-47.5-69c-1.1-2.4-2-4.8-3-7.2c24.2-9.8,49.9-15.3,76-16.3V476.2z M155.9,393c12.3,27.9,29.7,53.3,51.3,74.9
	c5.9,5.9,12,11.3,18.4,16.5c-47.7-6.4-92.1-27.5-127.2-60.4c16.2-15.3,34.6-28.1,54.6-38c1,2.6,1.8,4.5,2.9,7.2V393z M304.8,467.9
	c21.6-21.6,39-46.9,51.3-74.8c1.1-2.3,1.9-4.7,2.9-7.1c20,10.1,38.4,23,54.6,38.5c-35.1,32.9-79.6,54-127.2,60.4
	c6.3-5.3,12.5-10.8,18.4-16.6V467.9z M135.4,265.6c0,2.9-0.6,5.8-0.8,8.8c-2.1,31.7,1.8,63.6,11.6,93.8
	c-22.5,10.9-43.2,25.2-61.3,42.4c-36.3-39.8-57.4-91.2-59.7-145H135.4z M427.1,410.6c-18.2-17.2-38.9-31.5-61.3-42.4
	c9.8-30.2,13.7-62,11.6-93.8c0-3.1,0-6-0.8-8.8h110.2C484.5,319.5,463.4,370.8,427.1,410.6z"/>
</svg>
