<?xml version="1.0" encoding="utf-8"?>
<!-- Generator: Adobe Illustrator 23.1.0, SVG Export Plug-In . SVG Version: 6.00 Build 0)  -->
<svg version="1.1" id="Layer_1" xmlns="http://www.w3.org/2000/svg" xmlns:xlink="http://www.w3.org/1999/xlink" x="0px" y="0px"
	 viewBox="0 0 512 512" style="enable-background:new 0 0 512 512;" xml:space="preserve">
<style type="text/css">
	.st0{fill:url(#SVGID_1_);}
	.st1{fill:url(#SVGID_2_);}
</style>
<g id="_x35_1_Seo_Manager">
	<g>
		<g>
			<linearGradient id="SVGID_1_" gradientUnits="userSpaceOnUse" x1="176.9682" y1="101.3295" x2="342.0992" y2="101.3295">
				<stop  offset="0" style="stop-color:#CD9E3B"/>
				<stop  offset="0.5553" style="stop-color:#DCAB46"/>
				<stop  offset="1" style="stop-color:#AA7822"/>
			</linearGradient>
			<path class="st0" d="M187.9,125c0,39,31,70.8,69.9,71.7c42,0.6,73.4-35.4,73.4-74.4v-4.1c6.9-14.3,10.9-29.8,10.9-44.7
				c0-41.6-31.6-67.5-82.6-67.5S177,31.9,177,73.5c0,15,4,30.7,10.9,45.1L187.9,125L187.9,125z M315.6,122.2
				c0,31.6-25.7,59.3-57.4,58.8c-30.7-0.7-54.7-25.8-54.7-56.1V98.7c0-7.6,6.2-13.8,13.8-13.8h84.4c7.6,0,13.8,6.2,13.8,13.8V122.2z
				 M259.5,21.6c20.1,0,66.9,5.1,66.9,51.8c0,2.8-0.2,5.6-0.6,8.5c-5.3-7.7-14.2-12.7-24.2-12.7h-84.4c-10,0-18.9,5.1-24.2,12.7
				c-0.3-2.9-0.6-5.7-0.6-8.5C192.6,25.4,243.8,21.6,259.5,21.6L259.5,21.6z"/>
			<linearGradient id="SVGID_2_" gradientUnits="userSpaceOnUse" x1="84.1418" y1="355.7131" x2="427.8582" y2="355.7131">
				<stop  offset="0" style="stop-color:#CD9E3B"/>
				<stop  offset="0.5553" style="stop-color:#DCAB46"/>
				<stop  offset="1" style="stop-color:#AA7822"/>
			</linearGradient>
			<path class="st1" d="M420,326.3h-10.3c-0.6-64.3-60.7-110-126.6-119.1c-16.6-2.4-37.6-2.5-54.4,0c-73,10.3-126,60.3-126.5,119.1
				H92c-4.3,0-7.8,3.5-7.8,7.8V354c0,4,3.1,7.4,7.1,7.8l2.5,0.2c12.6,1.2,23.4,9.7,28.1,22.2c1,2.9,2.3,6.2,3.8,9.2
				c5.6,12.2,4,25.9-4.1,35.7l-1.6,2c-2.6,3.1-2.3,7.6,0.5,10.5l28.1,28.1c2.8,2.8,7.2,3.1,10.3,0.7l2.2-1.7
				c9.6-8.1,23.3-9.7,35.6-4.2c2.9,1.3,6.1,2.7,9.1,3.8c12.6,4.7,21.1,15.5,22.3,28.4l0.3,2.5c0.5,3.9,3.8,6.8,7.7,6.8H276
				c4.2,0,7.6-3.3,7.8-7.5l0.1-2.1c1.3-12.7,9.8-23.5,22.1-28.1c3.6-1.2,6.7-2.5,9.3-3.8c12.4-5.5,26.1-3.9,35.9,4.2l1.8,1.5
				c3.1,2.5,7.6,2.3,10.5-0.5l28.1-28.1c2.8-2.8,3.1-7.2,0.7-10.3l-1.7-2.2c-8.1-9.7-9.7-23.3-4-35.6c1.4-3,2.6-6.1,3.7-9.1
				c4.7-12.6,15.5-21.1,28.1-22.3l2.5-0.2c4-0.4,7.1-3.7,7.1-7.8v-19.9C427.9,329.8,424.4,326.3,420,326.3L420,326.3z M269.8,276.6
				c0.4,1.8-0.1,3.7-1.4,5l-8.4,8.6c-2.3,2.3-5.8,2.2-8,0l-8.4-8.7c-1.3-1.3-1.8-3.2-1.5-5l11.4-55.5c1.6,0,2.3-0.1,4.7-0.1
				L269.8,276.6z M231,222.7c2.1-0.3,4.3-0.5,6.4-0.7l-10.6,51.4c-1.3,7,0.8,14.1,5.6,19l8.4,8.6c8.4,8.5,22,8.5,30.3,0l8.3-8.5
				c5-5,7.1-12.2,5.6-19.2L274.5,222c2.2,0.2,4.4,0.4,6.5,0.7c57.6,7.9,112.6,47.3,113.2,103.6c-182.7,0.3-209.8,0-276.3,0
				C118.4,275.4,165.8,231.9,231,222.7L231,222.7z M305.5,342.3c-3.9,23.8-24.6,42-49.5,42s-45.6-18.2-49.5-42H305.5z M412.2,347.1
				c-16.6,3.2-30.5,15-36.8,31.8c-1,2.7-2,5.4-3.2,8c-7.5,16.4-6.1,34.7,3.4,48.4l-18.5,18.5c-13.9-9.4-32-10.8-48.6-3.4
				c-2.3,1.1-4.8,2.2-7.9,3.2c-16.5,6.2-28.3,19.9-31.7,36.7h-26c-3.2-16.6-15-30.5-31.8-36.8c-2.7-1-5.4-2.1-8.1-3.3
				c-16.4-7.4-34.6-5.9-48.3,3.5l-18.4-18.4c9.5-14,10.9-32.2,3.4-48.7c-1.2-2.5-2.3-5.3-3.2-7.9c-6.2-16.7-20.1-28.5-36.7-31.7V342
				c124.6,0.5,81.6,0.3,90.9,0.4c4,32.5,31.8,57.7,65.3,57.7s61.3-25.2,65.3-57.7c9.3,0-33.7,0.1,90.9-0.4L412.2,347.1L412.2,347.1z
				"/>
		</g>
	</g>
</g>
</svg>
