<?xml version="1.0" encoding="utf-8"?>
<!-- Generator: Adobe Illustrator 23.1.0, SVG Export Plug-In . SVG Version: 6.00 Build 0)  -->
<svg version="1.1" id="Layer_1" xmlns="http://www.w3.org/2000/svg" xmlns:xlink="http://www.w3.org/1999/xlink" x="0px" y="0px"
	 viewBox="0 0 512 512" style="enable-background:new 0 0 512 512;" xml:space="preserve">
<style type="text/css">
	.st0{fill:url(#SVGID_1_);}
	.st1{fill:url(#SVGID_2_);}
</style>
<g>
	<linearGradient id="SVGID_1_" gradientUnits="userSpaceOnUse" x1="114.3333" y1="197.6667" x2="397.6667" y2="197.6667">
		<stop  offset="0" style="stop-color:#CD9E3B"/>
		<stop  offset="0.5553" style="stop-color:#DCAB46"/>
		<stop  offset="1" style="stop-color:#AA7822"/>
	</linearGradient>
	<path class="st0" d="M189.3,272.5v18.3c-9.7,3.4-16.7,12.6-16.7,23.5V331c0,13.8,11.3,25,25,25h8.3c0,18.4,14.9,33.3,33.3,33.3
		h33.3c18.4,0,33.3-14.9,33.3-33.3h8.3c13.8,0,25-11.2,25-25v-16.7c0-10.8-7-20-16.7-23.5v-18.3c46.4-24.7,75-72.1,75-124.8
		C397.7,69.6,334.1,6,256,6S114.3,69.6,114.3,147.7C114.3,200.4,142.9,247.7,189.3,272.5z M272.7,372.7h-33.3
		c-9.2,0-16.7-7.5-16.7-16.7h66.7C289.3,365.2,281.8,372.7,272.7,372.7z M322.7,331c0,4.6-3.8,8.3-8.3,8.3H197.7
		c-4.6,0-8.3-3.8-8.3-8.3v-16.7c0-4.6,3.8-8.3,8.3-8.3h116.7c4.6,0,8.3,3.8,8.3,8.3V331z M239.3,114.3c-4.6,0-8.3-3.8-8.3-8.3
		s3.8-8.3,8.3-8.3c4.6,0,8.3,3.7,8.3,8.3S243.9,114.3,239.3,114.3z M256,22.7c68.9,0,125,56.1,125,125c0,48.1-26.9,91.1-70.3,112.3
		c-2.8,1.4-4.7,4.3-4.7,7.5v21.9h-25V181h26.5c3.4,9.7,12.6,16.7,23.5,16.7c13.8,0,25-11.3,25-25s-11.3-25-25-25
		c-10.8,0-20,7-23.5,16.7h-34.8c-4.6,0-8.3,3.8-8.3,8.3v116.7h-16.7V129.5c9.7-3.4,16.7-12.6,16.7-23.5c0-13.7-11.3-25-25-25
		c-13.7,0-25,11.3-25,25c0,10.8,7,20,16.7,23.5v159.8h-25v-21.9c0-3.2-1.8-6.1-4.7-7.5c-43.4-21.2-70.3-64.2-70.3-112.3
		C131,78.7,187.1,22.7,256,22.7z M322.7,172.7c0-4.6,3.8-8.3,8.3-8.3c4.6,0,8.3,3.8,8.3,8.3s-3.8,8.3-8.3,8.3
		C326.4,181,322.7,177.2,322.7,172.7z"/>
	<linearGradient id="SVGID_2_" gradientUnits="userSpaceOnUse" x1="31" y1="389.3333" x2="481" y2="389.3333">
		<stop  offset="0" style="stop-color:#CD9E3B"/>
		<stop  offset="0.5553" style="stop-color:#DCAB46"/>
		<stop  offset="1" style="stop-color:#AA7822"/>
	</linearGradient>
	<path class="st1" d="M472.7,272.7h-83.3c-4.6,0-8.3,3.8-8.3,8.3c0,68.9-56.1,125-125,125s-125-56.1-125-125c0-4.6-3.8-8.3-8.3-8.3
		H39.3c-4.6,0-8.3,3.8-8.3,8.3v39.4c0,3.8,2.6,7.2,6.3,8.1l42.4,10.6c2.9,8.8,6.5,17.3,10.6,25.5L67.8,402c-2,3.3-1.5,7.5,1.3,10.2
		l55.7,55.7c2.8,2.8,6.9,3.3,10.2,1.3l37.4-22.5c8.1,4.1,16.7,7.6,25.5,10.6l10.6,42.4c0.9,3.8,4.3,6.3,8.1,6.3h78.8
		c3.8,0,7.2-2.6,8.1-6.3l10.6-42.4c8.8-2.9,17.3-6.5,25.5-10.6l37.4,22.5c3.3,2,7.5,1.5,10.2-1.3l55.8-55.7
		c2.8-2.7,3.2-6.9,1.3-10.2l-22.5-37.4c4.1-8.1,7.6-16.7,10.6-25.5l42.4-10.6c3.7-0.9,6.3-4.3,6.3-8.1V281
		C481,276.4,477.3,272.7,472.7,272.7z M464.3,313.9l-40.6,10.2c-2.8,0.8-5.1,2.8-5.9,5.7c-3.3,11-7.8,21.5-13,31.3
		c-1.4,2.6-1.3,5.7,0.3,8.3l21.6,35.8l-46.5,46.5L344.3,430c-2.5-1.5-5.7-1.6-8.3-0.2c-9.7,5.3-20.3,9.6-31.3,13
		c-2.8,0.8-4.9,3.1-5.7,5.9L289,489.3h-65.8L213,448.7c-0.7-2.8-2.8-5.1-5.7-5.9c-11-3.3-21.5-7.8-31.2-13c-2.6-1.4-5.8-1.3-8.3,0.2
		L132,451.6l-46.5-46.5l21.6-35.8c1.5-2.5,1.6-5.7,0.3-8.3c-5.3-9.8-9.6-20.3-13-31.3c-0.8-2.8-3.1-4.9-5.9-5.7l-40.6-10.2v-24.6
		h66.9c4.3,74.3,66.1,133.3,141.4,133.3s137.1-59.1,141.4-133.3h66.9v24.6L464.3,313.9z"/>
</g>
</svg>
