<?xml version="1.0" encoding="utf-8"?>
<!-- Generator: Adobe Illustrator 23.1.0, SVG Export Plug-In . SVG Version: 6.00 Build 0)  -->
<svg version="1.1" id="Layer_1" xmlns="http://www.w3.org/2000/svg" xmlns:xlink="http://www.w3.org/1999/xlink" x="0px" y="0px"
	 viewBox="0 0 512 512" style="enable-background:new 0 0 512 512;" xml:space="preserve">
<style type="text/css">
	.st0{fill:url(#SVGID_1_);}
</style>
<linearGradient id="SVGID_1_" gradientUnits="userSpaceOnUse" x1="6" y1="256" x2="506" y2="256">
	<stop  offset="0" style="stop-color:#CD9E3B"/>
	<stop  offset="0.5553" style="stop-color:#DCAB46"/>
	<stop  offset="1" style="stop-color:#AA7822"/>
</linearGradient>
<path class="st0" d="M427.9,6.7c-21.6-4.9-52.8,18.2-66.7,41.9C326.7,30.4,288,20.7,248.6,20.7C114.8,20.7,6,129.5,6,263.4
	s108.8,242.6,242.6,242.6s242.7-108.8,242.7-242.6c0-39.3-9.7-78.1-27.9-112.6c23.2-13.7,48.5-45.7,41.5-68.4
	c-5.2-17.2-24.6-23-57.4-17.7C454.2,22.5,440.9,9.7,427.9,6.7z M371.2,67C376,47.1,409,19.5,424.2,23c9.1,2.1,10.9,20.5,5.1,48.2
	l-51.3,51.3C372.7,110.7,366,89.5,371.2,67L371.2,67z M362.4,128.8c1,2.4,2,4.4,2.9,6.2l-19.4,19.4c-6.1-0.5-12.5,0.7-18.3,4.1
	c-4.3,2.5-9.7,2.5-13.7-0.1c-3.2-2.1-6.7-4.1-10.2-5.8c-4.2-2.2-7-6.8-7-12.5c0-16.7-13.6-30.2-30.2-30.2h-35.5
	c-16.7,0-30.2,13.6-30.2,30.9c0,5.1-2.7,9.7-7,11.9c-3.5,1.8-7,3.7-10.2,5.9c-4,2.6-9.4,2.6-14.2-0.3c-14.5-8.3-33-3.3-41.3,11.1
	L110,200.1c-4.1,7-5.1,15.2-3,23c2.1,7.8,7.1,14.3,14.6,18.7c4.4,2.6,7,7.5,6.7,12.9c0,1.7-0.1,3.3-0.1,5c0,1.7,0,3.3,0.1,5
	c0.3,5.4-2.3,10.3-7.2,13.2c-7,4.1-12,10.6-14.1,18.4c-2.1,7.8-1,16,3,23l17.7,30.7c8.3,14.4,26.9,19.4,41.9,10.7
	c4.3-2.5,9.7-2.5,13.7,0c3.2,2.1,6.7,4.1,10.2,5.9c4.2,2.2,7,6.8,7,12.5c0,16.7,13.6,30.2,30.2,30.2h35.5
	c16.7,0,30.2-13.6,30.2-30.9c0-5.1,2.7-9.7,7-11.9c3.5-1.8,6.9-3.7,10.2-5.9c4-2.6,9.4-2.6,14.2,0.3c14.4,8.3,33,3.3,41.3-11.1
	l17.7-30.7c4.1-7,5.1-15.2,3-23s-7.1-14.3-14.6-18.7c-4.4-2.6-7-7.5-6.7-12.9c0-1.7,0.1-3.3,0.1-5c0-1.7,0-3.3-0.1-5
	c-0.2-5.4,2.3-10.3,7.2-13.2c7-4.1,12-10.6,14.1-18.4s1-16-3-23l-17.7-30.7c-1.8-3.2-4.2-5.7-6.8-8l14.6-14.6
	c1.7,0.8,3.7,1.8,6.1,2.8c26.9,31.8,41.8,72.2,41.8,113.8c0,97.2-79.2,176.4-176.5,176.4S72.2,360.5,72.2,263.3S151.3,87,248.6,87
	C290.3,87,330.7,101.8,362.4,128.8z M352.3,259.5c0,1.4,0,2.7-0.1,4.2c-0.6,11.7,5.2,22.5,15.6,28.4c3.2,1.8,5.4,4.7,6.3,8.2
	c0.9,3.5,0.4,7.2-1.3,10.3l-17.7,30.7c-3.7,6.5-12.1,8.7-19.1,4.7c-9.8-5.7-21.7-5.5-31.1,0.5c-2.8,1.8-5.8,3.5-8.8,5.1
	c-9.9,5.1-16.1,15.3-16.1,27.4c0,7.5-6.1,13.6-13.6,13.6h-35.5c-7.5,0-13.6-6.1-13.6-14.2c0-11.4-6.2-21.7-16.1-26.7
	c-3-1.6-6-3.2-8.8-5.1c-4.7-3-10.2-4.6-15.7-4.6c-5.5,0-10.8,1.4-15.9,4.4c-6.5,3.7-14.8,1.5-18.6-5l-17.7-30.7
	c-1.8-3.2-2.3-6.8-1.3-10.3c0.9-3.5,3.2-6.4,6.8-8.6c9.8-5.7,15.7-16.5,15.1-28.2c0-1.4-0.1-2.7-0.1-4.2c0-1.4,0-2.7,0.1-4.2
	c0.6-11.7-5.2-22.5-15.6-28.4c-3.2-1.8-5.4-4.7-6.3-8.2s-0.4-7.2,1.3-10.3l17.7-30.7c3.7-6.5,12.1-8.7,19.1-4.7
	c9.8,5.7,21.7,5.5,31.1-0.5c2.8-1.8,5.7-3.5,8.8-5.1c9.9-5.1,16.1-15.3,16.1-27.4c0-7.5,6.1-13.6,13.6-13.6h35.5
	c7.5,0,13.6,6.1,13.6,14.2c0,11.4,6.2,21.7,16.1,26.7c3,1.6,6,3.2,8.8,5.1c5.6,3.6,12.1,5,18.6,4.4L296.2,204
	c-10.7-8.6-23.9-14.3-38.3-16v-8.2c0-4.6-3.7-8.3-8.3-8.3c-4.6,0-8.3,3.7-8.3,8.3v8.1c-35.4,3.6-63.7,31.7-67.6,67.1h-7.6
	c-4.6,0-8.3,3.7-8.3,8.3s3.7,8.3,8.3,8.3h7.5c3.8,35.4,32.2,63.5,67.6,67.2v8c0,4.6,3.7,8.3,8.3,8.3s8.3-3.7,8.3-8.3v-8.2
	c34.9-4.1,62.7-32,66.5-67h8.7c4.6,0,8.3-3.7,8.3-8.3s-3.7-8.3-8.3-8.3h-8.7c-1.6-14.7-7.5-28.2-16.3-39.2l42.7-42.7
	c1.7,1.2,3.2,2.6,4.2,4.5l17.7,30.7c1.8,3.2,2.3,6.8,1.3,10.3c-0.9,3.5-3.2,6.4-6.8,8.6c-9.8,5.7-15.7,16.5-15.1,28.2
	C352.2,256.9,352.2,258.2,352.3,259.5L352.3,259.5z M249.6,308.5c-4.6,0-8.3,3.7-8.3,8.3v5.1c-26.2-3.5-47.1-24.2-50.7-50.3h5.5
	c4.6,0,8.3-3.7,8.3-8.3s-3.7-8.3-8.3-8.3h-5.5c3.7-26.2,24.5-46.7,50.7-50.2v5c0,4.6,3.7,8.3,8.3,8.3s8.3-3.7,8.3-8.3v-4.8
	c9.8,1.5,18.8,5.3,26.4,11.1l-41.7,41.6c-3.2,3.2-3.2,8.5,0,11.7c1.7,1.7,3.7,2.4,5.9,2.4c2.2,0,4.2-0.8,5.9-2.4l41.7-41.7
	c5.9,7.8,9.9,17.1,11.4,27.2h-4.4c-4.6,0-8.3,3.7-8.3,8.3s3.7,8.3,8.3,8.3h4.4c-3.7,25.7-23.9,46.2-49.7,50.2v-4.9
	C257.9,312.2,254.2,308.5,249.6,308.5L249.6,308.5z M474.6,263.4c0,124.6-101.4,225.9-226,225.9S22.7,387.9,22.7,263.4
	s101.3-226,225.9-226c37.2,0,73.7,9.3,106.2,26.7c-3.1,13.6-2.6,26.6-0.5,38c-31.2-20.5-67.9-31.7-105.7-31.7
	C142.2,70.4,55.5,157,55.5,263.5s86.6,193.1,193.1,193.1S441.7,370,441.7,263.5c0-37.7-11.2-74.5-31.7-105.7
	c1.6,0.2,3.2,0.6,4.8,0.7c0.9,0.1,1.7,0.2,2.7,0.3c2.9,0.3,5.8,0.5,8.8,0.6c0.6,0,1.2,0.1,1.7,0.1h0.8c2.5,0,5.1-0.2,7.7-0.4
	c0.7,0,1.3,0,2-0.2c3.1-0.3,6.2-0.8,9.4-1.6c17.4,32.5,26.6,69.1,26.6,106.2L474.6,263.4z M488.9,87.3c4.1,13.2-19.5,44-40.2,52.2
	c-1.3,0.6-2.6,0.9-3.7,1.2c-20.1,4.8-39.5-0.2-52.5-5.4c-0.2-0.1-0.3-0.2-0.5-0.3h-0.1l-0.2-0.2c-0.7-0.2-1.2-0.5-1.8-0.8l30.4-30.4
	l21-21C473.1,76,486.9,80.5,488.9,87.3z"/>
</svg>
